<svg width="36" height="36" viewBox="0 0 36 36" fill="none" xmlns="http://www.w3.org/2000/svg">
<path d="M32.8231 28.0549C32.2762 29.3127 31.6288 30.4704 30.8788 31.5348C29.8564 32.9859 29.0193 33.9903 28.3742 34.5481C27.3741 35.4636 26.3027 35.9325 25.1553 35.9591C24.3316 35.9591 23.3382 35.7258 22.1819 35.2525C21.0218 34.7814 19.9556 34.5481 18.9808 34.5481C17.9584 34.5481 16.8619 34.7814 15.6891 35.2525C14.5145 35.7258 13.5682 35.9725 12.8448 35.9969C11.7445 36.0436 10.6478 35.5614 9.55305 34.5481C8.85435 33.9414 7.98042 32.9015 6.93348 31.4282C5.8102 29.8549 4.88671 28.0305 4.16324 25.9506C3.38841 23.704 3 21.5285 3 19.4223C3 17.0097 3.52369 14.9289 4.57263 13.1852C5.39701 11.7845 6.49372 10.6797 7.86635 9.86859C9.23897 9.05751 10.7221 8.64419 12.3193 8.61774C13.1932 8.61774 14.3393 8.88685 15.7634 9.41572C17.1836 9.94637 18.0955 10.2155 18.4953 10.2155C18.7942 10.2155 19.8072 9.90081 21.5245 9.2735C23.1485 8.69174 24.5191 8.45086 25.6419 8.54575C28.6845 8.79018 30.9703 9.98415 32.4905 12.1352C29.7694 13.7765 28.4233 16.0753 28.4501 19.0243C28.4747 21.3214 29.3118 23.2329 30.9569 24.7506C31.7025 25.455 32.5352 25.9994 33.4615 26.3861C33.2606 26.9661 33.0486 27.5216 32.8231 28.0549V28.0549ZM25.845 0.720205C25.845 2.52062 25.1843 4.20165 23.8673 5.75761C22.2779 7.60733 20.3554 8.67619 18.2707 8.50752C18.2442 8.29153 18.2288 8.0642 18.2288 7.82532C18.2288 6.09693 18.9846 4.24721 20.3269 2.73481C20.997 1.96906 21.8493 1.33234 22.8828 0.824423C23.9141 0.324083 24.8896 0.0473835 25.8071 0C25.8339 0.240687 25.845 0.481389 25.845 0.720182V0.720205Z" fill="#0A2904"/>
<path d="M32.8231 28.0549C32.2762 29.3127 31.6288 30.4704 30.8788 31.5348C29.8564 32.9859 29.0193 33.9903 28.3742 34.5481C27.3741 35.4636 26.3027 35.9325 25.1553 35.9591C24.3316 35.9591 23.3382 35.7258 22.1819 35.2525C21.0218 34.7814 19.9556 34.5481 18.9808 34.5481C17.9584 34.5481 16.8619 34.7814 15.6891 35.2525C14.5145 35.7258 13.5682 35.9725 12.8448 35.9969C11.7445 36.0436 10.6478 35.5614 9.55305 34.5481C8.85435 33.9414 7.98042 32.9015 6.93348 31.4282C5.8102 29.8549 4.88671 28.0305 4.16324 25.9506C3.38841 23.704 3 21.5285 3 19.4223C3 17.0097 3.52369 14.9289 4.57263 13.1852C5.39701 11.7845 6.49372 10.6797 7.86635 9.86859C9.23897 9.05751 10.7221 8.64419 12.3193 8.61774C13.1932 8.61774 14.3393 8.88685 15.7634 9.41572C17.1836 9.94637 18.0955 10.2155 18.4953 10.2155C18.7942 10.2155 19.8072 9.90081 21.5245 9.2735C23.1485 8.69174 24.5191 8.45086 25.6419 8.54575C28.6845 8.79018 30.9703 9.98415 32.4905 12.1352C29.7694 13.7765 28.4233 16.0753 28.4501 19.0243C28.4747 21.3214 29.3118 23.2329 30.9569 24.7506C31.7025 25.455 32.5352 25.9994 33.4615 26.3861C33.2606 26.9661 33.0486 27.5216 32.8231 28.0549V28.0549ZM25.845 0.720205C25.845 2.52062 25.1843 4.20165 23.8673 5.75761C22.2779 7.60733 20.3554 8.67619 18.2707 8.50752C18.2442 8.29153 18.2288 8.0642 18.2288 7.82532C18.2288 6.09693 18.9846 4.24721 20.3269 2.73481C20.997 1.96906 21.8493 1.33234 22.8828 0.824423C23.9141 0.324083 24.8896 0.0473835 25.8071 0C25.8339 0.240687 25.845 0.481389 25.845 0.720182V0.720205Z" fill="black"/>
</svg>
