<svg width="40" height="40" viewBox="0 0 40 40" fill="none" xmlns="http://www.w3.org/2000/svg">
<path d="M5 9.14286C5 7.95759 5.95759 7 7.14286 7H32.8571C34.0424 7 35 7.95759 35 9.14286C35 10.3281 34.0424 11.2857 32.8571 11.2857H7.14286C5.95759 11.2857 5 10.3281 5 9.14286ZM5 19.8571C5 18.6719 5.95759 17.7143 7.14286 17.7143H32.8571C34.0424 17.7143 35 18.6719 35 19.8571C35 21.0424 34.0424 22 32.8571 22H7.14286C5.95759 22 5 21.0424 5 19.8571ZM35 30.5714C35 31.7567 34.0424 32.7143 32.8571 32.7143H7.14286C5.95759 32.7143 5 31.7567 5 30.5714C5 29.3862 5.95759 28.4286 7.14286 28.4286H32.8571C34.0424 28.4286 35 29.3862 35 30.5714Z" fill="black"/>
</svg>
