<svg width="40" height="40" viewBox="0 0 40 40" fill="none" xmlns="http://www.w3.org/2000/svg">
<g clip-path="url(#clip0_5_4)">
<path fill-rule="evenodd" clip-rule="evenodd" d="M25.208 2.42365C26.1436 1.72193 27.4709 1.91154 28.1727 2.84718L33.8903 10.4707H33.8971C37.7906 10.4707 40.7682 13.9413 40.1761 17.7897L37.8956 32.6131C37.4187 35.7123 34.7522 38 31.6164 38H8.63482C5.49921 38 2.83257 35.7123 2.35579 32.6131L0.0752369 17.7897C-0.516813 13.9413 2.46067 10.4707 6.35429 10.4707H6.36098L12.0786 2.84718C12.7803 1.91154 14.1077 1.72193 15.0433 2.42365C15.9789 3.12538 16.1686 4.45271 15.4668 5.38835L11.6551 10.4707H28.5962L24.7844 5.38835C24.0827 4.45271 24.2724 3.12538 25.208 2.42365ZM7.39513 14.706C7.41051 14.7061 7.42588 14.7061 7.44123 14.706H32.8101H32.8563H33.8971C35.195 14.706 36.1873 15.8628 35.9899 17.1457L33.7095 31.9692C33.5506 33.0022 32.6616 33.7647 31.6164 33.7647H8.63482C7.58962 33.7647 6.70074 33.0022 6.54181 31.9692L4.26128 17.1457C4.06392 15.8628 5.05641 14.706 6.35429 14.706H7.39513Z" fill="#A6A6A6"/>
</g>
<defs>
<clipPath id="clip0_5_4">
<rect width="40" height="40" fill="white"/>
</clipPath>
</defs>
</svg>
