<svg width="30" height="30" viewBox="0 0 30 30" fill="none" xmlns="http://www.w3.org/2000/svg">
<path d="M17.0625 4.875C17.0625 3.83789 16.2246 3 15.1875 3C14.1504 3 13.3125 3.83789 13.3125 4.875V13.3125H4.875C3.83789 13.3125 3 14.1504 3 15.1875C3 16.2246 3.83789 17.0625 4.875 17.0625H13.3125V25.5C13.3125 26.5371 14.1504 27.375 15.1875 27.375C16.2246 27.375 17.0625 26.5371 17.0625 25.5V17.0625H25.5C26.5371 17.0625 27.375 16.2246 27.375 15.1875C27.375 14.1504 26.5371 13.3125 25.5 13.3125H17.0625V4.875Z" fill="black"/>
</svg>
