<svg width="280" height="74" viewBox="0 0 280 74" fill="none" xmlns="http://www.w3.org/2000/svg">
<path d="M41.6342 35.0407C41.6645 32.5754 42.2883 30.1583 43.4476 28.0141C44.6069 25.8699 46.264 24.0684 48.2647 22.7772C46.9937 20.8716 45.3169 19.3034 43.3676 18.1972C41.4182 17.0909 39.25 16.477 37.0351 16.4043C32.3103 15.8837 27.7298 19.3721 25.3222 19.3721C22.8679 19.3721 19.161 16.456 15.1692 16.5422C12.5872 16.6297 10.0708 17.4179 7.86528 18.8299C5.65973 20.2419 3.84022 22.2295 2.58402 24.5992C-2.85755 34.4891 1.20137 49.0239 6.41394 57.0181C9.0219 60.9327 12.0699 65.3053 16.058 65.1502C19.9607 64.9803 21.4183 62.5378 26.1292 62.5378C30.7963 62.5378 32.1638 65.1502 36.2329 65.0517C40.4207 64.9803 43.0592 61.1197 45.5756 57.1681C47.4494 54.3788 48.8913 51.2961 49.8479 48.0341C47.4149 46.9538 45.3387 45.1457 43.8781 42.8351C42.4175 40.5245 41.6371 37.8137 41.6342 35.0407Z" fill="white"/>
<path d="M33.9484 11.1467C36.2318 8.26929 37.3567 4.57086 37.0843 0.836828C33.5958 1.22145 30.3735 2.97163 28.0593 5.73865C26.9278 7.09041 26.0613 8.66301 25.5091 10.3666C24.9569 12.0701 24.73 13.8712 24.8413 15.6668C26.5862 15.6857 28.3124 15.2887 29.8899 14.5057C31.4674 13.7228 32.8551 12.5743 33.9484 11.1467Z" fill="white"/>
<path d="M90.9644 55.2401H77.6463L74.448 65.1537H68.807L81.4216 28.4759H87.2824L99.8971 65.1537H94.1599L90.9644 55.2401ZM79.0256 50.6655H89.5824L84.3783 34.5764H84.2326L79.0256 50.6655Z" fill="white"/>
<path d="M127.14 51.7846C127.14 60.0945 122.904 65.4334 116.51 65.4334C114.89 65.5224 113.279 65.1307 111.862 64.3033C110.444 63.4759 109.277 62.2462 108.495 60.755H108.374V74H103.145V38.4126H108.206V42.8603H108.302C109.121 41.3763 110.308 40.1529 111.736 39.3205C113.164 38.488 114.781 38.0776 116.413 38.1329C122.879 38.1329 127.14 43.4978 127.14 51.7846ZM121.766 51.7846C121.766 46.3707 119.101 42.8113 115.034 42.8113C111.039 42.8113 108.352 46.4456 108.352 51.7846C108.352 57.1726 111.039 60.781 115.034 60.781C119.101 60.781 121.766 57.2476 121.766 51.7846Z" fill="white"/>
<path d="M155.178 51.7846C155.178 60.0945 150.941 65.4334 144.547 65.4334C142.927 65.5224 141.317 65.1307 139.899 64.3033C138.482 63.4759 137.315 62.2462 136.532 60.755H136.411V74H131.182V38.4127H136.243V42.8604H136.34C137.158 41.3763 138.345 40.1529 139.773 39.3205C141.201 38.488 142.818 38.0776 144.451 38.1329C150.916 38.1329 155.178 43.4978 155.178 51.7846ZM149.803 51.7846C149.803 46.3707 147.138 42.8113 143.072 42.8113C139.076 42.8113 136.389 46.4456 136.389 51.7846C136.389 57.1726 139.076 60.781 143.072 60.781C147.138 60.781 149.803 57.2476 149.803 51.7846Z" fill="white"/>
<path d="M173.708 54.9343C174.096 58.5715 177.462 60.9597 182.061 60.9597C186.469 60.9597 189.639 58.5714 189.639 55.2919C189.639 52.445 187.727 50.7404 183.199 49.5722L178.671 48.4271C172.255 46.8003 169.276 43.6505 169.276 38.5394C169.276 32.2111 174.53 27.8643 181.99 27.8643C189.373 27.8643 194.434 32.2111 194.605 38.5394H189.326C189.01 34.8791 186.128 32.6697 181.916 32.6697C177.703 32.6697 174.821 34.9051 174.821 38.1587C174.821 40.7517 176.662 42.2776 181.165 43.4456L185.015 44.4379C192.184 46.2175 195.162 49.2404 195.162 54.6053C195.162 61.4672 189.955 65.7649 181.674 65.7649C173.925 65.7649 168.694 61.5681 168.356 54.9341L173.708 54.9343Z" fill="white"/>
<path d="M206.447 32.0843V38.4126H211.291V42.7594H206.447V57.5014C206.447 59.7916 207.417 60.8588 209.546 60.8588C210.122 60.8483 210.696 60.8059 211.266 60.7318V65.0526C210.309 65.2404 209.336 65.3254 208.362 65.3064C203.205 65.3064 201.193 63.2729 201.193 58.0868V42.7594H197.49V38.4126H201.193V32.0843H206.447Z" fill="white"/>
<path d="M214.097 51.7846C214.097 43.3709 218.817 38.0839 226.178 38.0839C233.564 38.0839 238.263 43.3708 238.263 51.7846C238.263 60.2214 233.589 65.4854 226.178 65.4854C218.77 65.4854 214.097 60.2214 214.097 51.7846ZM232.935 51.7846C232.935 46.013 230.415 42.6065 226.178 42.6065C221.941 42.6065 219.424 46.039 219.424 51.7846C219.424 57.5793 221.941 60.9598 226.178 60.9598C230.415 60.9598 232.935 57.5793 232.935 51.7846Z" fill="white"/>
<path d="M242.574 38.4126H247.561V42.9641H247.682C248.019 41.5426 248.812 40.2864 249.928 39.4065C251.044 38.5267 252.415 38.0769 253.809 38.1328C254.412 38.1306 255.013 38.1993 255.601 38.3376V43.4718C254.84 43.2278 254.046 43.1157 253.251 43.1401C252.492 43.1078 251.734 43.2484 251.031 43.5522C250.328 43.8561 249.696 44.3161 249.179 44.9006C248.661 45.4851 248.27 46.1802 248.033 46.9383C247.795 47.6964 247.716 48.4995 247.803 49.2925V65.1536H242.574L242.574 38.4126Z" fill="white"/>
<path d="M279.709 57.2995C279.005 62.1539 274.502 65.4853 268.74 65.4853C261.329 65.4853 256.73 60.2733 256.73 51.9115C256.73 43.5238 261.354 38.0838 268.52 38.0838C275.568 38.0838 280 43.1661 280 51.274V53.1547H262.008V53.4864C261.925 54.4705 262.042 55.4619 262.352 56.3948C262.662 57.3276 263.158 58.1806 263.806 58.897C264.454 59.6134 265.24 60.1768 266.112 60.5499C266.983 60.9229 267.92 61.0971 268.861 61.0607C270.096 61.1822 271.336 60.8818 272.396 60.2042C273.456 59.5265 274.28 58.5077 274.744 57.2995L279.709 57.2995ZM262.033 49.3184H274.768C274.815 48.4336 274.688 47.548 274.393 46.7175C274.098 45.8869 273.644 45.1292 273.057 44.4919C272.47 43.8546 271.764 43.3515 270.984 43.0142C270.203 42.6768 269.364 42.5125 268.52 42.5315C267.669 42.5262 266.825 42.6979 266.037 43.0368C265.249 43.3757 264.532 43.8751 263.929 44.5061C263.326 45.1371 262.848 45.8872 262.523 46.7132C262.197 47.5391 262.031 48.4246 262.033 49.3184Z" fill="white"/>
<path d="M78.3703 0.868356C79.4665 0.785775 80.5666 0.959624 81.591 1.37736C82.6155 1.7951 83.5389 2.44631 84.2946 3.28402C85.0503 4.12173 85.6195 5.12507 85.9611 6.22165C86.3027 7.31824 86.4081 8.48073 86.2699 9.6253C86.2699 15.2556 83.3711 18.492 78.3703 18.492H72.3062V0.868356H78.3703ZM74.9137 15.9996H78.079C78.8624 16.0488 79.6463 15.914 80.3737 15.605C81.1012 15.296 81.7538 14.8206 82.2842 14.2134C82.8145 13.6063 83.2092 12.8826 83.4395 12.0952C83.6699 11.3077 83.73 10.4762 83.6156 9.66121C83.7217 8.84947 83.6555 8.02313 83.4216 7.24142C83.1877 6.45971 82.7921 5.74198 82.2629 5.13965C81.7338 4.53732 81.0843 4.06532 80.3609 3.75744C79.6376 3.44957 78.8584 3.31346 78.079 3.35886H74.9137V15.9996Z" fill="white"/>
<path d="M89.2154 11.8361C89.1358 10.962 89.231 10.0802 89.4951 9.24707C89.7591 8.41395 90.1861 7.64796 90.7486 6.99822C91.3112 6.34848 91.9969 5.82934 92.7618 5.4741C93.5267 5.11885 94.3539 4.93535 95.1903 4.93535C96.0267 4.93535 96.8539 5.11885 97.6188 5.4741C98.3836 5.82934 99.0694 6.34848 99.6319 6.99822C100.194 7.64796 100.621 8.41395 100.886 9.24707C101.15 10.0802 101.245 10.962 101.165 11.8361C101.246 12.711 101.152 13.5941 100.889 14.4285C100.626 15.263 100.199 16.0304 99.6361 16.6814C99.0734 17.3324 98.3871 17.8526 97.6215 18.2087C96.8558 18.5647 96.0277 18.7486 95.1903 18.7486C94.3529 18.7486 93.5247 18.5647 92.7591 18.2087C91.9934 17.8526 91.3072 17.3324 90.7445 16.6814C90.1818 16.0304 89.7551 15.263 89.4917 14.4285C89.2284 13.5941 89.1343 12.711 89.2154 11.8361ZM98.5933 11.8361C98.5933 8.95315 97.3596 7.26724 95.1944 7.26724C93.021 7.26724 91.7983 8.95315 91.7983 11.8361C91.7983 14.7421 93.0211 16.415 95.1944 16.415C97.3596 16.415 98.5933 14.7305 98.5933 11.8361Z" fill="white"/>
<path d="M117.05 18.4917H114.456L111.837 8.69639H111.639L109.032 18.4917H106.463L102.97 5.19189H105.507L107.776 15.3404H107.963L110.568 5.19189H112.967L115.571 15.3404H115.769L118.028 5.19189H120.528L117.05 18.4917Z" fill="white"/>
<path d="M123.465 5.19189H125.872V7.30469H126.059C126.376 6.54585 126.911 5.90972 127.589 5.48498C128.266 5.06023 129.053 4.86803 129.84 4.93516C130.457 4.88651 131.076 4.98408 131.651 5.22065C132.227 5.45722 132.744 5.82673 133.166 6.3018C133.587 6.77687 133.901 7.34532 134.084 7.96504C134.268 8.58477 134.316 9.23988 134.225 9.88185V18.4916H131.725V10.541C131.725 8.40366 130.84 7.34075 128.991 7.34075C128.572 7.32029 128.155 7.39507 127.766 7.55997C127.378 7.72487 127.028 7.97599 126.741 8.29611C126.453 8.61624 126.235 8.9978 126.101 9.41464C125.968 9.83148 125.921 10.2738 125.966 10.7111V18.4917H123.465L123.465 5.19189Z" fill="white"/>
<path d="M138.21 0H140.71V18.4917H138.21V0Z" fill="white"/>
<path d="M144.186 11.8361C144.106 10.962 144.201 10.0801 144.466 9.24694C144.73 8.41378 145.157 7.64777 145.719 6.99801C146.282 6.34826 146.968 5.82911 147.733 5.47386C148.498 5.11861 149.325 4.9351 150.161 4.9351C150.998 4.9351 151.825 5.11861 152.59 5.47386C153.355 5.82911 154.041 6.34826 154.603 6.99801C155.166 7.64777 155.593 8.41378 155.857 9.24694C156.121 10.0801 156.216 10.962 156.137 11.8361C156.218 12.711 156.124 13.5941 155.86 14.4286C155.597 15.263 155.17 16.0304 154.607 16.6814C154.045 17.3324 153.358 17.8526 152.593 18.2086C151.827 18.5646 150.999 18.7485 150.161 18.7485C149.324 18.7485 148.496 18.5646 147.73 18.2086C146.964 17.8526 146.278 17.3324 145.715 16.6814C145.153 16.0304 144.726 15.263 144.462 14.4286C144.199 13.5941 144.105 12.711 144.186 11.8361ZM153.564 11.8361C153.564 8.95315 152.33 7.26724 150.165 7.26724C147.991 7.26724 146.769 8.95315 146.769 11.8361C146.769 14.7421 147.991 16.415 150.165 16.415C152.33 16.415 153.564 14.7305 153.564 11.8361Z" fill="white"/>
<path d="M158.769 14.7305C158.769 12.3365 160.467 10.9563 163.481 10.7602L166.913 10.5525V9.40455C166.913 7.99985 166.029 7.20666 164.319 7.20666C162.924 7.20666 161.956 7.7446 161.679 8.6849H159.258C159.514 6.40047 161.561 4.93522 164.435 4.93522C167.611 4.93522 169.403 6.59515 169.403 9.40455V18.4918H166.996V16.6227H166.798C166.396 17.2931 165.832 17.8397 165.164 18.2066C164.495 18.5734 163.746 18.7475 162.992 18.7109C162.46 18.769 161.923 18.7094 161.414 18.536C160.906 18.3627 160.437 18.0793 160.039 17.7043C159.642 17.3293 159.323 16.8709 159.104 16.3587C158.885 15.8465 158.771 15.2919 158.769 14.7305ZM166.913 13.5941V12.4822L163.819 12.6898C162.075 12.8124 161.283 13.4354 161.283 14.6079C161.283 15.8049 162.272 16.5015 163.633 16.5015C164.031 16.5439 164.434 16.5016 164.816 16.3773C165.199 16.253 165.554 16.0491 165.86 15.7779C166.166 15.5066 166.417 15.1735 166.598 14.7983C166.779 14.4232 166.886 14.0136 166.913 13.5941Z" fill="white"/>
<path d="M172.689 11.8361C172.689 7.63354 174.747 4.97126 177.948 4.97126C178.74 4.93296 179.526 5.13204 180.214 5.54523C180.902 5.95842 181.463 6.56866 181.833 7.3046H182.02V0H184.52V18.4917H182.124V16.3904H181.927C181.528 17.1214 180.947 17.724 180.246 18.1331C179.544 18.5421 178.75 18.7419 177.948 18.7109C174.725 18.711 172.689 16.0487 172.689 11.8361ZM175.272 11.8361C175.272 14.657 176.539 16.3544 178.657 16.3544C180.764 16.3544 182.067 14.6325 182.067 11.8476C182.067 9.07572 180.751 7.32923 178.657 7.32923C176.552 7.32923 175.272 9.03821 175.272 11.8361Z" fill="white"/>
<path d="M194.866 11.8361C194.786 10.962 194.881 10.0802 195.145 9.24707C195.409 8.41395 195.836 7.64796 196.399 6.99822C196.961 6.34848 197.647 5.82934 198.412 5.4741C199.177 5.11885 200.004 4.93535 200.84 4.93535C201.677 4.93535 202.504 5.11885 203.269 5.4741C204.034 5.82934 204.719 6.34848 205.282 6.99822C205.845 7.64796 206.272 8.41395 206.536 9.24707C206.8 10.0802 206.895 10.962 206.815 11.8361C206.896 12.711 206.802 13.5941 206.539 14.4285C206.276 15.263 205.849 16.0304 205.286 16.6814C204.723 17.3324 204.037 17.8526 203.272 18.2087C202.506 18.5647 201.678 18.7486 200.84 18.7486C200.003 18.7486 199.175 18.5647 198.409 18.2087C197.643 17.8526 196.957 17.3324 196.395 16.6814C195.832 16.0304 195.405 15.263 195.142 14.4285C194.878 13.5941 194.784 12.711 194.866 11.8361ZM204.243 11.8361C204.243 8.95315 203.01 7.26724 200.844 7.26724C198.671 7.26724 197.448 8.95315 197.448 11.8361C197.448 14.7421 198.671 16.415 200.844 16.415C203.01 16.415 204.243 14.7305 204.243 11.8361Z" fill="white"/>
<path d="M210.17 5.19189H212.577V7.30469H212.764C213.081 6.54585 213.616 5.90972 214.293 5.48498C214.971 5.06023 215.758 4.86803 216.545 4.93516C217.161 4.88651 217.78 4.98408 218.356 5.22065C218.932 5.45722 219.449 5.82673 219.87 6.3018C220.291 6.77687 220.605 7.34532 220.789 7.96504C220.972 8.58477 221.021 9.23988 220.93 9.88185V18.4916H218.43V10.541C218.43 8.40366 217.545 7.34075 215.696 7.34075C215.277 7.32029 214.859 7.39507 214.471 7.55997C214.083 7.72487 213.733 7.97599 213.445 8.29611C213.158 8.61624 212.94 8.9978 212.806 9.41464C212.672 9.83148 212.626 10.2738 212.671 10.7111V18.4917H210.17V5.19189Z" fill="white"/>
<path d="M235.059 1.88064V5.25247H237.804V7.46335H235.059V14.3022C235.059 15.6954 235.606 16.3054 236.85 16.3054C237.169 16.3043 237.487 16.2841 237.804 16.2448V18.4312C237.355 18.5155 236.9 18.5603 236.444 18.5653C233.663 18.5653 232.556 17.5384 232.556 14.9742V7.46324H230.544V5.25235H232.556V1.88064H235.059Z" fill="white"/>
<path d="M241.219 0H243.697V7.3292H243.895C244.228 6.56327 244.777 5.92355 245.468 5.49721C246.16 5.07086 246.959 4.87863 247.758 4.94671C248.372 4.91168 248.985 5.01916 249.554 5.26148C250.123 5.5038 250.634 5.87498 251.051 6.34856C251.468 6.82213 251.78 7.38642 251.965 8.00117C252.15 8.61591 252.204 9.26596 252.122 9.90494V18.4917H249.619V10.5525C249.619 8.42812 248.676 7.35224 246.91 7.35224C246.48 7.31524 246.048 7.37726 245.643 7.53396C245.239 7.69066 244.872 7.93825 244.568 8.25942C244.264 8.58058 244.03 8.96757 243.884 9.39329C243.737 9.81902 243.681 10.2732 243.72 10.7241V18.4917H241.219L241.219 0Z" fill="white"/>
<path d="M266.701 14.9007C266.361 16.1162 265.625 17.1676 264.622 17.871C263.618 18.5744 262.411 18.885 261.211 18.7484C260.377 18.7716 259.547 18.6037 258.78 18.2566C258.014 17.9095 257.328 17.3913 256.771 16.7382C256.214 16.085 255.8 15.3125 255.556 14.4742C255.312 13.6359 255.245 12.7519 255.359 11.8836C255.248 11.0127 255.316 10.1268 255.559 9.28599C255.803 8.44518 256.215 7.66907 256.769 7.0102C257.323 6.35134 258.005 5.82509 258.77 5.46709C259.534 5.10909 260.363 4.9277 261.2 4.93519C264.726 4.93519 266.852 7.46347 266.852 11.6399V12.5557H257.906V12.7028C257.867 13.1909 257.925 13.6822 258.077 14.1451C258.23 14.6081 258.472 15.0326 258.79 15.3913C259.108 15.75 259.493 16.0351 259.922 16.2283C260.351 16.4214 260.813 16.5184 261.28 16.513C261.878 16.5883 262.484 16.4753 263.021 16.1882C263.557 15.9011 264.001 15.4529 264.294 14.9006L266.701 14.9007ZM257.906 10.6145H264.305C264.337 10.1681 264.279 9.71979 264.135 9.29826C263.992 8.87673 263.766 8.49134 263.473 8.16687C263.179 7.84239 262.824 7.58601 262.43 7.41418C262.036 7.24235 261.613 7.15889 261.186 7.16915C260.754 7.16344 260.325 7.24868 259.924 7.41982C259.524 7.59097 259.16 7.84456 258.854 8.16566C258.548 8.48675 258.307 8.86885 258.144 9.28943C257.981 9.71001 257.9 10.1606 257.906 10.6145Z" fill="white"/>
</svg>
