<svg width="330" height="114" viewBox="0 0 330 114" fill="none" xmlns="http://www.w3.org/2000/svg">
<rect x="2" y="2" width="326" height="110" rx="18" fill="black"/>
<path d="M66.6342 55.0407C66.6645 52.5754 67.2883 50.1583 68.4476 48.0141C69.6069 45.8699 71.264 44.0684 73.2647 42.7772C71.9937 40.8716 70.3169 39.3034 68.3676 38.1972C66.4182 37.0909 64.25 36.477 62.0351 36.4043C57.3103 35.8837 52.7298 39.3721 50.3222 39.3721C47.8679 39.3721 44.161 36.4559 40.1692 36.5422C37.5872 36.6297 35.0708 37.4179 32.8653 38.8299C30.6597 40.2419 28.8402 42.2295 27.584 44.5992C22.1425 54.4891 26.2014 69.0239 31.4139 77.0181C34.0219 80.9327 37.0699 85.3053 41.058 85.1502C44.9607 84.9803 46.4183 82.5378 51.1292 82.5378C55.7963 82.5378 57.1638 85.1502 61.2329 85.0517C65.4207 84.9803 68.0592 81.1197 70.5756 77.1681C72.4494 74.3788 73.8913 71.2961 74.8479 68.0341C72.4149 66.9538 70.3387 65.1457 68.8781 62.8351C67.4175 60.5245 66.6371 57.8137 66.6342 55.0407Z" fill="white"/>
<path d="M58.9484 31.1467C61.2318 28.2693 62.3567 24.5709 62.0843 20.8368C58.5958 21.2214 55.3735 22.9716 53.0593 25.7386C51.9278 27.0904 51.0613 28.663 50.5091 30.3666C49.9569 32.0701 49.73 33.8712 49.8413 35.6668C51.5862 35.6857 53.3124 35.2887 54.8899 34.5057C56.4674 33.7228 57.8551 32.5743 58.9484 31.1467Z" fill="white"/>
<path d="M115.964 75.2401H102.646L99.448 85.1537H93.807L106.422 48.4759H112.282L124.897 85.1537H119.16L115.964 75.2401ZM104.026 70.6655H114.582L109.378 54.5764H109.233L104.026 70.6655Z" fill="white"/>
<path d="M152.14 71.7846C152.14 80.0945 147.904 85.4334 141.51 85.4334C139.89 85.5224 138.279 85.1307 136.862 84.3033C135.444 83.4759 134.277 82.2462 133.495 80.755H133.374V94H128.145V58.4126H133.206V62.8603H133.302C134.121 61.3763 135.308 60.1529 136.736 59.3205C138.164 58.488 139.781 58.0776 141.413 58.1329C147.879 58.1329 152.14 63.4978 152.14 71.7846ZM146.766 71.7846C146.766 66.3707 144.101 62.8113 140.034 62.8113C136.039 62.8113 133.352 66.4456 133.352 71.7846C133.352 77.1726 136.039 80.781 140.034 80.781C144.101 80.781 146.766 77.2476 146.766 71.7846Z" fill="white"/>
<path d="M180.178 71.7846C180.178 80.0945 175.941 85.4334 169.547 85.4334C167.927 85.5224 166.317 85.1307 164.899 84.3033C163.482 83.4759 162.315 82.2462 161.532 80.755H161.411V94H156.182V58.4127H161.243V62.8604H161.34C162.158 61.3763 163.345 60.1529 164.773 59.3205C166.201 58.488 167.818 58.0776 169.451 58.1329C175.916 58.1329 180.178 63.4978 180.178 71.7846ZM174.803 71.7846C174.803 66.3707 172.138 62.8113 168.072 62.8113C164.076 62.8113 161.389 66.4456 161.389 71.7846C161.389 77.1726 164.076 80.781 168.072 80.781C172.138 80.781 174.803 77.2476 174.803 71.7846Z" fill="white"/>
<path d="M198.708 74.9343C199.096 78.5715 202.462 80.9597 207.061 80.9597C211.469 80.9597 214.639 78.5714 214.639 75.2919C214.639 72.445 212.727 70.7404 208.199 69.5722L203.671 68.4271C197.255 66.8003 194.276 63.6505 194.276 58.5394C194.276 52.2111 199.53 47.8643 206.99 47.8643C214.373 47.8643 219.434 52.2111 219.605 58.5394H214.326C214.01 54.8791 211.128 52.6697 206.916 52.6697C202.703 52.6697 199.821 54.9051 199.821 58.1587C199.821 60.7517 201.662 62.2776 206.165 63.4456L210.015 64.4379C217.184 66.2175 220.162 69.2404 220.162 74.6053C220.162 81.4672 214.955 85.7649 206.674 85.7649C198.925 85.7649 193.694 81.5681 193.356 74.9341L198.708 74.9343Z" fill="white"/>
<path d="M231.447 52.0843V58.4126H236.291V62.7594H231.447V77.5014C231.447 79.7916 232.417 80.8588 234.546 80.8588C235.122 80.8483 235.696 80.8059 236.266 80.7318V85.0526C235.309 85.2404 234.336 85.3254 233.362 85.3064C228.205 85.3064 226.193 83.2729 226.193 78.0868V62.7594H222.49V58.4126H226.193V52.0843H231.447Z" fill="white"/>
<path d="M239.097 71.7846C239.097 63.3709 243.817 58.0839 251.178 58.0839C258.564 58.0839 263.263 63.3708 263.263 71.7846C263.263 80.2214 258.589 85.4854 251.178 85.4854C243.77 85.4854 239.097 80.2214 239.097 71.7846ZM257.935 71.7846C257.935 66.013 255.415 62.6065 251.178 62.6065C246.941 62.6065 244.424 66.039 244.424 71.7846C244.424 77.5793 246.941 80.9598 251.178 80.9598C255.415 80.9598 257.935 77.5793 257.935 71.7846Z" fill="white"/>
<path d="M267.574 58.4126H272.561V62.9641H272.682C273.019 61.5426 273.812 60.2864 274.928 59.4065C276.044 58.5267 277.415 58.0769 278.809 58.1328C279.412 58.1306 280.013 58.1993 280.601 58.3376V63.4718C279.84 63.2278 279.046 63.1157 278.251 63.1401C277.492 63.1078 276.734 63.2484 276.031 63.5522C275.328 63.8561 274.696 64.3161 274.179 64.9006C273.661 65.4851 273.27 66.1802 273.033 66.9383C272.795 67.6964 272.716 68.4995 272.803 69.2925V85.1536H267.574L267.574 58.4126Z" fill="white"/>
<path d="M304.709 77.2995C304.005 82.1539 299.502 85.4853 293.74 85.4853C286.329 85.4853 281.73 80.2733 281.73 71.9115C281.73 63.5238 286.354 58.0838 293.52 58.0838C300.568 58.0838 305 63.1661 305 71.2741V73.1547H287.008V73.4864C286.925 74.4705 287.042 75.4619 287.352 76.3948C287.662 77.3276 288.158 78.1806 288.806 78.897C289.454 79.6134 290.24 80.1768 291.112 80.5499C291.983 80.9229 292.92 81.0971 293.861 81.0607C295.096 81.1822 296.336 80.8818 297.396 80.2042C298.456 79.5265 299.28 78.5077 299.744 77.2995L304.709 77.2995ZM287.033 69.3184H299.768C299.815 68.4336 299.688 67.548 299.393 66.7175C299.098 65.8869 298.644 65.1292 298.057 64.4919C297.47 63.8546 296.764 63.3515 295.984 63.0141C295.203 62.6768 294.364 62.5125 293.52 62.5315C292.669 62.5262 291.825 62.6979 291.037 63.0368C290.249 63.3757 289.532 63.8751 288.929 64.5061C288.326 65.1371 287.848 65.8872 287.523 66.7132C287.197 67.5391 287.031 68.4246 287.033 69.3184Z" fill="white"/>
<path d="M103.37 20.8684C104.467 20.7858 105.567 20.9596 106.591 21.3774C107.616 21.7951 108.539 22.4463 109.295 23.284C110.05 24.1217 110.619 25.1251 110.961 26.2217C111.303 27.3182 111.408 28.4807 111.27 29.6253C111.27 35.2556 108.371 38.492 103.37 38.492H97.3062V20.8684H103.37ZM99.9137 35.9996H103.079C103.862 36.0488 104.646 35.914 105.374 35.605C106.101 35.296 106.754 34.8206 107.284 34.2134C107.815 33.6063 108.209 32.8826 108.44 32.0952C108.67 31.3077 108.73 30.4762 108.616 29.6612C108.722 28.8495 108.655 28.0231 108.422 27.2414C108.188 26.4597 107.792 25.742 107.263 25.1397C106.734 24.5373 106.084 24.0653 105.361 23.7574C104.638 23.4496 103.858 23.3135 103.079 23.3589H99.9137V35.9996Z" fill="white"/>
<path d="M114.215 31.8361C114.136 30.962 114.231 30.0802 114.495 29.2471C114.759 28.414 115.186 27.648 115.749 26.9982C116.311 26.3485 116.997 25.8293 117.762 25.4741C118.527 25.1189 119.354 24.9353 120.19 24.9353C121.027 24.9353 121.854 25.1189 122.619 25.4741C123.384 25.8293 124.069 26.3485 124.632 26.9982C125.194 27.648 125.621 28.414 125.886 29.2471C126.15 30.0802 126.245 30.962 126.165 31.8361C126.246 32.711 126.152 33.5941 125.889 34.4285C125.626 35.263 125.199 36.0304 124.636 36.6814C124.073 37.3324 123.387 37.8526 122.621 38.2087C121.856 38.5647 121.028 38.7486 120.19 38.7486C119.353 38.7486 118.525 38.5647 117.759 38.2087C116.993 37.8526 116.307 37.3324 115.744 36.6814C115.182 36.0304 114.755 35.263 114.492 34.4285C114.228 33.5941 114.134 32.711 114.215 31.8361ZM123.593 31.8361C123.593 28.9531 122.36 27.2672 120.194 27.2672C118.021 27.2672 116.798 28.9531 116.798 31.8361C116.798 34.7421 118.021 36.415 120.194 36.415C122.36 36.415 123.593 34.7305 123.593 31.8361Z" fill="white"/>
<path d="M142.05 38.4917H139.456L136.837 28.6964H136.639L134.032 38.4917H131.463L127.97 25.1919H130.507L132.776 35.3404H132.963L135.568 25.1919H137.967L140.571 35.3404H140.769L143.028 25.1919H145.528L142.05 38.4917Z" fill="white"/>
<path d="M148.465 25.1919H150.872V27.3047H151.059C151.376 26.5458 151.911 25.9097 152.589 25.485C153.266 25.0602 154.053 24.868 154.84 24.9352C155.457 24.8865 156.076 24.9841 156.651 25.2207C157.227 25.4572 157.744 25.8267 158.166 26.3018C158.587 26.7769 158.901 27.3453 159.084 27.965C159.268 28.5848 159.316 29.2399 159.225 29.8818V38.4916H156.725V30.541C156.725 28.4037 155.84 27.3408 153.991 27.3408C153.572 27.3203 153.155 27.3951 152.766 27.56C152.378 27.7249 152.028 27.976 151.741 28.2961C151.453 28.6162 151.235 28.9978 151.101 29.4146C150.968 29.8315 150.921 30.2738 150.966 30.7111V38.4917H148.465L148.465 25.1919Z" fill="white"/>
<path d="M163.21 20H165.71V38.4917H163.21V20Z" fill="white"/>
<path d="M169.186 31.8361C169.106 30.962 169.201 30.0801 169.466 29.2469C169.73 28.4138 170.157 27.6478 170.719 26.998C171.282 26.3483 171.968 25.8291 172.733 25.4739C173.498 25.1186 174.325 24.9351 175.161 24.9351C175.998 24.9351 176.825 25.1186 177.59 25.4739C178.355 25.8291 179.041 26.3483 179.603 26.998C180.166 27.6478 180.593 28.4138 180.857 29.2469C181.121 30.0801 181.216 30.962 181.137 31.8361C181.218 32.711 181.124 33.5941 180.86 34.4286C180.597 35.263 180.17 36.0304 179.607 36.6814C179.044 37.3324 178.358 37.8526 177.593 38.2086C176.827 38.5646 175.999 38.7485 175.161 38.7485C174.324 38.7485 173.496 38.5646 172.73 38.2086C171.964 37.8526 171.278 37.3324 170.715 36.6814C170.152 36.0304 169.726 35.263 169.462 34.4286C169.199 33.5941 169.105 32.711 169.186 31.8361ZM178.564 31.8361C178.564 28.9531 177.33 27.2672 175.165 27.2672C172.991 27.2672 171.769 28.9531 171.769 31.8361C171.769 34.7421 172.991 36.415 175.165 36.415C177.33 36.415 178.564 34.7305 178.564 31.8361Z" fill="white"/>
<path d="M183.769 34.7305C183.769 32.3365 185.467 30.9563 188.481 30.7602L191.913 30.5525V29.4045C191.913 27.9998 191.029 27.2067 189.319 27.2067C187.924 27.2067 186.956 27.7446 186.679 28.6849H184.258C184.514 26.4005 186.561 24.9352 189.435 24.9352C192.611 24.9352 194.403 26.5951 194.403 29.4045V38.4918H191.996V36.6227H191.798C191.396 37.2931 190.832 37.8397 190.164 38.2066C189.495 38.5734 188.746 38.7475 187.992 38.7109C187.46 38.769 186.923 38.7094 186.414 38.536C185.906 38.3627 185.437 38.0793 185.039 37.7043C184.642 37.3293 184.323 36.8709 184.104 36.3587C183.885 35.8465 183.771 35.2919 183.769 34.7305ZM191.913 33.5941V32.4822L188.819 32.6898C187.075 32.8124 186.283 33.4354 186.283 34.6079C186.283 35.8049 187.272 36.5015 188.633 36.5015C189.031 36.5439 189.434 36.5016 189.816 36.3773C190.199 36.253 190.554 36.0491 190.86 35.7779C191.166 35.5066 191.417 35.1735 191.598 34.7983C191.779 34.4232 191.886 34.0136 191.913 33.5941Z" fill="white"/>
<path d="M197.689 31.8361C197.689 27.6335 199.747 24.9713 202.948 24.9713C203.74 24.933 204.526 25.132 205.214 25.5452C205.902 25.9584 206.463 26.5687 206.833 27.3046H207.02V20H209.52V38.4917H207.124V36.3904H206.927C206.528 37.1214 205.947 37.724 205.246 38.1331C204.544 38.5421 203.75 38.7419 202.948 38.7109C199.725 38.711 197.689 36.0487 197.689 31.8361ZM200.272 31.8361C200.272 34.657 201.539 36.3544 203.657 36.3544C205.764 36.3544 207.067 34.6325 207.067 31.8476C207.067 29.0757 205.751 27.3292 203.657 27.3292C201.552 27.3292 200.272 29.0382 200.272 31.8361Z" fill="white"/>
<path d="M219.866 31.8361C219.786 30.962 219.881 30.0802 220.145 29.2471C220.409 28.414 220.836 27.648 221.399 26.9982C221.961 26.3485 222.647 25.8293 223.412 25.4741C224.177 25.1189 225.004 24.9353 225.84 24.9353C226.677 24.9353 227.504 25.1189 228.269 25.4741C229.034 25.8293 229.719 26.3485 230.282 26.9982C230.845 27.648 231.272 28.414 231.536 29.2471C231.8 30.0802 231.895 30.962 231.815 31.8361C231.896 32.711 231.802 33.5941 231.539 34.4285C231.276 35.263 230.849 36.0304 230.286 36.6814C229.723 37.3324 229.037 37.8526 228.272 38.2087C227.506 38.5647 226.678 38.7486 225.84 38.7486C225.003 38.7486 224.175 38.5647 223.409 38.2087C222.643 37.8526 221.957 37.3324 221.395 36.6814C220.832 36.0304 220.405 35.263 220.142 34.4285C219.878 33.5941 219.784 32.711 219.866 31.8361ZM229.243 31.8361C229.243 28.9531 228.01 27.2672 225.844 27.2672C223.671 27.2672 222.448 28.9531 222.448 31.8361C222.448 34.7421 223.671 36.415 225.844 36.415C228.01 36.415 229.243 34.7305 229.243 31.8361Z" fill="white"/>
<path d="M235.17 25.1919H237.577V27.3047H237.764C238.081 26.5458 238.616 25.9097 239.293 25.485C239.971 25.0602 240.758 24.868 241.545 24.9352C242.161 24.8865 242.78 24.9841 243.356 25.2207C243.932 25.4572 244.449 25.8267 244.87 26.3018C245.291 26.7769 245.605 27.3453 245.789 27.965C245.972 28.5848 246.021 29.2399 245.93 29.8818V38.4916H243.43V30.541C243.43 28.4037 242.545 27.3408 240.696 27.3408C240.277 27.3203 239.859 27.3951 239.471 27.56C239.083 27.7249 238.733 27.976 238.445 28.2961C238.158 28.6162 237.94 28.9978 237.806 29.4146C237.672 29.8315 237.626 30.2738 237.671 30.7111V38.4917H235.17V25.1919Z" fill="white"/>
<path d="M260.059 21.8806V25.2525H262.804V27.4634H260.059V34.3022C260.059 35.6954 260.606 36.3054 261.85 36.3054C262.169 36.3043 262.487 36.2841 262.804 36.2448V38.4312C262.355 38.5155 261.9 38.5603 261.444 38.5653C258.663 38.5653 257.556 37.5384 257.556 34.9742V27.4632H255.544V25.2524H257.556V21.8806H260.059Z" fill="white"/>
<path d="M266.219 20H268.697V27.3292H268.895C269.228 26.5633 269.777 25.9236 270.468 25.4972C271.16 25.0709 271.959 24.8786 272.758 24.9467C273.372 24.9117 273.985 25.0192 274.554 25.2615C275.123 25.5038 275.634 25.875 276.051 26.3486C276.468 26.8221 276.78 27.3864 276.965 28.0012C277.15 28.6159 277.204 29.266 277.122 29.9049V38.4917H274.619V30.5525C274.619 28.4281 273.676 27.3522 271.91 27.3522C271.48 27.3152 271.048 27.3773 270.643 27.534C270.239 27.6907 269.872 27.9383 269.568 28.2594C269.264 28.5806 269.03 28.9676 268.884 29.3933C268.737 29.819 268.681 30.2732 268.72 30.7241V38.4917H266.219L266.219 20Z" fill="white"/>
<path d="M291.701 34.9007C291.361 36.1162 290.625 37.1676 289.622 37.871C288.618 38.5744 287.411 38.885 286.211 38.7484C285.377 38.7716 284.547 38.6037 283.78 38.2566C283.014 37.9095 282.328 37.3913 281.771 36.7382C281.214 36.085 280.8 35.3125 280.556 34.4742C280.312 33.6359 280.245 32.7519 280.359 31.8836C280.248 31.0127 280.316 30.1268 280.559 29.286C280.803 28.4452 281.215 27.6691 281.769 27.0102C282.323 26.3513 283.005 25.8251 283.77 25.4671C284.534 25.1091 285.363 24.9277 286.2 24.9352C289.726 24.9352 291.852 27.4635 291.852 31.6399V32.5557H282.906V32.7028C282.867 33.1909 282.925 33.6822 283.077 34.1451C283.23 34.6081 283.472 35.0326 283.79 35.3913C284.108 35.75 284.493 36.0351 284.922 36.2283C285.351 36.4214 285.813 36.5184 286.28 36.513C286.878 36.5883 287.484 36.4753 288.021 36.1882C288.557 35.9011 289.001 35.4529 289.294 34.9006L291.701 34.9007ZM282.906 30.6145H289.305C289.337 30.1681 289.279 29.7198 289.135 29.2983C288.992 28.8767 288.766 28.4913 288.473 28.1669C288.179 27.8424 287.824 27.586 287.43 27.4142C287.036 27.2424 286.613 27.1589 286.186 27.1691C285.754 27.1634 285.325 27.2487 284.924 27.4198C284.524 27.591 284.16 27.8446 283.854 28.1657C283.548 28.4868 283.307 28.8688 283.144 29.2894C282.981 29.71 282.9 30.1606 282.906 30.6145Z" fill="white"/>
<rect x="2" y="2" width="326" height="110" rx="18" stroke="white" stroke-width="4"/>
</svg>
