<svg width="216" height="95" viewBox="0 0 216 95" fill="none" xmlns="http://www.w3.org/2000/svg">
<path fill-rule="evenodd" clip-rule="evenodd" d="M39.5638 12.2479C37.0392 15.4567 32.9999 17.9877 28.9606 17.6261C28.4556 13.2874 30.4332 8.67747 32.7474 5.83017C35.272 2.53093 39.69 0.180781 43.2665 0C43.6873 4.51951 42.0463 8.94864 39.5638 12.2479ZM43.2241 18.4846C39.6655 18.2646 36.4184 19.6341 33.7957 20.7403C32.1079 21.4522 30.6787 22.055 29.5913 22.055C28.3711 22.055 26.8828 21.4199 25.2119 20.7069C23.0223 19.7726 20.5191 18.7045 17.8941 18.7557C11.8771 18.8461 6.28099 22.5069 3.20941 28.3371C-3.10205 39.9974 1.56843 57.262 7.66951 66.7529C10.6569 71.4532 14.2334 76.6055 18.946 76.4247C21.0192 76.3406 22.5106 75.6609 24.054 74.9574C25.8309 74.1475 27.6768 73.3062 30.5591 73.3062C33.3414 73.3062 35.1066 74.1256 36.801 74.9122C38.4122 75.6601 39.9594 76.3783 42.2563 76.3343C47.1372 76.2439 50.2088 71.634 53.1962 66.9337C56.4201 61.889 57.8368 56.9656 58.0518 56.2185L58.077 56.1321C58.0719 56.1265 58.0321 56.107 57.9618 56.0724C56.8841 55.5425 48.6468 51.4919 48.5678 40.6302C48.4884 31.5133 55.1014 26.8941 56.1424 26.167C56.2057 26.1227 56.2484 26.0929 56.2678 26.0773C52.0601 19.3885 45.4962 18.6653 43.2241 18.4846ZM77.0118 75.8372V5.37805H101.626C114.334 5.37805 123.212 14.7786 123.212 28.5179C123.212 42.2573 114.165 51.7482 101.29 51.7482H87.1943V75.8372H77.0118ZM87.1933 14.5983H98.9326C107.769 14.5983 112.818 19.6602 112.818 28.5636C112.818 37.4671 107.769 42.5741 98.8905 42.5741H87.1933V14.5983ZM156.831 67.3855C154.138 72.8994 148.206 76.3794 141.81 76.3794C132.343 76.3794 125.737 70.3232 125.737 61.1938C125.737 52.1548 132.132 46.9574 143.956 46.1891L156.663 45.3755V41.4888C156.663 35.749 153.171 32.6305 146.943 32.6305C141.81 32.6305 138.065 35.4778 137.308 39.8165H128.135C128.43 30.6871 136.424 24.0435 147.238 24.0435C158.893 24.0435 166.467 30.5967 166.467 40.7656V75.837H157.042V67.3855H156.831ZM144.544 68.0188C139.116 68.0188 135.666 65.2167 135.666 60.9232C135.666 56.494 138.99 53.9179 145.344 53.5112L156.662 52.7429V56.72C156.662 63.3185 151.445 68.0188 144.544 68.0188ZM197.729 78.5942C193.648 90.9324 188.977 95 179.047 95C178.29 95 175.765 94.9096 175.176 94.7288V86.2774C175.807 86.3677 177.364 86.4581 178.164 86.4581C182.666 86.4581 185.19 84.4243 186.747 79.1365L187.673 76.0181L170.421 24.7216H181.067L193.059 66.3463H193.269L205.261 24.7216H215.612L197.729 78.5942Z" fill="black"/>
</svg>
