<svg width="159" height="70" viewBox="0 0 159 70" fill="none" xmlns="http://www.w3.org/2000/svg">
<path fill-rule="evenodd" clip-rule="evenodd" d="M29.1411 9.02476C27.2808 11.3892 24.3045 13.2541 21.3281 12.9877C20.9561 9.79069 22.4133 6.39392 24.1185 4.29592C25.9787 1.86489 29.2341 0.133207 31.8694 0C32.1794 3.33017 30.9703 6.59373 29.1411 9.02476ZM31.8381 13.6202C29.216 13.4581 26.8234 14.4672 24.8909 15.2823C23.6472 15.8069 22.5941 16.251 21.7929 16.251C20.8938 16.251 19.7972 15.7831 18.5659 15.2577C16.9526 14.5693 15.1081 13.7822 13.1739 13.82C8.74036 13.8866 4.61687 16.5841 2.35361 20.88C-2.29694 29.4718 1.14446 42.193 5.63999 49.1864C7.84125 52.6497 10.4766 56.4461 13.949 56.3129C15.4766 56.251 16.5755 55.7501 17.7128 55.2318C19.0221 54.635 20.3822 54.0151 22.506 54.0151C24.5561 54.0151 25.8568 54.6189 27.1053 55.1985C28.2925 55.7496 29.4326 56.2788 31.125 56.2463C34.7214 56.1797 36.9847 52.7829 39.186 49.3196C41.5615 45.6024 42.6054 41.9747 42.7638 41.4242L42.7824 41.3605C42.7786 41.3564 42.7492 41.342 42.6975 41.3165C41.9034 40.926 35.8338 37.9414 35.7756 29.938C35.7171 23.2203 40.5898 19.8167 41.3568 19.2809C41.4035 19.2483 41.435 19.2263 41.4492 19.2149C38.3489 14.2862 33.5123 13.7534 31.8381 13.6202ZM56.7343 55.88V3.96278H74.8714C84.2345 3.96278 90.7763 10.8895 90.7763 21.0132C90.7763 31.1369 84.1105 38.1303 74.6234 38.1303H64.2372V55.88H56.7343ZM64.2365 10.7567H72.8865C79.3973 10.7567 83.1177 14.4865 83.1177 21.0469C83.1177 27.6073 79.3973 31.3704 72.8555 31.3704H64.2365V10.7567ZM115.549 49.6525C113.564 53.7153 109.193 56.2795 104.48 56.2795C97.5045 56.2795 92.6369 51.8171 92.6369 45.0902C92.6369 38.4299 97.3494 34.6002 106.061 34.034L115.425 33.4346V30.5707C115.425 26.3414 112.851 24.0435 108.263 24.0435C104.48 24.0435 101.721 26.1415 101.163 29.3385H94.4041C94.6211 22.6116 100.512 17.7162 108.48 17.7162C117.068 17.7162 122.648 22.545 122.648 30.0378V55.8799H115.704V49.6525H115.549ZM106.495 50.1191C102.496 50.1191 99.9533 48.0544 99.9533 44.8907C99.9533 41.6272 102.403 39.729 107.084 39.4293L115.424 38.8632V41.7937C115.424 46.6557 111.58 50.1191 106.495 50.1191ZM145.684 57.9115C142.677 67.0028 139.235 70 131.918 70C131.36 70 129.5 69.9334 129.066 69.8002V63.5728C129.531 63.6394 130.678 63.706 131.267 63.706C134.585 63.706 136.445 62.2074 137.592 58.3111L138.274 56.0133L125.562 18.2159H133.406L142.242 48.8868H142.397L151.234 18.2159H158.86L145.684 57.9115Z" fill="black"/>
</svg>
