<svg width="216" height="95" viewBox="0 0 216 95" fill="none" xmlns="http://www.w3.org/2000/svg">
<path fill-rule="evenodd" clip-rule="evenodd" d="M39.3592 12.2479C36.8346 15.4567 32.7953 17.9877 28.756 17.6261C28.251 13.2874 30.2286 8.67747 32.5428 5.83017C35.0674 2.53093 39.4855 0.180781 43.0619 0C43.4827 4.51951 41.8417 8.94864 39.3592 12.2479ZM43.0195 18.4846C39.4609 18.2646 36.2138 19.6341 33.5911 20.7403C31.9033 21.4522 30.4741 22.055 29.3867 22.055C28.1665 22.055 26.6782 21.4199 25.0073 20.7069C22.8178 19.7726 20.3145 18.7045 17.6895 18.7557C11.6726 18.8461 6.0764 22.5069 3.00482 28.3371C-3.30664 39.9974 1.36384 57.262 7.46492 66.7529C10.4523 71.4532 14.0288 76.6055 18.7414 76.4247C20.8146 76.3406 22.306 75.6609 23.8494 74.9574C25.6263 74.1475 27.4722 73.3062 30.3545 73.3062C33.1368 73.3062 34.902 74.1256 36.5964 74.9122C38.2076 75.6601 39.7548 76.3783 42.0517 76.3343C46.9326 76.2439 50.0042 71.634 52.9916 66.9337C56.2155 61.889 57.6322 56.9656 57.8472 56.2185L57.8724 56.1321C57.8673 56.1265 57.8275 56.107 57.7572 56.0724C56.6795 55.5425 48.4422 51.4919 48.3632 40.6302C48.2839 31.5133 54.8968 26.8941 55.9378 26.167C56.0011 26.1227 56.0439 26.0929 56.0632 26.0773C51.8555 19.3885 45.2916 18.6653 43.0195 18.4846ZM76.8072 75.8372V5.37805H101.422C114.129 5.37805 123.007 14.7786 123.007 28.5179C123.007 42.2573 113.961 51.7482 101.085 51.7482H86.9897V75.8372H76.8072ZM86.9887 14.5983H98.728C107.564 14.5983 112.613 19.6602 112.613 28.5636C112.613 37.4671 107.564 42.5741 98.6859 42.5741H86.9887V14.5983ZM156.627 67.3855C153.934 72.8994 148.001 76.3794 141.605 76.3794C132.138 76.3794 125.532 70.3232 125.532 61.1938C125.532 52.1548 131.928 46.9574 143.751 46.1891L156.458 45.3755V41.4888C156.458 35.749 152.966 32.6305 146.739 32.6305C141.605 32.6305 137.861 35.4778 137.103 39.8165H127.93C128.225 30.6871 136.22 24.0435 147.033 24.0435C158.688 24.0435 166.262 30.5967 166.262 40.7656V75.837H156.837V67.3855H156.627ZM144.34 68.0188C138.912 68.0188 135.462 65.2167 135.462 60.9232C135.462 56.494 138.786 53.9179 145.139 53.5112L156.458 52.7429V56.72C156.458 63.3185 151.24 68.0188 144.34 68.0188ZM197.524 78.5942C193.443 90.9324 188.773 95 178.843 95C178.085 95 175.561 94.9096 174.971 94.7288V86.2774C175.603 86.3677 177.159 86.4581 177.959 86.4581C182.461 86.4581 184.986 84.4243 186.543 79.1365L187.468 76.0181L170.217 24.7216H180.862L192.854 66.3463H193.064L205.056 24.7216H215.407L197.524 78.5942Z" fill="white"/>
</svg>
