<svg width="85" height="58" viewBox="0 0 85 58" fill="none" xmlns="http://www.w3.org/2000/svg">
<path opacity="0.5" d="M56.6196 57.2818C51.0057 57.2827 45.5175 55.6253 40.8493 52.5195C36.181 49.4136 32.5422 44.9987 30.3931 39.833C28.2439 34.6673 27.681 28.9829 28.7754 23.4985C29.8698 18.0141 32.5724 12.9761 36.5415 9.02166C40.5105 5.06718 45.5678 2.3738 51.0737 1.28211C56.5796 0.190415 62.2869 0.749446 67.4738 2.88851C72.6607 5.02757 77.0944 8.6506 80.214 13.2994C83.3336 17.9483 84.9992 23.4141 85 29.0057V29.0099C84.9922 36.505 81.9997 43.6909 76.6792 48.9911C71.3587 54.2913 64.1446 57.2729 56.6196 57.2818Z" fill="black" fill-opacity="0.7"/>
<path d="M28.3846 57.7381C22.7707 57.7381 17.2828 56.08 12.615 52.9734C7.94715 49.8669 4.30903 45.4514 2.16066 40.2854C0.0122986 35.1194 -0.549811 29.4349 0.545415 23.9507C1.64064 18.4665 4.34401 13.4289 8.31367 9.47499C12.2833 5.5211 17.341 2.82846 22.8471 1.73758C28.3531 0.646708 34.0603 1.20659 39.2469 3.34642C44.4336 5.48625 48.8666 9.10993 51.9856 13.7592C55.1045 18.4085 56.7692 23.8746 56.7692 29.4662C56.7614 36.962 53.7684 44.1486 48.4469 49.4489C43.1255 54.7492 35.9103 57.7303 28.3846 57.7381Z" fill="black" fill-opacity="0.7"/>
</svg>
