<svg width="85" height="57" viewBox="0 0 85 57" fill="none" xmlns="http://www.w3.org/2000/svg">
<path d="M56.6196 56.5438C51.0056 56.5446 45.5175 54.8873 40.8492 51.7814C36.1809 48.6756 32.5421 44.2607 30.393 39.095C28.2439 33.9293 27.6809 28.2448 28.7753 22.7605C29.8697 17.2761 32.5723 12.2381 36.5414 8.28363C40.5105 4.32915 45.5677 1.63576 51.0736 0.54407C56.5795 -0.547623 62.2868 0.0114087 67.4738 2.15047C72.6607 4.28954 77.0943 7.91256 80.2139 12.5614C83.3336 17.2102 84.9991 22.676 84.9999 28.2677V28.2719C84.9921 35.767 81.9997 42.9529 76.6791 48.2531C71.3586 53.5533 64.1445 56.5349 56.6196 56.5438V56.5438Z" fill="#FBA400"/>
<path d="M28.3846 57C22.7707 57 17.2828 55.3418 12.615 52.2353C7.94715 49.1287 4.30903 44.7133 2.16066 39.5473C0.0122986 34.3812 -0.549811 28.6967 0.545415 23.2125C1.64064 17.7283 4.34401 12.6907 8.31367 8.73683C12.2833 4.78294 17.341 2.0903 22.8471 0.999426C28.3531 -0.0914514 34.0603 0.468427 39.2469 2.60826C44.4336 4.74809 48.8666 8.37177 51.9856 13.0211C55.1045 17.6703 56.7692 23.1364 56.7692 28.7281C56.7614 36.2239 53.7684 43.4104 48.4469 48.7107C43.1255 54.011 35.9103 56.9922 28.3846 57Z" fill="#FF0000"/>
<path fill-rule="evenodd" clip-rule="evenodd" d="M42.1005 3.97595C46.0608 6.15304 49.4555 9.24959 51.9856 13.021C55.1045 17.6703 56.7692 23.1364 56.7692 28.728C56.7614 36.2238 53.7684 43.4104 48.4469 48.7107C46.7663 50.3846 44.8969 51.8272 42.8884 53.0179C42.1934 52.6354 41.513 52.223 40.8492 51.7814C36.1809 48.6755 32.5421 44.2606 30.393 39.0949C28.2439 33.9292 27.6809 28.2448 28.7753 22.7604C29.8697 17.276 32.5723 12.2381 36.5414 8.28358C38.2166 6.61451 40.0857 5.1701 42.1005 3.97595Z" fill="#FA502B"/>
</svg>
