<svg width="753" height="753" viewBox="0 0 753 753" fill="none" xmlns="http://www.w3.org/2000/svg">
<g filter="url(#filter0_b_12_495)">
<rect x="208" y="423" width="545" height="330" rx="40" fill="white" fill-opacity="0.4"/>
<path fill-rule="evenodd" clip-rule="evenodd" d="M299.639 500H286.033V489.34H303V496.689C303 498.516 301.492 500 299.639 500ZM284.557 500H261.443V453H299.639C301.494 453 303 454.486 303 456.311V463.66H285.295C284.887 463.66 284.557 463.985 284.557 464.387V500ZM243 496.689V489.34H259.967V500H246.361C244.508 500 243 498.514 243 496.689ZM302.998 487.887H286.033V477.227H302.998V487.887ZM259.967 487.887H243V477.227H259.967V487.887ZM302.998 475.773H286.033V465.113H302.998V475.773ZM259.967 475.773H243V465.113H259.967V475.773ZM259.967 463.66H243V456.311C243 454.486 244.508 453 246.361 453H259.967V463.66Z" fill="url(#paint0_linear_12_495)"/>
<path d="M341.074 466.364V486H337.909L328.657 472.625H328.494V486H324.937V466.364H328.12L337.363 479.749H337.536V466.364H341.074ZM349.034 486.297C348.101 486.297 347.26 486.131 346.512 485.799C345.771 485.46 345.183 484.961 344.748 484.303C344.32 483.645 344.106 482.833 344.106 481.868C344.106 481.037 344.259 480.349 344.566 479.806C344.873 479.263 345.291 478.828 345.822 478.502C346.353 478.176 346.95 477.93 347.615 477.764C348.286 477.591 348.98 477.467 349.696 477.39C350.559 477.3 351.258 477.221 351.795 477.15C352.332 477.074 352.722 476.958 352.965 476.805C353.214 476.645 353.339 476.399 353.339 476.067V476.009C353.339 475.287 353.125 474.728 352.697 474.331C352.268 473.935 351.652 473.737 350.846 473.737C349.996 473.737 349.322 473.922 348.823 474.293C348.331 474.664 347.998 475.102 347.826 475.607L344.585 475.146C344.841 474.251 345.263 473.504 345.851 472.903C346.439 472.295 347.158 471.842 348.008 471.541C348.858 471.234 349.798 471.081 350.827 471.081C351.536 471.081 352.243 471.164 352.946 471.33C353.649 471.496 354.291 471.771 354.873 472.155C355.455 472.532 355.921 473.047 356.273 473.699C356.631 474.35 356.81 475.165 356.81 476.143V486H353.473V483.977H353.358C353.147 484.386 352.85 484.77 352.467 485.127C352.089 485.479 351.613 485.763 351.038 485.981C350.469 486.192 349.801 486.297 349.034 486.297ZM349.935 483.747C350.632 483.747 351.236 483.609 351.747 483.335C352.259 483.053 352.652 482.683 352.927 482.222C353.208 481.762 353.349 481.26 353.349 480.717V478.982C353.24 479.071 353.055 479.154 352.793 479.231C352.537 479.308 352.249 479.375 351.93 479.432C351.61 479.49 351.294 479.541 350.98 479.586C350.667 479.63 350.396 479.669 350.165 479.701C349.648 479.771 349.184 479.886 348.775 480.046C348.366 480.206 348.043 480.429 347.807 480.717C347.57 480.998 347.452 481.363 347.452 481.81C347.452 482.449 347.685 482.932 348.152 483.258C348.619 483.584 349.213 483.747 349.935 483.747ZM360.3 486V471.273H363.617V473.775H363.79C364.097 472.931 364.605 472.273 365.315 471.8C366.024 471.321 366.871 471.081 367.855 471.081C368.853 471.081 369.693 471.324 370.377 471.81C371.067 472.289 371.553 472.944 371.834 473.775H371.988C372.314 472.957 372.864 472.305 373.637 471.819C374.417 471.327 375.34 471.081 376.408 471.081C377.763 471.081 378.869 471.509 379.725 472.366C380.582 473.222 381.01 474.472 381.01 476.115V486H377.53V476.652C377.53 475.738 377.287 475.07 376.801 474.648C376.315 474.219 375.721 474.005 375.018 474.005C374.18 474.005 373.525 474.267 373.052 474.792C372.585 475.309 372.352 475.984 372.352 476.815V486H368.948V476.508C368.948 475.747 368.718 475.14 368.258 474.686C367.804 474.232 367.21 474.005 366.475 474.005C365.976 474.005 365.522 474.133 365.113 474.389C364.704 474.638 364.378 474.993 364.135 475.453C363.892 475.907 363.771 476.437 363.771 477.045V486H360.3ZM391.051 486.288C389.575 486.288 388.3 485.981 387.226 485.367C386.158 484.747 385.337 483.871 384.762 482.74C384.186 481.602 383.899 480.263 383.899 478.723C383.899 477.208 384.186 475.878 384.762 474.734C385.343 473.583 386.155 472.689 387.197 472.049C388.239 471.404 389.463 471.081 390.869 471.081C391.777 471.081 392.633 471.228 393.439 471.522C394.251 471.81 394.966 472.257 395.586 472.864C396.213 473.472 396.705 474.245 397.063 475.185C397.421 476.118 397.6 477.23 397.6 478.521V479.586H385.529V477.246H394.273C394.267 476.581 394.123 475.99 393.841 475.472C393.56 474.948 393.167 474.536 392.662 474.235C392.164 473.935 391.582 473.785 390.917 473.785C390.208 473.785 389.584 473.957 389.047 474.303C388.51 474.641 388.092 475.089 387.791 475.645C387.497 476.195 387.347 476.799 387.341 477.457V479.499C387.341 480.356 387.497 481.091 387.811 481.705C388.124 482.312 388.562 482.778 389.124 483.104C389.687 483.424 390.345 483.584 391.099 483.584C391.604 483.584 392.061 483.513 392.47 483.373C392.879 483.226 393.234 483.012 393.535 482.73C393.835 482.449 394.062 482.101 394.215 481.685L397.456 482.05C397.252 482.906 396.862 483.654 396.286 484.293C395.718 484.926 394.989 485.418 394.1 485.77C393.212 486.115 392.195 486.288 391.051 486.288Z" fill="white"/>
<path d="M251.336 687.346C249.874 687.346 248.62 686.976 247.572 686.237C246.53 685.491 245.728 684.417 245.166 683.014C244.61 681.605 244.332 679.91 244.332 677.927C244.338 675.944 244.619 674.257 245.175 672.866C245.737 671.47 246.539 670.404 247.581 669.67C248.629 668.937 249.88 668.57 251.336 668.57C252.792 668.57 254.044 668.937 255.092 669.67C256.139 670.404 256.941 671.47 257.498 672.866C258.06 674.263 258.341 675.95 258.341 677.927C258.341 679.915 258.06 681.614 257.498 683.023C256.941 684.425 256.139 685.497 255.092 686.237C254.05 686.976 252.798 687.346 251.336 687.346ZM251.336 684.567C252.473 684.567 253.369 684.008 254.026 682.89C254.689 681.765 255.021 680.111 255.021 677.927C255.021 676.483 254.87 675.269 254.568 674.287C254.266 673.304 253.84 672.565 253.289 672.067C252.739 671.564 252.088 671.313 251.336 671.313C250.206 671.313 249.312 671.875 248.655 673C247.998 674.118 247.667 675.761 247.661 677.927C247.655 679.377 247.8 680.596 248.096 681.585C248.398 682.573 248.824 683.319 249.374 683.822C249.925 684.319 250.579 684.567 251.336 684.567ZM261.468 687L269.201 671.695V671.57H260.225V668.818H272.61V671.632L264.886 687H261.468ZM282.933 667.966L277.073 689.734H274.259L280.118 667.966H282.933ZM284.948 687V684.621L291.26 678.433C291.864 677.823 292.367 677.282 292.769 676.808C293.172 676.335 293.473 675.876 293.675 675.432C293.876 674.988 293.977 674.515 293.977 674.012C293.977 673.438 293.846 672.946 293.586 672.538C293.326 672.124 292.967 671.804 292.512 671.579C292.056 671.354 291.538 671.242 290.958 671.242C290.36 671.242 289.837 671.366 289.387 671.615C288.937 671.857 288.588 672.204 288.339 672.653C288.096 673.103 287.975 673.639 287.975 674.26H284.841C284.841 673.106 285.105 672.103 285.631 671.251C286.158 670.398 286.883 669.739 287.806 669.271C288.736 668.803 289.801 668.57 291.002 668.57C292.222 668.57 293.293 668.797 294.216 669.253C295.14 669.709 295.856 670.333 296.365 671.126C296.88 671.92 297.137 672.825 297.137 673.843C297.137 674.524 297.007 675.192 296.746 675.849C296.486 676.506 296.027 677.234 295.37 678.033C294.719 678.832 293.805 679.8 292.627 680.936L289.493 684.124V684.248H297.412V687H284.948ZM306.796 687.249C305.612 687.249 304.553 687.027 303.618 686.583C302.683 686.133 301.94 685.517 301.39 684.736C300.845 683.955 300.555 683.061 300.52 682.055H303.716C303.775 682.801 304.097 683.41 304.683 683.884C305.269 684.351 305.973 684.585 306.796 684.585C307.441 684.585 308.015 684.437 308.518 684.141C309.022 683.845 309.418 683.434 309.708 682.907C309.998 682.381 310.14 681.78 310.134 681.105C310.14 680.419 309.995 679.809 309.699 679.276C309.403 678.744 308.998 678.326 308.483 678.025C307.968 677.717 307.376 677.563 306.707 677.563C306.163 677.557 305.627 677.658 305.1 677.865C304.574 678.072 304.156 678.344 303.849 678.681L300.875 678.193L301.825 668.818H312.371V671.57H304.55L304.026 676.391H304.133C304.47 675.994 304.947 675.666 305.562 675.406C306.178 675.139 306.852 675.006 307.586 675.006C308.687 675.006 309.67 675.266 310.534 675.787C311.398 676.302 312.078 677.012 312.576 677.918C313.073 678.824 313.321 679.859 313.321 681.025C313.321 682.227 313.043 683.298 312.487 684.239C311.936 685.174 311.17 685.911 310.188 686.45C309.211 686.982 308.08 687.249 306.796 687.249Z" fill="white"/>
<g filter="url(#filter1_d_12_495)">
<path d="M252.011 698.818V717H248.717V702.023H248.611L244.358 704.74V701.721L248.877 698.818H252.011ZM256.627 717V714.621L262.94 708.433C263.543 707.823 264.046 707.282 264.449 706.808C264.851 706.335 265.153 705.876 265.354 705.432C265.556 704.988 265.656 704.515 265.656 704.012C265.656 703.438 265.526 702.946 265.266 702.538C265.005 702.124 264.647 701.804 264.191 701.579C263.736 701.354 263.218 701.242 262.638 701.242C262.04 701.242 261.516 701.366 261.066 701.615C260.617 701.857 260.267 702.204 260.019 702.653C259.776 703.103 259.655 703.639 259.655 704.26H256.521C256.521 703.106 256.784 702.103 257.311 701.251C257.838 700.398 258.563 699.739 259.486 699.271C260.415 698.803 261.481 698.57 262.682 698.57C263.901 698.57 264.973 698.797 265.896 699.253C266.819 699.709 267.535 700.333 268.044 701.126C268.559 701.92 268.817 702.825 268.817 703.843C268.817 704.524 268.687 705.192 268.426 705.849C268.166 706.506 267.707 707.234 267.05 708.033C266.399 708.832 265.485 709.8 264.307 710.936L261.173 714.124V714.248H269.092V717H256.627ZM278.68 717.249C277.402 717.249 276.265 717.03 275.271 716.592C274.283 716.154 273.501 715.544 272.927 714.763C272.353 713.982 272.048 713.079 272.013 712.055H275.351C275.38 712.546 275.543 712.975 275.839 713.342C276.135 713.703 276.529 713.984 277.02 714.186C277.511 714.387 278.062 714.488 278.671 714.488C279.322 714.488 279.899 714.375 280.402 714.15C280.905 713.919 281.299 713.6 281.583 713.191C281.867 712.783 282.006 712.312 282 711.78C282.006 711.229 281.864 710.744 281.574 710.324C281.284 709.904 280.864 709.575 280.314 709.338C279.769 709.102 279.112 708.983 278.343 708.983H276.736V706.444H278.343C278.976 706.444 279.529 706.335 280.003 706.116C280.482 705.897 280.858 705.589 281.13 705.192C281.403 704.79 281.536 704.325 281.53 703.799C281.536 703.284 281.42 702.837 281.184 702.458C280.953 702.073 280.624 701.775 280.198 701.561C279.778 701.348 279.284 701.242 278.716 701.242C278.159 701.242 277.644 701.342 277.171 701.544C276.697 701.745 276.316 702.032 276.026 702.405C275.736 702.772 275.582 703.21 275.564 703.719H272.395C272.418 702.701 272.711 701.807 273.273 701.038C273.842 700.262 274.599 699.659 275.546 699.227C276.493 698.789 277.556 698.57 278.733 698.57C279.947 698.57 281 698.797 281.894 699.253C282.793 699.703 283.489 700.31 283.98 701.073C284.471 701.837 284.717 702.68 284.717 703.603C284.723 704.627 284.421 705.485 283.811 706.178C283.208 706.87 282.415 707.323 281.432 707.536V707.678C282.711 707.856 283.69 708.329 284.371 709.099C285.057 709.862 285.398 710.812 285.392 711.949C285.392 712.967 285.102 713.878 284.522 714.683C283.948 715.482 283.154 716.109 282.142 716.565C281.136 717.021 279.982 717.249 278.68 717.249ZM288.111 713.626V711.007L295.825 698.818H298.009V702.547H296.678L291.484 710.777V710.919H302.253V713.626H288.111ZM296.784 717V712.827L296.82 711.656V698.818H299.927V717H296.784ZM317.612 717.249C316.428 717.249 315.368 717.027 314.433 716.583C313.498 716.133 312.755 715.517 312.205 714.736C311.66 713.955 311.37 713.061 311.335 712.055H314.531C314.59 712.801 314.913 713.41 315.499 713.884C316.085 714.351 316.789 714.585 317.612 714.585C318.257 714.585 318.831 714.437 319.334 714.141C319.837 713.845 320.234 713.434 320.524 712.907C320.814 712.381 320.956 711.78 320.95 711.105C320.956 710.419 320.811 709.809 320.515 709.276C320.219 708.744 319.813 708.326 319.298 708.025C318.783 707.717 318.192 707.563 317.523 707.563C316.978 707.557 316.443 707.658 315.916 707.865C315.389 708.072 314.972 708.344 314.664 708.681L311.69 708.193L312.64 698.818H323.187V701.57H315.366L314.842 706.391H314.948C315.286 705.994 315.762 705.666 316.378 705.406C316.993 705.139 317.668 705.006 318.402 705.006C319.503 705.006 320.485 705.266 321.349 705.787C322.213 706.302 322.894 707.012 323.391 707.918C323.888 708.824 324.137 709.859 324.137 711.025C324.137 712.227 323.859 713.298 323.302 714.239C322.752 715.174 321.985 715.911 321.003 716.45C320.026 716.982 318.896 717.249 317.612 717.249ZM333.769 717.249C332.899 717.243 332.05 717.092 331.221 716.796C330.393 716.494 329.647 716.006 328.984 715.331C328.321 714.65 327.794 713.748 327.404 712.623C327.013 711.493 326.821 710.093 326.827 708.424C326.827 706.867 326.993 705.48 327.324 704.26C327.655 703.041 328.132 702.011 328.753 701.171C329.375 700.324 330.123 699.679 330.999 699.235C331.881 698.792 332.867 698.57 333.956 698.57C335.098 698.57 336.11 698.795 336.992 699.244C337.88 699.694 338.596 700.31 339.14 701.091C339.685 701.866 340.022 702.742 340.152 703.719H336.912C336.746 703.02 336.406 702.464 335.891 702.05C335.382 701.629 334.737 701.419 333.956 701.419C332.695 701.419 331.724 701.967 331.044 703.062C330.369 704.157 330.029 705.66 330.023 707.572H330.147C330.437 707.051 330.813 706.604 331.275 706.231C331.736 705.858 332.257 705.571 332.837 705.37C333.423 705.163 334.042 705.059 334.693 705.059C335.758 705.059 336.714 705.314 337.56 705.823C338.412 706.332 339.087 707.033 339.584 707.927C340.081 708.815 340.327 709.833 340.321 710.981C340.327 712.176 340.055 713.251 339.504 714.203C338.954 715.15 338.187 715.896 337.205 716.441C336.223 716.985 335.077 717.254 333.769 717.249ZM333.752 714.585C334.397 714.585 334.974 714.428 335.483 714.115C335.992 713.801 336.394 713.378 336.69 712.845C336.986 712.312 337.131 711.715 337.125 711.052C337.131 710.401 336.989 709.812 336.699 709.285C336.415 708.758 336.021 708.341 335.518 708.033C335.015 707.726 334.441 707.572 333.796 707.572C333.316 707.572 332.87 707.663 332.455 707.847C332.041 708.03 331.68 708.285 331.372 708.61C331.064 708.93 330.822 709.303 330.644 709.729C330.473 710.149 330.384 710.599 330.378 711.078C330.384 711.712 330.532 712.295 330.822 712.827C331.112 713.36 331.511 713.786 332.02 714.106C332.529 714.425 333.106 714.585 333.752 714.585ZM343.988 717L351.72 701.695V701.57H342.745V698.818H355.129V701.632L347.406 717H343.988ZM364.092 717.249C362.772 717.249 361.6 717.027 360.576 716.583C359.558 716.139 358.759 715.532 358.179 714.763C357.605 713.987 357.321 713.109 357.327 712.126C357.321 711.363 357.486 710.661 357.824 710.022C358.161 709.383 358.617 708.85 359.191 708.424C359.771 707.992 360.416 707.717 361.126 707.598V707.474C360.191 707.267 359.434 706.79 358.854 706.045C358.28 705.293 357.995 704.426 358.001 703.444C357.995 702.508 358.256 701.674 358.783 700.94C359.309 700.206 360.031 699.629 360.949 699.209C361.866 698.783 362.914 698.57 364.092 698.57C365.257 698.57 366.296 698.783 367.208 699.209C368.125 699.629 368.847 700.206 369.374 700.94C369.907 701.674 370.173 702.508 370.173 703.444C370.173 704.426 369.88 705.293 369.294 706.045C368.714 706.79 367.965 707.267 367.048 707.474V707.598C367.758 707.717 368.397 707.992 368.965 708.424C369.54 708.85 369.995 709.383 370.333 710.022C370.676 710.661 370.848 711.363 370.848 712.126C370.848 713.109 370.558 713.987 369.978 714.763C369.398 715.532 368.599 716.139 367.581 716.583C366.568 717.027 365.405 717.249 364.092 717.249ZM364.092 714.71C364.772 714.71 365.364 714.594 365.867 714.363C366.37 714.127 366.761 713.795 367.039 713.369C367.317 712.943 367.459 712.452 367.465 711.895C367.459 711.315 367.308 710.803 367.012 710.359C366.722 709.91 366.323 709.557 365.814 709.303C365.311 709.048 364.737 708.921 364.092 708.921C363.44 708.921 362.86 709.048 362.351 709.303C361.842 709.557 361.44 709.91 361.144 710.359C360.854 710.803 360.712 711.315 360.718 711.895C360.712 712.452 360.848 712.943 361.126 713.369C361.405 713.789 361.795 714.118 362.298 714.354C362.807 714.591 363.405 714.71 364.092 714.71ZM364.092 706.426C364.648 706.426 365.139 706.314 365.565 706.089C365.997 705.864 366.338 705.551 366.586 705.148C366.835 704.746 366.962 704.281 366.968 703.754C366.962 703.233 366.838 702.778 366.595 702.387C366.352 701.991 366.015 701.686 365.583 701.473C365.151 701.254 364.654 701.144 364.092 701.144C363.517 701.144 363.011 701.254 362.573 701.473C362.141 701.686 361.804 701.991 361.561 702.387C361.325 702.778 361.209 703.233 361.215 703.754C361.209 704.281 361.328 704.746 361.57 705.148C361.819 705.545 362.159 705.858 362.591 706.089C363.029 706.314 363.529 706.426 364.092 706.426ZM386.279 698.57C387.15 698.576 387.996 698.729 388.819 699.031C389.647 699.327 390.393 699.812 391.056 700.487C391.719 701.156 392.245 702.053 392.636 703.177C393.027 704.302 393.222 705.693 393.222 707.35C393.228 708.912 393.062 710.309 392.725 711.54C392.393 712.765 391.917 713.801 391.295 714.647C390.674 715.494 389.925 716.139 389.049 716.583C388.173 717.027 387.188 717.249 386.093 717.249C384.945 717.249 383.927 717.024 383.039 716.574C382.157 716.124 381.444 715.509 380.9 714.727C380.355 713.946 380.021 713.052 379.896 712.046H383.137C383.302 712.768 383.64 713.342 384.149 713.768C384.664 714.189 385.312 714.399 386.093 714.399C387.354 714.399 388.324 713.851 389.005 712.756C389.686 711.661 390.026 710.14 390.026 708.193H389.902C389.612 708.714 389.236 709.164 388.774 709.543C388.313 709.915 387.789 710.203 387.203 710.404C386.623 710.605 386.007 710.706 385.356 710.706C384.291 710.706 383.332 710.451 382.48 709.942C381.633 709.433 380.962 708.735 380.464 707.847C379.973 706.959 379.725 705.944 379.719 704.802C379.719 703.618 379.991 702.556 380.536 701.615C381.086 700.668 381.852 699.922 382.835 699.377C383.817 698.827 384.966 698.558 386.279 698.57ZM386.288 701.233C385.649 701.233 385.072 701.39 384.557 701.703C384.048 702.011 383.646 702.431 383.35 702.964C383.06 703.491 382.915 704.08 382.915 704.731C382.921 705.376 383.066 705.962 383.35 706.489C383.64 707.015 384.033 707.433 384.531 707.74C385.034 708.048 385.608 708.202 386.253 708.202C386.732 708.202 387.179 708.11 387.593 707.927C388.008 707.743 388.369 707.489 388.676 707.163C388.99 706.832 389.233 706.456 389.404 706.036C389.582 705.616 389.668 705.172 389.662 704.704C389.662 704.083 389.514 703.509 389.218 702.982C388.928 702.455 388.529 702.032 388.02 701.712C387.516 701.393 386.939 701.233 386.288 701.233ZM403.574 698.818V717H400.28V702.023H400.173L395.921 704.74V701.721L400.44 698.818H403.574ZM408.19 717V714.621L414.502 708.433C415.106 707.823 415.609 707.282 416.011 706.808C416.414 706.335 416.716 705.876 416.917 705.432C417.118 704.988 417.219 704.515 417.219 704.012C417.219 703.438 417.089 702.946 416.828 702.538C416.568 702.124 416.21 701.804 415.754 701.579C415.298 701.354 414.78 701.242 414.2 701.242C413.603 701.242 413.079 701.366 412.629 701.615C412.179 701.857 411.83 702.204 411.581 702.653C411.339 703.103 411.217 703.639 411.217 704.26H408.083C408.083 703.106 408.347 702.103 408.874 701.251C409.4 700.398 410.125 699.739 411.049 699.271C411.978 698.803 413.043 698.57 414.245 698.57C415.464 698.57 416.535 698.797 417.458 699.253C418.382 699.709 419.098 700.333 419.607 701.126C420.122 701.92 420.379 702.825 420.379 703.843C420.379 704.524 420.249 705.192 419.989 705.849C419.728 706.506 419.27 707.234 418.613 708.033C417.962 708.832 417.047 709.8 415.869 710.936L412.735 714.124V714.248H420.654V717H408.19ZM430.243 717.249C428.964 717.249 427.828 717.03 426.833 716.592C425.845 716.154 425.064 715.544 424.49 714.763C423.916 713.982 423.611 713.079 423.575 712.055H426.913C426.943 712.546 427.106 712.975 427.402 713.342C427.698 713.703 428.091 713.984 428.582 714.186C429.074 714.387 429.624 714.488 430.234 714.488C430.885 714.488 431.462 714.375 431.965 714.15C432.468 713.919 432.862 713.6 433.146 713.191C433.43 712.783 433.569 712.312 433.563 711.78C433.569 711.229 433.427 710.744 433.137 710.324C432.847 709.904 432.426 709.575 431.876 709.338C431.332 709.102 430.675 708.983 429.905 708.983H428.298V706.444H429.905C430.538 706.444 431.092 706.335 431.565 706.116C432.045 705.897 432.421 705.589 432.693 705.192C432.965 704.79 433.098 704.325 433.092 703.799C433.098 703.284 432.983 702.837 432.746 702.458C432.515 702.073 432.187 701.775 431.761 701.561C431.34 701.348 430.846 701.242 430.278 701.242C429.722 701.242 429.207 701.342 428.733 701.544C428.26 701.745 427.878 702.032 427.588 702.405C427.298 702.772 427.144 703.21 427.126 703.719H423.957C423.981 702.701 424.274 701.807 424.836 701.038C425.404 700.262 426.162 699.659 427.109 699.227C428.056 698.789 429.118 698.57 430.296 698.57C431.509 698.57 432.563 698.797 433.456 699.253C434.356 699.703 435.051 700.31 435.543 701.073C436.034 701.837 436.279 702.68 436.279 703.603C436.285 704.627 435.984 705.485 435.374 706.178C434.77 706.87 433.977 707.323 432.995 707.536V707.678C434.273 707.856 435.253 708.329 435.933 709.099C436.62 709.862 436.96 710.812 436.954 711.949C436.954 712.967 436.664 713.878 436.084 714.683C435.51 715.482 434.717 716.109 433.705 716.565C432.699 717.021 431.545 717.249 430.243 717.249ZM445.874 713.626V711.007L453.589 698.818H455.773V702.547H454.441L449.248 710.777V710.919H460.017V713.626H445.874ZM454.548 717V712.827L454.583 711.656V698.818H457.691V717H454.548ZM469.174 717.249C467.99 717.249 466.931 717.027 465.996 716.583C465.061 716.133 464.318 715.517 463.767 714.736C463.223 713.955 462.933 713.061 462.897 712.055H466.093C466.153 712.801 466.475 713.41 467.061 713.884C467.647 714.351 468.351 714.585 469.174 714.585C469.819 714.585 470.393 714.437 470.896 714.141C471.399 713.845 471.796 713.434 472.086 712.907C472.376 712.381 472.518 711.78 472.512 711.105C472.518 710.419 472.373 709.809 472.077 709.276C471.781 708.744 471.376 708.326 470.861 708.025C470.346 707.717 469.754 707.563 469.085 707.563C468.541 707.557 468.005 707.658 467.478 707.865C466.952 708.072 466.534 708.344 466.227 708.681L463.253 708.193L464.203 698.818H474.749V701.57H466.928L466.404 706.391H466.511C466.848 705.994 467.325 705.666 467.94 705.406C468.556 705.139 469.23 705.006 469.964 705.006C471.065 705.006 472.048 705.266 472.912 705.787C473.776 706.302 474.456 707.012 474.954 707.918C475.451 708.824 475.699 709.859 475.699 711.025C475.699 712.227 475.421 713.298 474.865 714.239C474.314 715.174 473.548 715.911 472.565 716.45C471.589 716.982 470.458 717.249 469.174 717.249ZM485.332 717.249C484.462 717.243 483.612 717.092 482.784 716.796C481.955 716.494 481.209 716.006 480.547 715.331C479.884 714.65 479.357 713.748 478.966 712.623C478.576 711.493 478.383 710.093 478.389 708.424C478.389 706.867 478.555 705.48 478.886 704.26C479.218 703.041 479.694 702.011 480.316 701.171C480.937 700.324 481.686 699.679 482.562 699.235C483.444 698.792 484.429 698.57 485.518 698.57C486.66 698.57 487.673 698.795 488.554 699.244C489.442 699.694 490.158 700.31 490.703 701.091C491.247 701.866 491.585 702.742 491.715 703.719H488.475C488.309 703.02 487.968 702.464 487.454 702.05C486.945 701.629 486.299 701.419 485.518 701.419C484.258 701.419 483.287 701.967 482.606 703.062C481.932 704.157 481.591 705.66 481.585 707.572H481.71C482 707.051 482.375 706.604 482.837 706.231C483.299 705.858 483.82 705.571 484.4 705.37C484.986 705.163 485.604 705.059 486.255 705.059C487.32 705.059 488.276 705.314 489.123 705.823C489.975 706.332 490.65 707.033 491.147 707.927C491.644 708.815 491.89 709.833 491.884 710.981C491.89 712.176 491.617 713.251 491.067 714.203C490.516 715.15 489.75 715.896 488.767 716.441C487.785 716.985 486.64 717.254 485.332 717.249ZM485.314 714.585C485.959 714.585 486.536 714.428 487.045 714.115C487.554 713.801 487.957 713.378 488.253 712.845C488.549 712.312 488.694 711.715 488.688 711.052C488.694 710.401 488.551 709.812 488.261 709.285C487.977 708.758 487.584 708.341 487.081 708.033C486.578 707.726 486.004 707.572 485.358 707.572C484.879 707.572 484.432 707.663 484.018 707.847C483.604 708.03 483.243 708.285 482.935 708.61C482.627 708.93 482.384 709.303 482.207 709.729C482.035 710.149 481.946 710.599 481.94 711.078C481.946 711.712 482.094 712.295 482.384 712.827C482.674 713.36 483.074 713.786 483.583 714.106C484.092 714.425 484.669 714.585 485.314 714.585ZM495.55 717L503.283 701.695V701.57H494.307V698.818H506.692V701.632L498.968 717H495.55Z" fill="white"/>
</g>
<path opacity="0.5" d="M689.62 721.044C684.006 721.045 678.518 719.387 673.849 716.281C669.181 713.176 665.542 708.761 663.393 703.595C661.244 698.429 660.681 692.745 661.775 687.26C662.87 681.776 665.572 676.738 669.541 672.784C673.511 668.829 678.568 666.136 684.074 665.044C689.58 663.952 695.287 664.511 700.474 666.65C705.661 668.79 710.094 672.413 713.214 677.061C716.334 681.71 717.999 687.176 718 692.768V692.772C717.992 700.267 715 707.453 709.679 712.753C704.359 718.053 697.145 721.035 689.62 721.044V721.044Z" fill="white" fill-opacity="0.7"/>
<path d="M661.385 721.5C655.771 721.5 650.283 719.842 645.615 716.735C640.947 713.629 637.309 709.213 635.161 704.047C633.012 698.881 632.45 693.197 633.545 687.713C634.641 682.228 637.344 677.191 641.314 673.237C645.283 669.283 650.341 666.59 655.847 665.499C661.353 664.409 667.06 664.968 672.247 667.108C677.434 669.248 681.867 672.872 684.986 677.521C688.105 682.17 689.769 687.636 689.769 693.228C689.761 700.724 686.768 707.91 681.447 713.211C676.125 718.511 668.91 721.492 661.385 721.5Z" fill="white" fill-opacity="0.7"/>
<rect x="210" y="425" width="541" height="326" rx="38" stroke="white" stroke-opacity="0.5" stroke-width="4"/>
</g>
<g filter="url(#filter2_b_12_495)">
<rect x="1" y="212" width="545" height="330" rx="40" fill="white" fill-opacity="0.4"/>
<path fill-rule="evenodd" clip-rule="evenodd" d="M92.6394 289H79.0328V278.34H96V285.689C96 287.516 94.4918 289 92.6394 289ZM77.5574 289H54.4426V242H92.6394C94.4939 242 96 243.486 96 245.311V252.66H78.2951C77.8873 252.66 77.5574 252.985 77.5574 253.387V289ZM36 285.689V278.34H52.9672V289H39.3607C37.5082 289 36 287.514 36 285.689ZM95.998 276.887H79.0328V266.227H95.998V276.887ZM52.9672 276.887H36V266.227H52.9672V276.887ZM95.998 264.773H79.0328V254.113H95.998V264.773ZM52.9672 264.773H36V254.113H52.9672V264.773ZM52.9672 252.66H36V245.311C36 243.486 37.5082 242 39.3607 242H52.9672V252.66Z" fill="url(#paint1_linear_12_495)"/>
<path d="M134.074 255.364V275H130.909L121.657 261.625H121.494V275H117.937V255.364H121.12L130.363 268.749H130.536V255.364H134.074ZM142.034 275.297C141.101 275.297 140.26 275.131 139.512 274.799C138.771 274.46 138.183 273.961 137.748 273.303C137.32 272.645 137.106 271.833 137.106 270.868C137.106 270.037 137.259 269.349 137.566 268.806C137.873 268.263 138.291 267.828 138.822 267.502C139.353 267.176 139.95 266.93 140.615 266.764C141.286 266.591 141.98 266.467 142.696 266.39C143.559 266.3 144.258 266.221 144.795 266.15C145.332 266.074 145.722 265.958 145.965 265.805C146.214 265.645 146.339 265.399 146.339 265.067V265.009C146.339 264.287 146.125 263.728 145.697 263.331C145.268 262.935 144.652 262.737 143.846 262.737C142.996 262.737 142.322 262.922 141.823 263.293C141.331 263.664 140.998 264.102 140.826 264.607L137.585 264.146C137.841 263.251 138.263 262.504 138.851 261.903C139.439 261.295 140.158 260.842 141.008 260.541C141.858 260.234 142.798 260.081 143.827 260.081C144.536 260.081 145.243 260.164 145.946 260.33C146.649 260.496 147.291 260.771 147.873 261.155C148.455 261.532 148.921 262.047 149.273 262.699C149.631 263.35 149.81 264.165 149.81 265.143V275H146.473V272.977H146.358C146.147 273.386 145.85 273.77 145.467 274.127C145.089 274.479 144.613 274.763 144.038 274.981C143.469 275.192 142.801 275.297 142.034 275.297ZM142.935 272.747C143.632 272.747 144.236 272.609 144.747 272.335C145.259 272.053 145.652 271.683 145.927 271.222C146.208 270.762 146.349 270.26 146.349 269.717V267.982C146.24 268.071 146.055 268.154 145.793 268.231C145.537 268.308 145.249 268.375 144.93 268.432C144.61 268.49 144.294 268.541 143.98 268.586C143.667 268.63 143.396 268.669 143.165 268.701C142.648 268.771 142.184 268.886 141.775 269.046C141.366 269.206 141.043 269.429 140.807 269.717C140.57 269.998 140.452 270.363 140.452 270.81C140.452 271.449 140.685 271.932 141.152 272.258C141.619 272.584 142.213 272.747 142.935 272.747ZM153.3 275V260.273H156.617V262.775H156.79C157.097 261.931 157.605 261.273 158.315 260.8C159.024 260.321 159.871 260.081 160.855 260.081C161.853 260.081 162.693 260.324 163.377 260.81C164.067 261.289 164.553 261.944 164.834 262.775H164.988C165.314 261.957 165.864 261.305 166.637 260.819C167.417 260.327 168.34 260.081 169.408 260.081C170.763 260.081 171.869 260.509 172.725 261.366C173.582 262.222 174.01 263.472 174.01 265.115V275H170.53V265.652C170.53 264.738 170.287 264.07 169.801 263.648C169.315 263.219 168.721 263.005 168.018 263.005C167.18 263.005 166.525 263.267 166.052 263.792C165.585 264.309 165.352 264.984 165.352 265.815V275H161.948V265.508C161.948 264.747 161.718 264.14 161.258 263.686C160.804 263.232 160.21 263.005 159.475 263.005C158.976 263.005 158.522 263.133 158.113 263.389C157.704 263.638 157.378 263.993 157.135 264.453C156.892 264.907 156.771 265.437 156.771 266.045V275H153.3ZM184.051 275.288C182.575 275.288 181.3 274.981 180.226 274.367C179.158 273.747 178.337 272.871 177.762 271.74C177.186 270.602 176.899 269.263 176.899 267.723C176.899 266.208 177.186 264.878 177.762 263.734C178.343 262.583 179.155 261.689 180.197 261.049C181.239 260.404 182.463 260.081 183.869 260.081C184.777 260.081 185.633 260.228 186.439 260.522C187.251 260.81 187.966 261.257 188.586 261.864C189.213 262.472 189.705 263.245 190.063 264.185C190.421 265.118 190.6 266.23 190.6 267.521V268.586H178.529V266.246H187.273C187.267 265.581 187.123 264.99 186.841 264.472C186.56 263.948 186.167 263.536 185.662 263.235C185.164 262.935 184.582 262.785 183.917 262.785C183.208 262.785 182.584 262.957 182.047 263.303C181.51 263.641 181.092 264.089 180.791 264.645C180.497 265.195 180.347 265.799 180.341 266.457V268.499C180.341 269.356 180.497 270.091 180.811 270.705C181.124 271.312 181.562 271.778 182.124 272.104C182.687 272.424 183.345 272.584 184.099 272.584C184.604 272.584 185.061 272.513 185.47 272.373C185.879 272.226 186.234 272.012 186.535 271.73C186.835 271.449 187.062 271.101 187.215 270.685L190.456 271.05C190.252 271.906 189.862 272.654 189.286 273.293C188.718 273.926 187.989 274.418 187.1 274.77C186.212 275.115 185.195 275.288 184.051 275.288Z" fill="white"/>
<path d="M44.3363 476.346C42.8744 476.346 41.6197 475.976 40.5721 475.237C39.5304 474.491 38.7285 473.417 38.1662 472.014C37.6098 470.605 37.3317 468.91 37.3317 466.927C37.3376 464.944 37.6187 463.257 38.1751 461.866C38.7373 460.47 39.5393 459.404 40.581 458.67C41.6286 457.937 42.8803 457.57 44.3363 457.57C45.7923 457.57 47.044 457.937 48.0916 458.67C49.1392 459.404 49.9412 460.47 50.4975 461.866C51.0598 463.263 51.3409 464.95 51.3409 466.927C51.3409 468.915 51.0598 470.614 50.4975 472.023C49.9412 473.425 49.1392 474.497 48.0916 475.237C47.05 475.976 45.7982 476.346 44.3363 476.346ZM44.3363 473.567C45.4727 473.567 46.3693 473.008 47.0263 471.89C47.6892 470.765 48.0206 469.111 48.0206 466.927C48.0206 465.483 47.8697 464.269 47.5678 463.287C47.266 462.304 46.8398 461.565 46.2894 461.067C45.739 460.564 45.088 460.313 44.3363 460.313C43.2058 460.313 42.3121 460.875 41.6552 462C40.9982 463.118 40.6668 464.761 40.6609 466.927C40.6549 468.377 40.8 469.596 41.0959 470.585C41.3977 471.573 41.8239 472.319 42.3743 472.822C42.9247 473.319 43.5787 473.567 44.3363 473.567ZM54.4681 476L62.2007 460.695V460.57H53.2252V457.818H65.6098V460.632L57.8861 476H54.4681ZM75.9325 456.966L70.0732 478.734H67.2589L73.1183 456.966H75.9325ZM77.9478 476V473.621L84.2599 467.433C84.8636 466.823 85.3667 466.282 85.7692 465.808C86.1716 465.335 86.4735 464.876 86.6747 464.432C86.8759 463.988 86.9766 463.515 86.9766 463.012C86.9766 462.438 86.8464 461.946 86.5859 461.538C86.3255 461.124 85.9674 460.804 85.5117 460.579C85.056 460.354 84.5381 460.242 83.9581 460.242C83.3603 460.242 82.8365 460.366 82.3867 460.615C81.9369 460.857 81.5877 461.204 81.3391 461.653C81.0965 462.103 80.9751 462.639 80.9751 463.26H77.8413C77.8413 462.106 78.1046 461.103 78.6314 460.251C79.1581 459.398 79.8832 458.739 80.8065 458.271C81.7357 457.803 82.801 457.57 84.0025 457.57C85.2217 457.57 86.293 457.797 87.2163 458.253C88.1396 458.709 88.8557 459.333 89.3647 460.126C89.8796 460.92 90.1371 461.825 90.1371 462.843C90.1371 463.524 90.0069 464.192 89.7464 464.849C89.486 465.506 89.0273 466.234 88.3704 467.033C87.7193 467.832 86.8049 468.8 85.6271 469.936L82.4933 473.124V473.248H90.4123V476H77.9478ZM99.7962 476.249C98.6125 476.249 97.553 476.027 96.6179 475.583C95.6828 475.133 94.94 474.517 94.3896 473.736C93.8451 472.955 93.555 472.061 93.5195 471.055H96.7156C96.7747 471.801 97.0973 472.41 97.6832 472.884C98.2692 473.351 98.9735 473.585 99.7962 473.585C100.441 473.585 101.015 473.437 101.518 473.141C102.022 472.845 102.418 472.434 102.708 471.907C102.998 471.381 103.14 470.78 103.134 470.105C103.14 469.419 102.995 468.809 102.699 468.276C102.403 467.744 101.998 467.326 101.483 467.025C100.968 466.717 100.376 466.563 99.7074 466.563C99.1629 466.557 98.6272 466.658 98.1005 466.865C97.5737 467.072 97.1565 467.344 96.8487 467.681L93.8746 467.193L94.8246 457.818H105.371V460.57H97.5501L97.0263 465.391H97.1328C97.4702 464.994 97.9466 464.666 98.5621 464.406C99.1777 464.139 99.8524 464.006 100.586 464.006C101.687 464.006 102.67 464.266 103.534 464.787C104.398 465.302 105.078 466.012 105.576 466.918C106.073 467.824 106.321 468.859 106.321 470.025C106.321 471.227 106.043 472.298 105.487 473.239C104.936 474.174 104.17 474.911 103.188 475.45C102.211 475.982 101.08 476.249 99.7962 476.249Z" fill="white"/>
<g filter="url(#filter3_d_12_495)">
<path d="M45.011 487.818V506H41.7173V491.023H41.6108L37.3583 493.74V490.721L41.8771 487.818H45.011ZM49.6275 506V503.621L55.9396 497.433C56.5433 496.823 57.0464 496.282 57.4489 495.808C57.8513 495.335 58.1532 494.876 58.3544 494.432C58.5556 493.988 58.6562 493.515 58.6562 493.012C58.6562 492.438 58.526 491.946 58.2656 491.538C58.0052 491.124 57.6471 490.804 57.1914 490.579C56.7357 490.354 56.2178 490.242 55.6378 490.242C55.04 490.242 54.5162 490.366 54.0664 490.615C53.6166 490.857 53.2674 491.204 53.0188 491.653C52.7762 492.103 52.6548 492.639 52.6548 493.26H49.521C49.521 492.106 49.7843 491.103 50.3111 490.251C50.8378 489.398 51.5629 488.739 52.4862 488.271C53.4154 487.803 54.4807 487.57 55.6822 487.57C56.9014 487.57 57.9727 487.797 58.896 488.253C59.8192 488.709 60.5354 489.333 61.0444 490.126C61.5593 490.92 61.8168 491.825 61.8168 492.843C61.8168 493.524 61.6866 494.192 61.4261 494.849C61.1657 495.506 60.707 496.234 60.0501 497.033C59.399 497.832 58.4846 498.8 57.3068 499.936L54.1729 503.124V503.248H62.092V506H49.6275ZM71.68 506.249C70.4016 506.249 69.2653 506.03 68.271 505.592C67.2826 505.154 66.5013 504.544 65.9272 503.763C65.3531 502.982 65.0483 502.079 65.0128 501.055H68.3509C68.3804 501.546 68.5432 501.975 68.8391 502.342C69.1351 502.703 69.5286 502.984 70.0199 503.186C70.5111 503.387 71.0616 503.488 71.6712 503.488C72.3222 503.488 72.8993 503.375 73.4023 503.15C73.9054 502.919 74.299 502.6 74.5831 502.191C74.8672 501.783 75.0063 501.312 75.0004 500.78C75.0063 500.229 74.8642 499.744 74.5742 499.324C74.2842 498.904 73.864 498.575 73.3136 498.338C72.7691 498.102 72.1121 497.983 71.3427 497.983H69.7358V495.444H71.3427C71.976 495.444 72.5294 495.335 73.0028 495.116C73.4822 494.897 73.8581 494.589 74.1303 494.192C74.4026 493.79 74.5357 493.325 74.5298 492.799C74.5357 492.284 74.4203 491.837 74.1836 491.458C73.9528 491.073 73.6243 490.775 73.1982 490.561C72.7779 490.348 72.2837 490.242 71.7156 490.242C71.1592 490.242 70.6443 490.342 70.1708 490.544C69.6973 490.745 69.3156 491.032 69.0256 491.405C68.7356 491.772 68.5817 492.21 68.5639 492.719H65.3945C65.4182 491.701 65.7112 490.807 66.2734 490.038C66.8416 489.262 67.5992 488.659 68.5462 488.227C69.4931 487.789 70.5555 487.57 71.7333 487.57C72.9466 487.57 74.0001 487.797 74.8938 488.253C75.7934 488.703 76.4889 489.31 76.9801 490.073C77.4714 490.837 77.717 491.68 77.717 492.603C77.7229 493.627 77.421 494.485 76.8114 495.178C76.2077 495.87 75.4147 496.323 74.4322 496.536V496.678C75.7106 496.856 76.6901 497.329 77.3707 498.099C78.0573 498.862 78.3976 499.812 78.3917 500.949C78.3917 501.967 78.1017 502.878 77.5217 503.683C76.9476 504.482 76.1545 505.109 75.1424 505.565C74.1362 506.021 72.9821 506.249 71.68 506.249ZM81.1105 502.626V500.007L88.8254 487.818H91.0093V491.547H89.6776L84.4841 499.777V499.919H95.2529V502.626H81.1105ZM89.7842 506V501.827L89.8197 500.656V487.818H92.9269V506H89.7842ZM110.612 506.249C109.428 506.249 108.368 506.027 107.433 505.583C106.498 505.133 105.755 504.517 105.205 503.736C104.66 502.955 104.37 502.061 104.335 501.055H107.531C107.59 501.801 107.913 502.41 108.499 502.884C109.085 503.351 109.789 503.585 110.612 503.585C111.257 503.585 111.831 503.437 112.334 503.141C112.837 502.845 113.234 502.434 113.524 501.907C113.814 501.381 113.956 500.78 113.95 500.105C113.956 499.419 113.811 498.809 113.515 498.276C113.219 497.744 112.813 497.326 112.298 497.025C111.783 496.717 111.192 496.563 110.523 496.563C109.978 496.557 109.443 496.658 108.916 496.865C108.389 497.072 107.972 497.344 107.664 497.681L104.69 497.193L105.64 487.818H116.187V490.57H108.366L107.842 495.391H107.948C108.286 494.994 108.762 494.666 109.378 494.406C109.993 494.139 110.668 494.006 111.402 494.006C112.503 494.006 113.485 494.266 114.349 494.787C115.213 495.302 115.894 496.012 116.391 496.918C116.888 497.824 117.137 498.859 117.137 500.025C117.137 501.227 116.859 502.298 116.302 503.239C115.752 504.174 114.985 504.911 114.003 505.45C113.026 505.982 111.896 506.249 110.612 506.249ZM126.769 506.249C125.899 506.243 125.05 506.092 124.221 505.796C123.393 505.494 122.647 505.006 121.984 504.331C121.321 503.65 120.794 502.748 120.404 501.623C120.013 500.493 119.821 499.093 119.827 497.424C119.827 495.867 119.993 494.48 120.324 493.26C120.655 492.041 121.132 491.011 121.753 490.171C122.375 489.324 123.123 488.679 123.999 488.235C124.881 487.792 125.867 487.57 126.956 487.57C128.098 487.57 129.11 487.795 129.992 488.244C130.88 488.694 131.596 489.31 132.14 490.091C132.685 490.866 133.022 491.742 133.152 492.719H129.912C129.746 492.02 129.406 491.464 128.891 491.05C128.382 490.629 127.737 490.419 126.956 490.419C125.695 490.419 124.724 490.967 124.044 492.062C123.369 493.157 123.029 494.66 123.023 496.572H123.147C123.437 496.051 123.813 495.604 124.275 495.231C124.736 494.858 125.257 494.571 125.837 494.37C126.423 494.163 127.042 494.059 127.693 494.059C128.758 494.059 129.714 494.314 130.56 494.823C131.412 495.332 132.087 496.033 132.584 496.927C133.081 497.815 133.327 498.833 133.321 499.981C133.327 501.176 133.055 502.251 132.504 503.203C131.954 504.15 131.187 504.896 130.205 505.441C129.223 505.985 128.077 506.254 126.769 506.249ZM126.752 503.585C127.397 503.585 127.974 503.428 128.483 503.115C128.992 502.801 129.394 502.378 129.69 501.845C129.986 501.312 130.131 500.715 130.125 500.052C130.131 499.401 129.989 498.812 129.699 498.285C129.415 497.758 129.021 497.341 128.518 497.033C128.015 496.726 127.441 496.572 126.796 496.572C126.316 496.572 125.87 496.663 125.455 496.847C125.041 497.03 124.68 497.285 124.372 497.61C124.064 497.93 123.822 498.303 123.644 498.729C123.473 499.149 123.384 499.599 123.378 500.078C123.384 500.712 123.532 501.295 123.822 501.827C124.112 502.36 124.511 502.786 125.02 503.106C125.529 503.425 126.106 503.585 126.752 503.585ZM136.988 506L144.72 490.695V490.57H135.745V487.818H148.129V490.632L140.406 506H136.988ZM157.092 506.249C155.772 506.249 154.6 506.027 153.576 505.583C152.558 505.139 151.759 504.532 151.179 503.763C150.605 502.987 150.321 502.109 150.327 501.126C150.321 500.363 150.486 499.661 150.824 499.022C151.161 498.383 151.617 497.85 152.191 497.424C152.771 496.992 153.416 496.717 154.126 496.598V496.474C153.191 496.267 152.434 495.79 151.854 495.045C151.28 494.293 150.995 493.426 151.001 492.444C150.995 491.508 151.256 490.674 151.783 489.94C152.309 489.206 153.031 488.629 153.949 488.209C154.866 487.783 155.914 487.57 157.092 487.57C158.257 487.57 159.296 487.783 160.208 488.209C161.125 488.629 161.847 489.206 162.374 489.94C162.907 490.674 163.173 491.508 163.173 492.444C163.173 493.426 162.88 494.293 162.294 495.045C161.714 495.79 160.965 496.267 160.048 496.474V496.598C160.758 496.717 161.397 496.992 161.965 497.424C162.54 497.85 162.995 498.383 163.333 499.022C163.676 499.661 163.848 500.363 163.848 501.126C163.848 502.109 163.558 502.987 162.978 503.763C162.398 504.532 161.599 505.139 160.581 505.583C159.568 506.027 158.405 506.249 157.092 506.249ZM157.092 503.71C157.772 503.71 158.364 503.594 158.867 503.363C159.37 503.127 159.761 502.795 160.039 502.369C160.317 501.943 160.459 501.452 160.465 500.895C160.459 500.315 160.308 499.803 160.012 499.359C159.722 498.91 159.323 498.557 158.814 498.303C158.311 498.048 157.737 497.921 157.092 497.921C156.44 497.921 155.86 498.048 155.351 498.303C154.842 498.557 154.44 498.91 154.144 499.359C153.854 499.803 153.712 500.315 153.718 500.895C153.712 501.452 153.848 501.943 154.126 502.369C154.405 502.789 154.795 503.118 155.298 503.354C155.807 503.591 156.405 503.71 157.092 503.71ZM157.092 495.426C157.648 495.426 158.139 495.314 158.565 495.089C158.997 494.864 159.338 494.551 159.586 494.148C159.835 493.746 159.962 493.281 159.968 492.754C159.962 492.233 159.838 491.778 159.595 491.387C159.352 490.991 159.015 490.686 158.583 490.473C158.151 490.254 157.654 490.144 157.092 490.144C156.517 490.144 156.011 490.254 155.573 490.473C155.141 490.686 154.804 490.991 154.561 491.387C154.325 491.778 154.209 492.233 154.215 492.754C154.209 493.281 154.328 493.746 154.57 494.148C154.819 494.545 155.159 494.858 155.591 495.089C156.029 495.314 156.529 495.426 157.092 495.426ZM179.279 487.57C180.15 487.576 180.996 487.729 181.819 488.031C182.647 488.327 183.393 488.812 184.056 489.487C184.719 490.156 185.245 491.053 185.636 492.177C186.027 493.302 186.222 494.693 186.222 496.35C186.228 497.912 186.062 499.309 185.725 500.54C185.393 501.765 184.917 502.801 184.295 503.647C183.674 504.494 182.925 505.139 182.049 505.583C181.173 506.027 180.188 506.249 179.093 506.249C177.945 506.249 176.927 506.024 176.039 505.574C175.157 505.124 174.444 504.509 173.9 503.727C173.355 502.946 173.021 502.052 172.896 501.046H176.137C176.302 501.768 176.64 502.342 177.149 502.768C177.664 503.189 178.312 503.399 179.093 503.399C180.354 503.399 181.324 502.851 182.005 501.756C182.686 500.661 183.026 499.14 183.026 497.193H182.902C182.612 497.714 182.236 498.164 181.774 498.543C181.313 498.915 180.789 499.203 180.203 499.404C179.623 499.605 179.007 499.706 178.356 499.706C177.291 499.706 176.332 499.451 175.48 498.942C174.633 498.433 173.962 497.735 173.464 496.847C172.973 495.959 172.725 494.944 172.719 493.802C172.719 492.618 172.991 491.556 173.536 490.615C174.086 489.668 174.852 488.922 175.835 488.377C176.817 487.827 177.966 487.558 179.279 487.57ZM179.288 490.233C178.649 490.233 178.072 490.39 177.557 490.703C177.048 491.011 176.646 491.431 176.35 491.964C176.06 492.491 175.915 493.08 175.915 493.731C175.921 494.376 176.066 494.962 176.35 495.489C176.64 496.015 177.033 496.433 177.531 496.74C178.034 497.048 178.608 497.202 179.253 497.202C179.732 497.202 180.179 497.11 180.593 496.927C181.008 496.743 181.369 496.489 181.676 496.163C181.99 495.832 182.233 495.456 182.404 495.036C182.582 494.616 182.668 494.172 182.662 493.704C182.662 493.083 182.514 492.509 182.218 491.982C181.928 491.455 181.529 491.032 181.02 490.712C180.516 490.393 179.939 490.233 179.288 490.233ZM196.574 487.818V506H193.28V491.023H193.173L188.921 493.74V490.721L193.44 487.818H196.574ZM201.19 506V503.621L207.502 497.433C208.106 496.823 208.609 496.282 209.011 495.808C209.414 495.335 209.716 494.876 209.917 494.432C210.118 493.988 210.219 493.515 210.219 493.012C210.219 492.438 210.089 491.946 209.828 491.538C209.568 491.124 209.21 490.804 208.754 490.579C208.298 490.354 207.78 490.242 207.2 490.242C206.603 490.242 206.079 490.366 205.629 490.615C205.179 490.857 204.83 491.204 204.581 491.653C204.339 492.103 204.217 492.639 204.217 493.26H201.083C201.083 492.106 201.347 491.103 201.874 490.251C202.4 489.398 203.125 488.739 204.049 488.271C204.978 487.803 206.043 487.57 207.245 487.57C208.464 487.57 209.535 487.797 210.458 488.253C211.382 488.709 212.098 489.333 212.607 490.126C213.122 490.92 213.379 491.825 213.379 492.843C213.379 493.524 213.249 494.192 212.989 494.849C212.728 495.506 212.27 496.234 211.613 497.033C210.962 497.832 210.047 498.8 208.869 499.936L205.735 503.124V503.248H213.654V506H201.19ZM223.243 506.249C221.964 506.249 220.828 506.03 219.833 505.592C218.845 505.154 218.064 504.544 217.49 503.763C216.916 502.982 216.611 502.079 216.575 501.055H219.913C219.943 501.546 220.106 501.975 220.402 502.342C220.698 502.703 221.091 502.984 221.582 503.186C222.074 503.387 222.624 503.488 223.234 503.488C223.885 503.488 224.462 503.375 224.965 503.15C225.468 502.919 225.862 502.6 226.146 502.191C226.43 501.783 226.569 501.312 226.563 500.78C226.569 500.229 226.427 499.744 226.137 499.324C225.847 498.904 225.426 498.575 224.876 498.338C224.332 498.102 223.675 497.983 222.905 497.983H221.298V495.444H222.905C223.538 495.444 224.092 495.335 224.565 495.116C225.045 494.897 225.421 494.589 225.693 494.192C225.965 493.79 226.098 493.325 226.092 492.799C226.098 492.284 225.983 491.837 225.746 491.458C225.515 491.073 225.187 490.775 224.761 490.561C224.34 490.348 223.846 490.242 223.278 490.242C222.722 490.242 222.207 490.342 221.733 490.544C221.26 490.745 220.878 491.032 220.588 491.405C220.298 491.772 220.144 492.21 220.126 492.719H216.957C216.981 491.701 217.274 490.807 217.836 490.038C218.404 489.262 219.162 488.659 220.109 488.227C221.056 487.789 222.118 487.57 223.296 487.57C224.509 487.57 225.563 487.797 226.456 488.253C227.356 488.703 228.051 489.31 228.543 490.073C229.034 490.837 229.279 491.68 229.279 492.603C229.285 493.627 228.984 494.485 228.374 495.178C227.77 495.87 226.977 496.323 225.995 496.536V496.678C227.273 496.856 228.253 497.329 228.933 498.099C229.62 498.862 229.96 499.812 229.954 500.949C229.954 501.967 229.664 502.878 229.084 503.683C228.51 504.482 227.717 505.109 226.705 505.565C225.699 506.021 224.545 506.249 223.243 506.249ZM238.874 502.626V500.007L246.589 487.818H248.773V491.547H247.441L242.248 499.777V499.919H253.017V502.626H238.874ZM247.548 506V501.827L247.583 500.656V487.818H250.691V506H247.548ZM262.174 506.249C260.99 506.249 259.931 506.027 258.996 505.583C258.061 505.133 257.318 504.517 256.767 503.736C256.223 502.955 255.933 502.061 255.897 501.055H259.093C259.153 501.801 259.475 502.41 260.061 502.884C260.647 503.351 261.351 503.585 262.174 503.585C262.819 503.585 263.393 503.437 263.896 503.141C264.399 502.845 264.796 502.434 265.086 501.907C265.376 501.381 265.518 500.78 265.512 500.105C265.518 499.419 265.373 498.809 265.077 498.276C264.781 497.744 264.376 497.326 263.861 497.025C263.346 496.717 262.754 496.563 262.085 496.563C261.541 496.557 261.005 496.658 260.478 496.865C259.952 497.072 259.534 497.344 259.227 497.681L256.253 497.193L257.203 487.818H267.749V490.57H259.928L259.404 495.391H259.511C259.848 494.994 260.325 494.666 260.94 494.406C261.556 494.139 262.23 494.006 262.964 494.006C264.065 494.006 265.048 494.266 265.912 494.787C266.776 495.302 267.456 496.012 267.954 496.918C268.451 497.824 268.699 498.859 268.699 500.025C268.699 501.227 268.421 502.298 267.865 503.239C267.314 504.174 266.548 504.911 265.565 505.45C264.589 505.982 263.458 506.249 262.174 506.249ZM278.332 506.249C277.462 506.243 276.612 506.092 275.784 505.796C274.955 505.494 274.209 505.006 273.547 504.331C272.884 503.65 272.357 502.748 271.966 501.623C271.576 500.493 271.383 499.093 271.389 497.424C271.389 495.867 271.555 494.48 271.886 493.26C272.218 492.041 272.694 491.011 273.316 490.171C273.937 489.324 274.686 488.679 275.562 488.235C276.444 487.792 277.429 487.57 278.518 487.57C279.66 487.57 280.673 487.795 281.554 488.244C282.442 488.694 283.158 489.31 283.703 490.091C284.247 490.866 284.585 491.742 284.715 492.719H281.475C281.309 492.02 280.968 491.464 280.454 491.05C279.945 490.629 279.299 490.419 278.518 490.419C277.258 490.419 276.287 490.967 275.606 492.062C274.932 493.157 274.591 494.66 274.585 496.572H274.71C275 496.051 275.375 495.604 275.837 495.231C276.299 494.858 276.82 494.571 277.4 494.37C277.986 494.163 278.604 494.059 279.255 494.059C280.32 494.059 281.276 494.314 282.123 494.823C282.975 495.332 283.65 496.033 284.147 496.927C284.644 497.815 284.89 498.833 284.884 499.981C284.89 501.176 284.617 502.251 284.067 503.203C283.516 504.15 282.75 504.896 281.767 505.441C280.785 505.985 279.64 506.254 278.332 506.249ZM278.314 503.585C278.959 503.585 279.536 503.428 280.045 503.115C280.554 502.801 280.957 502.378 281.253 501.845C281.549 501.312 281.694 500.715 281.688 500.052C281.694 499.401 281.551 498.812 281.261 498.285C280.977 497.758 280.584 497.341 280.081 497.033C279.578 496.726 279.004 496.572 278.358 496.572C277.879 496.572 277.432 496.663 277.018 496.847C276.604 497.03 276.243 497.285 275.935 497.61C275.627 497.93 275.384 498.303 275.207 498.729C275.035 499.149 274.946 499.599 274.94 500.078C274.946 500.712 275.094 501.295 275.384 501.827C275.674 502.36 276.074 502.786 276.583 503.106C277.092 503.425 277.669 503.585 278.314 503.585ZM288.55 506L296.283 490.695V490.57H287.307V487.818H299.692V490.632L291.968 506H288.55Z" fill="white"/>
</g>
<path opacity="0.5" d="M482.62 510.044C477.006 510.045 471.518 508.387 466.849 505.281C462.181 502.176 458.542 497.761 456.393 492.595C454.244 487.429 453.681 481.745 454.775 476.26C455.87 470.776 458.572 465.738 462.541 461.784C466.511 457.829 471.568 455.136 477.074 454.044C482.58 452.952 488.287 453.511 493.474 455.65C498.661 457.79 503.094 461.413 506.214 466.061C509.334 470.71 510.999 476.176 511 481.768V481.772C510.992 489.267 508 496.453 502.679 501.753C497.359 507.053 490.145 510.035 482.62 510.044V510.044Z" fill="white" fill-opacity="0.7"/>
<path d="M454.385 510.5C448.771 510.5 443.283 508.842 438.615 505.735C433.947 502.629 430.309 498.213 428.161 493.047C426.012 487.881 425.45 482.197 426.545 476.713C427.641 471.228 430.344 466.191 434.314 462.237C438.283 458.283 443.341 455.59 448.847 454.499C454.353 453.409 460.06 453.968 465.247 456.108C470.434 458.248 474.867 461.872 477.986 466.521C481.105 471.17 482.769 476.636 482.769 482.228C482.761 489.724 479.768 496.91 474.447 502.211C469.125 507.511 461.91 510.492 454.385 510.5Z" fill="white" fill-opacity="0.7"/>
<rect x="3" y="214" width="541" height="326" rx="38" stroke="white" stroke-opacity="0.5" stroke-width="4"/>
</g>
<g filter="url(#filter4_b_12_495)">
<rect x="208" width="545" height="330" rx="40" fill="white" fill-opacity="0.4"/>
<path fill-rule="evenodd" clip-rule="evenodd" d="M299.639 77H286.033V66.3402H303V73.689C303 75.5161 301.492 77 299.639 77ZM284.557 77H261.443V30H299.639C301.494 30 303 31.4859 303 33.311V40.6598H285.295C284.887 40.6598 284.557 40.9848 284.557 41.3866V77ZM243 73.689V66.3402H259.967V77H246.361C244.508 77 243 75.5141 243 73.689ZM302.998 64.8866H286.033V54.2268H302.998V64.8866ZM259.967 64.8866H243V54.2268H259.967V64.8866ZM302.998 52.7732H286.033V42.1134H302.998V52.7732ZM259.967 52.7732H243V42.1134H259.967V52.7732ZM259.967 40.6598H243V33.311C243 31.4859 244.508 30 246.361 30H259.967V40.6598Z" fill="url(#paint2_linear_12_495)"/>
<path d="M341.074 43.3636V63H337.909L328.657 49.6246H328.494V63H324.937V43.3636H328.12L337.363 56.7486H337.536V43.3636H341.074ZM349.034 63.2972C348.101 63.2972 347.26 63.131 346.512 62.7987C345.771 62.4599 345.183 61.9613 344.748 61.3029C344.32 60.6445 344.106 59.8327 344.106 58.8675C344.106 58.0366 344.259 57.3494 344.566 56.8061C344.873 56.2628 345.291 55.8281 345.822 55.5021C346.353 55.1761 346.95 54.93 347.615 54.7638C348.286 54.5913 348.98 54.4666 349.696 54.3899C350.559 54.3004 351.258 54.2205 351.795 54.1502C352.332 54.0735 352.722 53.9585 352.965 53.805C353.214 53.6452 353.339 53.3991 353.339 53.0668V53.0092C353.339 52.2869 353.125 51.7276 352.697 51.3313C352.268 50.935 351.652 50.7369 350.846 50.7369C349.996 50.7369 349.322 50.9222 348.823 51.293C348.331 51.6637 347.998 52.1016 347.826 52.6065L344.585 52.1463C344.841 51.2514 345.263 50.5036 345.851 49.9027C346.439 49.2955 347.158 48.8416 348.008 48.5412C348.858 48.2344 349.798 48.081 350.827 48.081C351.536 48.081 352.243 48.1641 352.946 48.3303C353.649 48.4964 354.291 48.7713 354.873 49.1548C355.455 49.532 355.921 50.0465 356.273 50.6985C356.631 51.3505 356.81 52.1655 356.81 53.1435V63H353.473V60.9769H353.358C353.147 61.386 352.85 61.7695 352.467 62.1275C352.089 62.479 351.613 62.7635 351.038 62.9808C350.469 63.1918 349.801 63.2972 349.034 63.2972ZM349.935 60.7468C350.632 60.7468 351.236 60.6094 351.747 60.3345C352.259 60.0533 352.652 59.6825 352.927 59.2223C353.208 58.7621 353.349 58.2603 353.349 57.717V55.9815C353.24 56.071 353.055 56.1541 352.793 56.2308C352.537 56.3075 352.249 56.3746 351.93 56.4322C351.61 56.4897 351.294 56.5408 350.98 56.5856C350.667 56.6303 350.396 56.6687 350.165 56.7006C349.648 56.771 349.184 56.886 348.775 57.0458C348.366 57.2056 348.043 57.4293 347.807 57.717C347.57 57.9982 347.452 58.3626 347.452 58.81C347.452 59.4492 347.685 59.9318 348.152 60.2578C348.619 60.5838 349.213 60.7468 349.935 60.7468ZM360.3 63V48.2727H363.617V50.7752H363.79C364.097 49.9315 364.605 49.2731 365.315 48.8001C366.024 48.3207 366.871 48.081 367.855 48.081C368.853 48.081 369.693 48.3239 370.377 48.8097C371.067 49.2891 371.553 49.9442 371.834 50.7752H371.988C372.314 49.957 372.864 49.305 373.637 48.8192C374.417 48.3271 375.34 48.081 376.408 48.081C377.763 48.081 378.869 48.5092 379.725 49.3658C380.582 50.2223 381.01 51.4719 381.01 53.1147V63H377.53V53.6516C377.53 52.7376 377.287 52.0696 376.801 51.6477C376.315 51.2195 375.721 51.0053 375.018 51.0053C374.18 51.0053 373.525 51.2674 373.052 51.7915C372.585 52.3093 372.352 52.9837 372.352 53.8146V63H368.948V53.5078C368.948 52.7472 368.718 52.1399 368.258 51.6861C367.804 51.2322 367.21 51.0053 366.475 51.0053C365.976 51.0053 365.522 51.1332 365.113 51.3888C364.704 51.6381 364.378 51.9929 364.135 52.4531C363.892 52.907 363.771 53.4375 363.771 54.0447V63H360.3ZM391.051 63.2876C389.575 63.2876 388.3 62.9808 387.226 62.3672C386.158 61.7472 385.337 60.8714 384.762 59.7401C384.186 58.6023 383.899 57.2631 383.899 55.7227C383.899 54.2077 384.186 52.8782 384.762 51.734C385.343 50.5835 386.155 49.6886 387.197 49.0494C388.239 48.4038 389.463 48.081 390.869 48.081C391.777 48.081 392.633 48.228 393.439 48.522C394.251 48.8097 394.966 49.2571 395.586 49.8643C396.213 50.4716 396.705 51.245 397.063 52.1847C397.421 53.1179 397.6 54.2301 397.6 55.5213V56.5856H385.529V54.2461H394.273C394.267 53.5813 394.123 52.9901 393.841 52.4723C393.56 51.9482 393.167 51.5359 392.662 51.2354C392.164 50.935 391.582 50.7848 390.917 50.7848C390.208 50.7848 389.584 50.9574 389.047 51.3026C388.51 51.6413 388.092 52.0888 387.791 52.6449C387.497 53.1946 387.347 53.7987 387.341 54.457V56.4993C387.341 57.3558 387.497 58.0909 387.811 58.7045C388.124 59.3118 388.562 59.7784 389.124 60.1044C389.687 60.424 390.345 60.5838 391.099 60.5838C391.604 60.5838 392.061 60.5135 392.47 60.3729C392.879 60.2259 393.234 60.0117 393.535 59.7305C393.835 59.4492 394.062 59.1009 394.215 58.6854L397.456 59.0497C397.252 59.9062 396.862 60.6541 396.286 61.2933C395.718 61.9261 394.989 62.4183 394.1 62.7699C393.212 63.1151 392.195 63.2876 391.051 63.2876Z" fill="white"/>
<path d="M251.336 264.346C249.874 264.346 248.62 263.976 247.572 263.237C246.53 262.491 245.728 261.417 245.166 260.014C244.61 258.605 244.332 256.91 244.332 254.927C244.338 252.944 244.619 251.257 245.175 249.866C245.737 248.47 246.539 247.404 247.581 246.67C248.629 245.937 249.88 245.57 251.336 245.57C252.792 245.57 254.044 245.937 255.092 246.67C256.139 247.404 256.941 248.47 257.498 249.866C258.06 251.263 258.341 252.95 258.341 254.927C258.341 256.915 258.06 258.614 257.498 260.023C256.941 261.425 256.139 262.497 255.092 263.237C254.05 263.976 252.798 264.346 251.336 264.346ZM251.336 261.567C252.473 261.567 253.369 261.008 254.026 259.89C254.689 258.765 255.021 257.111 255.021 254.927C255.021 253.483 254.87 252.269 254.568 251.287C254.266 250.304 253.84 249.565 253.289 249.067C252.739 248.564 252.088 248.313 251.336 248.313C250.206 248.313 249.312 248.875 248.655 250C247.998 251.118 247.667 252.761 247.661 254.927C247.655 256.377 247.8 257.596 248.096 258.585C248.398 259.573 248.824 260.319 249.374 260.822C249.925 261.319 250.579 261.567 251.336 261.567ZM261.468 264L269.201 248.695V248.57H260.225V245.818H272.61V248.632L264.886 264H261.468ZM282.933 244.966L277.073 266.734H274.259L280.118 244.966H282.933ZM284.948 264V261.621L291.26 255.433C291.864 254.823 292.367 254.282 292.769 253.808C293.172 253.335 293.473 252.876 293.675 252.432C293.876 251.988 293.977 251.515 293.977 251.012C293.977 250.438 293.846 249.946 293.586 249.538C293.326 249.124 292.967 248.804 292.512 248.579C292.056 248.354 291.538 248.242 290.958 248.242C290.36 248.242 289.837 248.366 289.387 248.615C288.937 248.857 288.588 249.204 288.339 249.653C288.096 250.103 287.975 250.639 287.975 251.26H284.841C284.841 250.106 285.105 249.103 285.631 248.251C286.158 247.398 286.883 246.739 287.806 246.271C288.736 245.803 289.801 245.57 291.002 245.57C292.222 245.57 293.293 245.797 294.216 246.253C295.14 246.709 295.856 247.333 296.365 248.126C296.88 248.92 297.137 249.825 297.137 250.843C297.137 251.524 297.007 252.192 296.746 252.849C296.486 253.506 296.027 254.234 295.37 255.033C294.719 255.832 293.805 256.8 292.627 257.936L289.493 261.124V261.248H297.412V264H284.948ZM306.796 264.249C305.612 264.249 304.553 264.027 303.618 263.583C302.683 263.133 301.94 262.517 301.39 261.736C300.845 260.955 300.555 260.061 300.52 259.055H303.716C303.775 259.801 304.097 260.41 304.683 260.884C305.269 261.351 305.973 261.585 306.796 261.585C307.441 261.585 308.015 261.437 308.518 261.141C309.022 260.845 309.418 260.434 309.708 259.907C309.998 259.381 310.14 258.78 310.134 258.105C310.14 257.419 309.995 256.809 309.699 256.276C309.403 255.744 308.998 255.326 308.483 255.025C307.968 254.717 307.376 254.563 306.707 254.563C306.163 254.557 305.627 254.658 305.1 254.865C304.574 255.072 304.156 255.344 303.849 255.681L300.875 255.193L301.825 245.818H312.371V248.57H304.55L304.026 253.391H304.133C304.47 252.994 304.947 252.666 305.562 252.406C306.178 252.139 306.852 252.006 307.586 252.006C308.687 252.006 309.67 252.266 310.534 252.787C311.398 253.302 312.078 254.012 312.576 254.918C313.073 255.824 313.321 256.859 313.321 258.025C313.321 259.227 313.043 260.298 312.487 261.239C311.936 262.174 311.17 262.911 310.188 263.45C309.211 263.982 308.08 264.249 306.796 264.249Z" fill="white"/>
<g filter="url(#filter5_d_12_495)">
<path d="M252.011 275.818V294H248.717V279.023H248.611L244.358 281.74V278.721L248.877 275.818H252.011ZM256.627 294V291.621L262.94 285.433C263.543 284.823 264.046 284.282 264.449 283.808C264.851 283.335 265.153 282.876 265.354 282.432C265.556 281.988 265.656 281.515 265.656 281.012C265.656 280.438 265.526 279.946 265.266 279.538C265.005 279.124 264.647 278.804 264.191 278.579C263.736 278.354 263.218 278.242 262.638 278.242C262.04 278.242 261.516 278.366 261.066 278.615C260.617 278.857 260.267 279.204 260.019 279.653C259.776 280.103 259.655 280.639 259.655 281.26H256.521C256.521 280.106 256.784 279.103 257.311 278.251C257.838 277.398 258.563 276.739 259.486 276.271C260.415 275.803 261.481 275.57 262.682 275.57C263.901 275.57 264.973 275.797 265.896 276.253C266.819 276.709 267.535 277.333 268.044 278.126C268.559 278.92 268.817 279.825 268.817 280.843C268.817 281.524 268.687 282.192 268.426 282.849C268.166 283.506 267.707 284.234 267.05 285.033C266.399 285.832 265.485 286.8 264.307 287.936L261.173 291.124V291.248H269.092V294H256.627ZM278.68 294.249C277.402 294.249 276.265 294.03 275.271 293.592C274.283 293.154 273.501 292.544 272.927 291.763C272.353 290.982 272.048 290.079 272.013 289.055H275.351C275.38 289.546 275.543 289.975 275.839 290.342C276.135 290.703 276.529 290.984 277.02 291.186C277.511 291.387 278.062 291.488 278.671 291.488C279.322 291.488 279.899 291.375 280.402 291.15C280.905 290.919 281.299 290.6 281.583 290.191C281.867 289.783 282.006 289.312 282 288.78C282.006 288.229 281.864 287.744 281.574 287.324C281.284 286.904 280.864 286.575 280.314 286.338C279.769 286.102 279.112 285.983 278.343 285.983H276.736V283.444H278.343C278.976 283.444 279.529 283.335 280.003 283.116C280.482 282.897 280.858 282.589 281.13 282.192C281.403 281.79 281.536 281.325 281.53 280.799C281.536 280.284 281.42 279.837 281.184 279.458C280.953 279.073 280.624 278.775 280.198 278.561C279.778 278.348 279.284 278.242 278.716 278.242C278.159 278.242 277.644 278.342 277.171 278.544C276.697 278.745 276.316 279.032 276.026 279.405C275.736 279.772 275.582 280.21 275.564 280.719H272.395C272.418 279.701 272.711 278.807 273.273 278.038C273.842 277.262 274.599 276.659 275.546 276.227C276.493 275.789 277.556 275.57 278.733 275.57C279.947 275.57 281 275.797 281.894 276.253C282.793 276.703 283.489 277.31 283.98 278.073C284.471 278.837 284.717 279.68 284.717 280.603C284.723 281.627 284.421 282.485 283.811 283.178C283.208 283.87 282.415 284.323 281.432 284.536V284.678C282.711 284.856 283.69 285.329 284.371 286.099C285.057 286.862 285.398 287.812 285.392 288.949C285.392 289.967 285.102 290.878 284.522 291.683C283.948 292.482 283.154 293.109 282.142 293.565C281.136 294.021 279.982 294.249 278.68 294.249ZM288.111 290.626V288.007L295.825 275.818H298.009V279.547H296.678L291.484 287.777V287.919H302.253V290.626H288.111ZM296.784 294V289.827L296.82 288.656V275.818H299.927V294H296.784ZM317.612 294.249C316.428 294.249 315.368 294.027 314.433 293.583C313.498 293.133 312.755 292.517 312.205 291.736C311.66 290.955 311.37 290.061 311.335 289.055H314.531C314.59 289.801 314.913 290.41 315.499 290.884C316.085 291.351 316.789 291.585 317.612 291.585C318.257 291.585 318.831 291.437 319.334 291.141C319.837 290.845 320.234 290.434 320.524 289.907C320.814 289.381 320.956 288.78 320.95 288.105C320.956 287.419 320.811 286.809 320.515 286.276C320.219 285.744 319.813 285.326 319.298 285.025C318.783 284.717 318.192 284.563 317.523 284.563C316.978 284.557 316.443 284.658 315.916 284.865C315.389 285.072 314.972 285.344 314.664 285.681L311.69 285.193L312.64 275.818H323.187V278.57H315.366L314.842 283.391H314.948C315.286 282.994 315.762 282.666 316.378 282.406C316.993 282.139 317.668 282.006 318.402 282.006C319.503 282.006 320.485 282.266 321.349 282.787C322.213 283.302 322.894 284.012 323.391 284.918C323.888 285.824 324.137 286.859 324.137 288.025C324.137 289.227 323.859 290.298 323.302 291.239C322.752 292.174 321.985 292.911 321.003 293.45C320.026 293.982 318.896 294.249 317.612 294.249ZM333.769 294.249C332.899 294.243 332.05 294.092 331.221 293.796C330.393 293.494 329.647 293.006 328.984 292.331C328.321 291.65 327.794 290.748 327.404 289.623C327.013 288.493 326.821 287.093 326.827 285.424C326.827 283.867 326.993 282.48 327.324 281.26C327.655 280.041 328.132 279.011 328.753 278.171C329.375 277.324 330.123 276.679 330.999 276.235C331.881 275.792 332.867 275.57 333.956 275.57C335.098 275.57 336.11 275.795 336.992 276.244C337.88 276.694 338.596 277.31 339.14 278.091C339.685 278.866 340.022 279.742 340.152 280.719H336.912C336.746 280.02 336.406 279.464 335.891 279.05C335.382 278.629 334.737 278.419 333.956 278.419C332.695 278.419 331.724 278.967 331.044 280.062C330.369 281.157 330.029 282.66 330.023 284.572H330.147C330.437 284.051 330.813 283.604 331.275 283.231C331.736 282.858 332.257 282.571 332.837 282.37C333.423 282.163 334.042 282.059 334.693 282.059C335.758 282.059 336.714 282.314 337.56 282.823C338.412 283.332 339.087 284.033 339.584 284.927C340.081 285.815 340.327 286.833 340.321 287.981C340.327 289.176 340.055 290.251 339.504 291.203C338.954 292.15 338.187 292.896 337.205 293.441C336.223 293.985 335.077 294.254 333.769 294.249ZM333.752 291.585C334.397 291.585 334.974 291.428 335.483 291.115C335.992 290.801 336.394 290.378 336.69 289.845C336.986 289.312 337.131 288.715 337.125 288.052C337.131 287.401 336.989 286.812 336.699 286.285C336.415 285.758 336.021 285.341 335.518 285.033C335.015 284.726 334.441 284.572 333.796 284.572C333.316 284.572 332.87 284.663 332.455 284.847C332.041 285.03 331.68 285.285 331.372 285.61C331.064 285.93 330.822 286.303 330.644 286.729C330.473 287.149 330.384 287.599 330.378 288.078C330.384 288.712 330.532 289.295 330.822 289.827C331.112 290.36 331.511 290.786 332.02 291.106C332.529 291.425 333.106 291.585 333.752 291.585ZM343.988 294L351.72 278.695V278.57H342.745V275.818H355.129V278.632L347.406 294H343.988ZM364.092 294.249C362.772 294.249 361.6 294.027 360.576 293.583C359.558 293.139 358.759 292.532 358.179 291.763C357.605 290.987 357.321 290.109 357.327 289.126C357.321 288.363 357.486 287.661 357.824 287.022C358.161 286.383 358.617 285.85 359.191 285.424C359.771 284.992 360.416 284.717 361.126 284.598V284.474C360.191 284.267 359.434 283.79 358.854 283.045C358.28 282.293 357.995 281.426 358.001 280.444C357.995 279.508 358.256 278.674 358.783 277.94C359.309 277.206 360.031 276.629 360.949 276.209C361.866 275.783 362.914 275.57 364.092 275.57C365.257 275.57 366.296 275.783 367.208 276.209C368.125 276.629 368.847 277.206 369.374 277.94C369.907 278.674 370.173 279.508 370.173 280.444C370.173 281.426 369.88 282.293 369.294 283.045C368.714 283.79 367.965 284.267 367.048 284.474V284.598C367.758 284.717 368.397 284.992 368.965 285.424C369.54 285.85 369.995 286.383 370.333 287.022C370.676 287.661 370.848 288.363 370.848 289.126C370.848 290.109 370.558 290.987 369.978 291.763C369.398 292.532 368.599 293.139 367.581 293.583C366.568 294.027 365.405 294.249 364.092 294.249ZM364.092 291.71C364.772 291.71 365.364 291.594 365.867 291.363C366.37 291.127 366.761 290.795 367.039 290.369C367.317 289.943 367.459 289.452 367.465 288.895C367.459 288.315 367.308 287.803 367.012 287.359C366.722 286.91 366.323 286.557 365.814 286.303C365.311 286.048 364.737 285.921 364.092 285.921C363.44 285.921 362.86 286.048 362.351 286.303C361.842 286.557 361.44 286.91 361.144 287.359C360.854 287.803 360.712 288.315 360.718 288.895C360.712 289.452 360.848 289.943 361.126 290.369C361.405 290.789 361.795 291.118 362.298 291.354C362.807 291.591 363.405 291.71 364.092 291.71ZM364.092 283.426C364.648 283.426 365.139 283.314 365.565 283.089C365.997 282.864 366.338 282.551 366.586 282.148C366.835 281.746 366.962 281.281 366.968 280.754C366.962 280.233 366.838 279.778 366.595 279.387C366.352 278.991 366.015 278.686 365.583 278.473C365.151 278.254 364.654 278.144 364.092 278.144C363.517 278.144 363.011 278.254 362.573 278.473C362.141 278.686 361.804 278.991 361.561 279.387C361.325 279.778 361.209 280.233 361.215 280.754C361.209 281.281 361.328 281.746 361.57 282.148C361.819 282.545 362.159 282.858 362.591 283.089C363.029 283.314 363.529 283.426 364.092 283.426ZM386.279 275.57C387.15 275.576 387.996 275.729 388.819 276.031C389.647 276.327 390.393 276.812 391.056 277.487C391.719 278.156 392.245 279.053 392.636 280.177C393.027 281.302 393.222 282.693 393.222 284.35C393.228 285.912 393.062 287.309 392.725 288.54C392.393 289.765 391.917 290.801 391.295 291.647C390.674 292.494 389.925 293.139 389.049 293.583C388.173 294.027 387.188 294.249 386.093 294.249C384.945 294.249 383.927 294.024 383.039 293.574C382.157 293.124 381.444 292.509 380.9 291.727C380.355 290.946 380.021 290.052 379.896 289.046H383.137C383.302 289.768 383.64 290.342 384.149 290.768C384.664 291.189 385.312 291.399 386.093 291.399C387.354 291.399 388.324 290.851 389.005 289.756C389.686 288.661 390.026 287.14 390.026 285.193H389.902C389.612 285.714 389.236 286.164 388.774 286.543C388.313 286.915 387.789 287.203 387.203 287.404C386.623 287.605 386.007 287.706 385.356 287.706C384.291 287.706 383.332 287.451 382.48 286.942C381.633 286.433 380.962 285.735 380.464 284.847C379.973 283.959 379.725 282.944 379.719 281.802C379.719 280.618 379.991 279.556 380.536 278.615C381.086 277.668 381.852 276.922 382.835 276.377C383.817 275.827 384.966 275.558 386.279 275.57ZM386.288 278.233C385.649 278.233 385.072 278.39 384.557 278.703C384.048 279.011 383.646 279.431 383.35 279.964C383.06 280.491 382.915 281.08 382.915 281.731C382.921 282.376 383.066 282.962 383.35 283.489C383.64 284.015 384.033 284.433 384.531 284.74C385.034 285.048 385.608 285.202 386.253 285.202C386.732 285.202 387.179 285.11 387.593 284.927C388.008 284.743 388.369 284.489 388.676 284.163C388.99 283.832 389.233 283.456 389.404 283.036C389.582 282.616 389.668 282.172 389.662 281.704C389.662 281.083 389.514 280.509 389.218 279.982C388.928 279.455 388.529 279.032 388.02 278.712C387.516 278.393 386.939 278.233 386.288 278.233ZM403.574 275.818V294H400.28V279.023H400.173L395.921 281.74V278.721L400.44 275.818H403.574ZM408.19 294V291.621L414.502 285.433C415.106 284.823 415.609 284.282 416.011 283.808C416.414 283.335 416.716 282.876 416.917 282.432C417.118 281.988 417.219 281.515 417.219 281.012C417.219 280.438 417.089 279.946 416.828 279.538C416.568 279.124 416.21 278.804 415.754 278.579C415.298 278.354 414.78 278.242 414.2 278.242C413.603 278.242 413.079 278.366 412.629 278.615C412.179 278.857 411.83 279.204 411.581 279.653C411.339 280.103 411.217 280.639 411.217 281.26H408.083C408.083 280.106 408.347 279.103 408.874 278.251C409.4 277.398 410.125 276.739 411.049 276.271C411.978 275.803 413.043 275.57 414.245 275.57C415.464 275.57 416.535 275.797 417.458 276.253C418.382 276.709 419.098 277.333 419.607 278.126C420.122 278.92 420.379 279.825 420.379 280.843C420.379 281.524 420.249 282.192 419.989 282.849C419.728 283.506 419.27 284.234 418.613 285.033C417.962 285.832 417.047 286.8 415.869 287.936L412.735 291.124V291.248H420.654V294H408.19ZM430.243 294.249C428.964 294.249 427.828 294.03 426.833 293.592C425.845 293.154 425.064 292.544 424.49 291.763C423.916 290.982 423.611 290.079 423.575 289.055H426.913C426.943 289.546 427.106 289.975 427.402 290.342C427.698 290.703 428.091 290.984 428.582 291.186C429.074 291.387 429.624 291.488 430.234 291.488C430.885 291.488 431.462 291.375 431.965 291.15C432.468 290.919 432.862 290.6 433.146 290.191C433.43 289.783 433.569 289.312 433.563 288.78C433.569 288.229 433.427 287.744 433.137 287.324C432.847 286.904 432.426 286.575 431.876 286.338C431.332 286.102 430.675 285.983 429.905 285.983H428.298V283.444H429.905C430.538 283.444 431.092 283.335 431.565 283.116C432.045 282.897 432.421 282.589 432.693 282.192C432.965 281.79 433.098 281.325 433.092 280.799C433.098 280.284 432.983 279.837 432.746 279.458C432.515 279.073 432.187 278.775 431.761 278.561C431.34 278.348 430.846 278.242 430.278 278.242C429.722 278.242 429.207 278.342 428.733 278.544C428.26 278.745 427.878 279.032 427.588 279.405C427.298 279.772 427.144 280.21 427.126 280.719H423.957C423.981 279.701 424.274 278.807 424.836 278.038C425.404 277.262 426.162 276.659 427.109 276.227C428.056 275.789 429.118 275.57 430.296 275.57C431.509 275.57 432.563 275.797 433.456 276.253C434.356 276.703 435.051 277.31 435.543 278.073C436.034 278.837 436.279 279.68 436.279 280.603C436.285 281.627 435.984 282.485 435.374 283.178C434.77 283.87 433.977 284.323 432.995 284.536V284.678C434.273 284.856 435.253 285.329 435.933 286.099C436.62 286.862 436.96 287.812 436.954 288.949C436.954 289.967 436.664 290.878 436.084 291.683C435.51 292.482 434.717 293.109 433.705 293.565C432.699 294.021 431.545 294.249 430.243 294.249ZM445.874 290.626V288.007L453.589 275.818H455.773V279.547H454.441L449.248 287.777V287.919H460.017V290.626H445.874ZM454.548 294V289.827L454.583 288.656V275.818H457.691V294H454.548ZM469.174 294.249C467.99 294.249 466.931 294.027 465.996 293.583C465.061 293.133 464.318 292.517 463.767 291.736C463.223 290.955 462.933 290.061 462.897 289.055H466.093C466.153 289.801 466.475 290.41 467.061 290.884C467.647 291.351 468.351 291.585 469.174 291.585C469.819 291.585 470.393 291.437 470.896 291.141C471.399 290.845 471.796 290.434 472.086 289.907C472.376 289.381 472.518 288.78 472.512 288.105C472.518 287.419 472.373 286.809 472.077 286.276C471.781 285.744 471.376 285.326 470.861 285.025C470.346 284.717 469.754 284.563 469.085 284.563C468.541 284.557 468.005 284.658 467.478 284.865C466.952 285.072 466.534 285.344 466.227 285.681L463.253 285.193L464.203 275.818H474.749V278.57H466.928L466.404 283.391H466.511C466.848 282.994 467.325 282.666 467.94 282.406C468.556 282.139 469.23 282.006 469.964 282.006C471.065 282.006 472.048 282.266 472.912 282.787C473.776 283.302 474.456 284.012 474.954 284.918C475.451 285.824 475.699 286.859 475.699 288.025C475.699 289.227 475.421 290.298 474.865 291.239C474.314 292.174 473.548 292.911 472.565 293.45C471.589 293.982 470.458 294.249 469.174 294.249ZM485.332 294.249C484.462 294.243 483.612 294.092 482.784 293.796C481.955 293.494 481.209 293.006 480.547 292.331C479.884 291.65 479.357 290.748 478.966 289.623C478.576 288.493 478.383 287.093 478.389 285.424C478.389 283.867 478.555 282.48 478.886 281.26C479.218 280.041 479.694 279.011 480.316 278.171C480.937 277.324 481.686 276.679 482.562 276.235C483.444 275.792 484.429 275.57 485.518 275.57C486.66 275.57 487.673 275.795 488.554 276.244C489.442 276.694 490.158 277.31 490.703 278.091C491.247 278.866 491.585 279.742 491.715 280.719H488.475C488.309 280.02 487.968 279.464 487.454 279.05C486.945 278.629 486.299 278.419 485.518 278.419C484.258 278.419 483.287 278.967 482.606 280.062C481.932 281.157 481.591 282.66 481.585 284.572H481.71C482 284.051 482.375 283.604 482.837 283.231C483.299 282.858 483.82 282.571 484.4 282.37C484.986 282.163 485.604 282.059 486.255 282.059C487.32 282.059 488.276 282.314 489.123 282.823C489.975 283.332 490.65 284.033 491.147 284.927C491.644 285.815 491.89 286.833 491.884 287.981C491.89 289.176 491.617 290.251 491.067 291.203C490.516 292.15 489.75 292.896 488.767 293.441C487.785 293.985 486.64 294.254 485.332 294.249ZM485.314 291.585C485.959 291.585 486.536 291.428 487.045 291.115C487.554 290.801 487.957 290.378 488.253 289.845C488.549 289.312 488.694 288.715 488.688 288.052C488.694 287.401 488.551 286.812 488.261 286.285C487.977 285.758 487.584 285.341 487.081 285.033C486.578 284.726 486.004 284.572 485.358 284.572C484.879 284.572 484.432 284.663 484.018 284.847C483.604 285.03 483.243 285.285 482.935 285.61C482.627 285.93 482.384 286.303 482.207 286.729C482.035 287.149 481.946 287.599 481.94 288.078C481.946 288.712 482.094 289.295 482.384 289.827C482.674 290.36 483.074 290.786 483.583 291.106C484.092 291.425 484.669 291.585 485.314 291.585ZM495.55 294L503.283 278.695V278.57H494.307V275.818H506.692V278.632L498.968 294H495.55Z" fill="white"/>
</g>
<path opacity="0.5" d="M689.62 298.044C684.006 298.045 678.518 296.387 673.849 293.281C669.181 290.176 665.542 285.761 663.393 280.595C661.244 275.429 660.681 269.745 661.775 264.26C662.87 258.776 665.572 253.738 669.541 249.784C673.511 245.829 678.568 243.136 684.074 242.044C689.58 240.952 695.287 241.511 700.474 243.65C705.661 245.79 710.094 249.413 713.214 254.061C716.334 258.71 717.999 264.176 718 269.768V269.772C717.992 277.267 715 284.453 709.679 289.753C704.359 295.053 697.145 298.035 689.62 298.044V298.044Z" fill="white" fill-opacity="0.7"/>
<path d="M661.385 298.5C655.771 298.5 650.283 296.842 645.615 293.735C640.947 290.629 637.309 286.213 635.161 281.047C633.012 275.881 632.45 270.197 633.545 264.713C634.641 259.228 637.344 254.191 641.314 250.237C645.283 246.283 650.341 243.59 655.847 242.499C661.353 241.409 667.06 241.968 672.247 244.108C677.434 246.248 681.867 249.872 684.986 254.521C688.105 259.17 689.769 264.636 689.769 270.228C689.761 277.724 686.768 284.91 681.447 290.211C676.125 295.511 668.91 298.492 661.385 298.5Z" fill="white" fill-opacity="0.7"/>
<rect x="210" y="2" width="541" height="326" rx="38" stroke="white" stroke-opacity="0.5" stroke-width="4"/>
</g>
<defs>
<filter id="filter0_b_12_495" x="58" y="273" width="845" height="630" filterUnits="userSpaceOnUse" color-interpolation-filters="sRGB">
<feFlood flood-opacity="0" result="BackgroundImageFix"/>
<feGaussianBlur in="BackgroundImageFix" stdDeviation="75"/>
<feComposite in2="SourceAlpha" operator="in" result="effect1_backgroundBlur_12_495"/>
<feBlend mode="normal" in="SourceGraphic" in2="effect1_backgroundBlur_12_495" result="shape"/>
</filter>
<filter id="filter1_d_12_495" x="217.129" y="671.322" width="316.793" height="73.1652" filterUnits="userSpaceOnUse" color-interpolation-filters="sRGB">
<feFlood flood-opacity="0" result="BackgroundImageFix"/>
<feColorMatrix in="SourceAlpha" type="matrix" values="0 0 0 0 0 0 0 0 0 0 0 0 0 0 0 0 0 0 127 0" result="hardAlpha"/>
<feOffset/>
<feGaussianBlur stdDeviation="13.6149"/>
<feColorMatrix type="matrix" values="0 0 0 0 1 0 0 0 0 0.370833 0 0 0 0 0.370833 0 0 0 0.1 0"/>
<feBlend mode="normal" in2="BackgroundImageFix" result="effect1_dropShadow_12_495"/>
<feBlend mode="normal" in="SourceGraphic" in2="effect1_dropShadow_12_495" result="shape"/>
</filter>
<filter id="filter2_b_12_495" x="-149" y="62" width="845" height="630" filterUnits="userSpaceOnUse" color-interpolation-filters="sRGB">
<feFlood flood-opacity="0" result="BackgroundImageFix"/>
<feGaussianBlur in="BackgroundImageFix" stdDeviation="75"/>
<feComposite in2="SourceAlpha" operator="in" result="effect1_backgroundBlur_12_495"/>
<feBlend mode="normal" in="SourceGraphic" in2="effect1_backgroundBlur_12_495" result="shape"/>
</filter>
<filter id="filter3_d_12_495" x="10.1285" y="460.322" width="316.793" height="73.1652" filterUnits="userSpaceOnUse" color-interpolation-filters="sRGB">
<feFlood flood-opacity="0" result="BackgroundImageFix"/>
<feColorMatrix in="SourceAlpha" type="matrix" values="0 0 0 0 0 0 0 0 0 0 0 0 0 0 0 0 0 0 127 0" result="hardAlpha"/>
<feOffset/>
<feGaussianBlur stdDeviation="13.6149"/>
<feColorMatrix type="matrix" values="0 0 0 0 1 0 0 0 0 0.370833 0 0 0 0 0.370833 0 0 0 0.1 0"/>
<feBlend mode="normal" in2="BackgroundImageFix" result="effect1_dropShadow_12_495"/>
<feBlend mode="normal" in="SourceGraphic" in2="effect1_dropShadow_12_495" result="shape"/>
</filter>
<filter id="filter4_b_12_495" x="58" y="-150" width="845" height="630" filterUnits="userSpaceOnUse" color-interpolation-filters="sRGB">
<feFlood flood-opacity="0" result="BackgroundImageFix"/>
<feGaussianBlur in="BackgroundImageFix" stdDeviation="75"/>
<feComposite in2="SourceAlpha" operator="in" result="effect1_backgroundBlur_12_495"/>
<feBlend mode="normal" in="SourceGraphic" in2="effect1_backgroundBlur_12_495" result="shape"/>
</filter>
<filter id="filter5_d_12_495" x="217.129" y="248.322" width="316.793" height="73.1652" filterUnits="userSpaceOnUse" color-interpolation-filters="sRGB">
<feFlood flood-opacity="0" result="BackgroundImageFix"/>
<feColorMatrix in="SourceAlpha" type="matrix" values="0 0 0 0 0 0 0 0 0 0 0 0 0 0 0 0 0 0 127 0" result="hardAlpha"/>
<feOffset/>
<feGaussianBlur stdDeviation="13.6149"/>
<feColorMatrix type="matrix" values="0 0 0 0 1 0 0 0 0 0.370833 0 0 0 0 0.370833 0 0 0 0.1 0"/>
<feBlend mode="normal" in2="BackgroundImageFix" result="effect1_dropShadow_12_495"/>
<feBlend mode="normal" in="SourceGraphic" in2="effect1_dropShadow_12_495" result="shape"/>
</filter>
<linearGradient id="paint0_linear_12_495" x1="303.695" y1="451.261" x2="240.816" y2="474.407" gradientUnits="userSpaceOnUse">
<stop stop-color="white" stop-opacity="0.5"/>
<stop offset="0.390625" stop-color="white"/>
<stop offset="1" stop-color="white" stop-opacity="0.5"/>
</linearGradient>
<linearGradient id="paint1_linear_12_495" x1="96.6954" y1="240.261" x2="33.8157" y2="263.407" gradientUnits="userSpaceOnUse">
<stop stop-color="white" stop-opacity="0.5"/>
<stop offset="0.390625" stop-color="white"/>
<stop offset="1" stop-color="white" stop-opacity="0.5"/>
</linearGradient>
<linearGradient id="paint2_linear_12_495" x1="303.695" y1="28.2612" x2="240.816" y2="51.4072" gradientUnits="userSpaceOnUse">
<stop stop-color="white" stop-opacity="0.5"/>
<stop offset="0.390625" stop-color="white"/>
<stop offset="1" stop-color="white" stop-opacity="0.5"/>
</linearGradient>
</defs>
</svg>
