<svg width="314" height="74" viewBox="0 0 314 74" fill="none" xmlns="http://www.w3.org/2000/svg">
<path d="M157.652 40.4853C151.277 40.4853 146.081 45.3481 146.081 52.0521C146.081 58.7126 151.277 63.6189 157.652 63.6189C164.027 63.6189 169.223 58.7126 169.223 52.0521C169.223 45.3481 164.027 40.4853 157.652 40.4853ZM157.652 59.0635C154.159 59.0635 151.144 56.1724 151.144 52.0521C151.144 47.8883 154.159 45.0408 157.652 45.0408C161.146 45.0408 164.157 47.8883 164.157 52.0521C164.157 56.1697 161.146 59.0635 157.652 59.0635ZM132.407 40.4853C126.032 40.4853 120.836 45.3481 120.836 52.0521C120.836 58.7126 126.032 63.6189 132.407 63.6189C138.782 63.6189 143.978 58.7126 143.978 52.0521C143.981 45.3481 138.782 40.4853 132.407 40.4853ZM132.407 59.0635C128.913 59.0635 125.902 56.1724 125.902 52.0521C125.902 47.8883 128.916 45.0408 132.407 45.0408C135.901 45.0408 138.912 47.8883 138.912 52.0521C138.915 56.1697 135.901 59.0635 132.407 59.0635ZM102.381 48.9408H114.084C113.735 51.7013 112.818 53.7166 111.42 55.1199C109.718 56.8279 107.053 58.7126 102.381 58.7126C95.1761 58.7126 89.5437 52.8843 89.5437 45.6554C89.5437 38.4265 95.1761 32.5982 102.381 32.5982C106.267 32.5982 109.105 34.1321 111.2 36.1039L114.651 32.6417C111.726 29.8377 107.839 27.6892 102.381 27.6892C92.5117 27.6892 84.215 35.7503 84.215 45.6527C84.215 55.5551 92.5117 63.6162 102.381 63.6162C107.707 63.6162 111.726 61.8647 114.87 58.5766C118.101 55.3348 119.107 50.7766 119.107 47.0968C119.107 45.9573 119.02 44.9048 118.844 44.029H102.381V48.9408ZM225.186 47.8448C224.227 45.2583 221.299 40.4826 215.317 40.4826C209.379 40.4826 204.446 45.1713 204.446 52.0494C204.446 58.5331 209.335 63.6162 215.887 63.6162C221.169 63.6162 224.227 60.3744 225.493 58.4896L221.562 55.8597C220.253 57.7879 218.462 59.058 215.887 59.058C213.309 59.058 211.477 57.875 210.298 55.5524L225.712 49.1556L225.186 47.8448ZM209.466 51.7013C209.335 47.2328 212.916 44.9537 215.491 44.9537C217.499 44.9537 219.202 45.96 219.771 47.4069L209.466 51.7013ZM196.932 62.9173H201.998V28.9185H196.932V62.9173ZM188.636 43.069H188.462C187.326 41.7119 185.145 40.4826 182.393 40.4826C176.628 40.4826 171.346 45.5657 171.346 52.0929C171.346 58.5766 176.628 63.6162 182.393 63.6162C185.145 63.6162 187.326 62.3897 188.462 60.9863H188.636V62.6507C188.636 67.0757 186.277 69.4418 182.477 69.4418C179.377 69.4418 177.455 67.2062 176.669 65.3242L172.259 67.1654C173.525 70.2332 176.888 74 182.477 74C188.416 74 193.439 70.4943 193.439 61.9518V41.1842H188.636V43.069ZM182.83 59.0635C179.336 59.0635 176.411 56.1289 176.411 52.0956C176.411 48.0215 179.336 45.0408 182.83 45.0408C186.28 45.0408 188.985 48.0188 188.985 52.0956C188.985 56.1262 186.28 59.0635 182.83 59.0635ZM248.914 28.9185H236.795V62.9173H241.85V50.0368H248.911C254.516 50.0368 260.027 45.9655 260.027 39.479C260.027 32.9925 254.519 28.9185 248.914 28.9185ZM249.044 45.3046H241.85V33.6507H249.044C252.825 33.6507 254.972 36.7919 254.972 39.479C254.972 42.1117 252.825 45.3046 249.044 45.3046ZM280.301 40.4227C276.639 40.4227 272.847 42.0409 271.278 45.6282L275.769 47.5102C276.728 45.6282 278.515 45.0163 280.39 45.0163C283.006 45.0163 285.665 46.591 285.708 49.3895V49.7404C284.792 49.2155 282.83 48.4268 280.434 48.4268C275.595 48.4268 270.668 51.0948 270.668 56.0827C270.668 60.6327 274.636 63.5618 279.081 63.5618C282.483 63.5618 284.356 62.0306 285.532 60.2384H285.705V62.8629H290.587V49.8274C290.587 43.7897 286.098 40.4227 280.301 40.4227ZM279.688 59.0553C278.032 59.0553 275.72 58.2231 275.72 56.1697C275.72 53.5452 278.599 52.5389 281.081 52.5389C283.304 52.5389 284.35 53.0203 285.703 53.6758C285.312 56.8252 282.61 59.0553 279.688 59.0553ZM308.373 41.1652L302.575 55.9059H302.402L296.387 41.1652H290.939L299.963 61.7668L294.818 73.2276H300.093L314 41.1652H308.373ZM262.818 62.9173H267.876V28.9185H262.818V62.9173Z" fill="white"/>
<path d="M101.38 7.95509H93.4983V9.91598H99.4044C99.2445 11.5097 98.6075 12.7635 97.5423 13.6746C96.4744 14.5857 95.111 15.0426 93.4983 15.0426C91.7257 15.0426 90.2268 14.4279 89.0016 13.1959C87.7982 11.9422 87.1829 10.3946 87.1829 8.5235C87.1829 6.65508 87.7982 5.10485 89.0016 3.85108C90.2268 2.62178 91.7257 2.00713 93.4983 2.00713C94.4063 2.00713 95.2709 2.16487 96.0651 2.50755C96.8593 2.85023 97.4962 3.3289 97.995 3.94355L99.4939 2.43956C98.8135 1.66445 97.9489 1.07156 96.8837 0.639126C95.8157 0.206695 94.7017 0 93.4983 0C91.1348 0 89.1372 0.821345 87.5028 2.46132C85.8656 4.10401 85.0498 6.13018 85.0498 8.5235C85.0498 10.9168 85.8656 12.9457 87.5028 14.5857C89.1372 16.2284 91.1348 17.047 93.4983 17.047C95.973 17.047 97.9489 16.2501 99.4722 14.6319C100.811 13.2884 101.494 11.4635 101.494 9.18439C101.494 8.79819 101.448 8.38752 101.38 7.95509Z" fill="white"/>
<path d="M104.492 0.364445V16.6826H113.987V14.6782H106.582V9.50532H113.258V7.54442H106.582V2.37158H113.987V0.364445H104.492Z" fill="white"/>
<path d="M127.338 2.37158V0.364445H116.163V2.37158H120.706V16.6826H122.796V2.37158H127.338Z" fill="white"/>
<path d="M137.516 0.364445H135.426V16.6826H137.516V0.364445Z" fill="white"/>
<path d="M151.326 2.37158V0.364445H140.151V2.37158H144.693V16.6826H146.783V2.37158H151.326Z" fill="white"/>
<path d="M172.473 2.48579C170.86 0.821345 168.884 0 166.521 0C164.16 0 162.181 0.821345 160.569 2.46132C158.956 4.07953 158.162 6.10842 158.162 8.5235C158.162 10.9413 158.956 12.9675 160.569 14.5857C162.181 16.2284 164.16 17.047 166.521 17.047C168.86 17.047 170.86 16.2284 172.473 14.5857C174.086 12.9675 174.88 10.9413 174.88 8.5235C174.88 6.13018 174.086 4.10401 172.473 2.48579ZM162.07 3.85108C163.274 2.62178 164.748 2.00713 166.521 2.00713C168.294 2.00713 169.768 2.62178 170.95 3.85108C172.153 5.06134 172.744 6.63332 172.744 8.5235C172.744 10.4164 172.153 11.9884 170.95 13.1959C169.768 14.4279 168.294 15.0426 166.521 15.0426C164.748 15.0426 163.274 14.4279 162.07 13.1959C160.889 11.9666 160.298 10.4164 160.298 8.5235C160.298 6.63332 160.889 5.0831 162.07 3.85108Z" fill="white"/>
<path d="M179.9 6.5191L179.81 3.37242H179.9L188.169 16.6826H190.349V0.364445H188.259V9.91599L188.351 13.06H188.259L180.355 0.364445H177.813V16.6826H179.9V6.5191Z" fill="white"/>
<path d="M29.123 34.1548L0.264694 64.8873C0.267404 64.8927 0.267404 64.8982 0.270114 64.9036C1.15373 68.2434 4.19216 70.6992 7.79708 70.6992C9.23904 70.6992 10.5916 70.3076 11.7516 69.6222L11.8438 69.5679L44.326 50.7612L29.123 34.1548Z" fill="#EB4335"/>
<path d="M58.3208 28.9224L58.2937 28.9033L44.2698 20.7443L28.4705 34.8513L44.324 50.756L58.2747 42.6813C60.7196 41.3568 62.3784 38.7704 62.3784 35.7869C62.3784 32.8251 60.7413 30.2496 58.3208 28.9224Z" fill="#FABC13"/>
<path d="M0.265624 6.55819C0.0921546 7.20004 0 7.8718 0 8.57076V62.8748C0 63.5737 0.0885136 64.2481 0.264694 64.8873L30.116 34.9409L0.265624 6.55819Z" fill="#547DBF"/>
<path d="M29.3344 35.7215L44.2718 20.7387L11.8248 1.86411C10.6458 1.15427 9.27157 0.746321 7.79708 0.746321C4.19216 0.746321 1.15102 3.20764 0.264694 6.55013L0.265624 6.55819L29.3344 35.7215Z" fill="#30A851"/>
</svg>
