<svg width="364" height="114" viewBox="0 0 364 114" fill="none" xmlns="http://www.w3.org/2000/svg">
<rect x="2" y="2" width="360" height="110" rx="18" fill="black"/>
<path d="M182.652 60.4853C176.277 60.4853 171.081 65.3481 171.081 72.0521C171.081 78.7126 176.277 83.6189 182.652 83.6189C189.027 83.6189 194.223 78.7126 194.223 72.0521C194.223 65.3481 189.027 60.4853 182.652 60.4853ZM182.652 79.0635C179.159 79.0635 176.144 76.1724 176.144 72.0521C176.144 67.8883 179.159 65.0408 182.652 65.0408C186.146 65.0408 189.157 67.8883 189.157 72.0521C189.157 76.1697 186.146 79.0635 182.652 79.0635ZM157.407 60.4853C151.032 60.4853 145.836 65.3481 145.836 72.0521C145.836 78.7126 151.032 83.6189 157.407 83.6189C163.782 83.6189 168.978 78.7126 168.978 72.0521C168.981 65.3481 163.782 60.4853 157.407 60.4853ZM157.407 79.0635C153.913 79.0635 150.902 76.1724 150.902 72.0521C150.902 67.8883 153.916 65.0408 157.407 65.0408C160.901 65.0408 163.912 67.8883 163.912 72.0521C163.915 76.1697 160.901 79.0635 157.407 79.0635ZM127.381 68.9408H139.084C138.735 71.7013 137.818 73.7166 136.42 75.1199C134.718 76.8279 132.053 78.7126 127.381 78.7126C120.176 78.7126 114.544 72.8843 114.544 65.6554C114.544 58.4265 120.176 52.5982 127.381 52.5982C131.267 52.5982 134.105 54.1321 136.2 56.1039L139.651 52.6417C136.726 49.8377 132.839 47.6892 127.381 47.6892C117.512 47.6892 109.215 55.7503 109.215 65.6527C109.215 75.5551 117.512 83.6162 127.381 83.6162C132.707 83.6162 136.726 81.8647 139.87 78.5766C143.101 75.3348 144.107 70.7766 144.107 67.0968C144.107 65.9573 144.02 64.9048 143.844 64.029H127.381V68.9408ZM250.186 67.8448C249.227 65.2583 246.299 60.4826 240.317 60.4826C234.379 60.4826 229.446 65.1713 229.446 72.0494C229.446 78.5331 234.335 83.6162 240.887 83.6162C246.169 83.6162 249.227 80.3744 250.493 78.4896L246.562 75.8597C245.253 77.7879 243.462 79.058 240.887 79.058C238.309 79.058 236.477 77.875 235.298 75.5524L250.712 69.1556L250.186 67.8448ZM234.466 71.7013C234.335 67.2328 237.916 64.9537 240.491 64.9537C242.499 64.9537 244.202 65.96 244.771 67.4069L234.466 71.7013ZM221.932 82.9173H226.998V48.9185H221.932V82.9173ZM213.636 63.069H213.462C212.326 61.7119 210.145 60.4826 207.393 60.4826C201.628 60.4826 196.346 65.5657 196.346 72.0929C196.346 78.5766 201.628 83.6162 207.393 83.6162C210.145 83.6162 212.326 82.3897 213.462 80.9863H213.636V82.6507C213.636 87.0757 211.277 89.4418 207.477 89.4418C204.377 89.4418 202.455 87.2062 201.669 85.3242L197.259 87.1654C198.525 90.2332 201.888 94 207.477 94C213.416 94 218.439 90.4943 218.439 81.9518V61.1842H213.636V63.069ZM207.83 79.0635C204.336 79.0635 201.411 76.1289 201.411 72.0956C201.411 68.0215 204.336 65.0408 207.83 65.0408C211.28 65.0408 213.985 68.0188 213.985 72.0956C213.985 76.1262 211.28 79.0635 207.83 79.0635ZM273.914 48.9185H261.795V82.9173H266.85V70.0368H273.911C279.516 70.0368 285.027 65.9655 285.027 59.479C285.027 52.9925 279.519 48.9185 273.914 48.9185ZM274.044 65.3046H266.85V53.6507H274.044C277.825 53.6507 279.972 56.7919 279.972 59.479C279.972 62.1117 277.825 65.3046 274.044 65.3046ZM305.301 60.4227C301.639 60.4227 297.847 62.0409 296.278 65.6282L300.769 67.5102C301.728 65.6282 303.515 65.0163 305.39 65.0163C308.006 65.0163 310.665 66.591 310.708 69.3895V69.7404C309.792 69.2155 307.83 68.4268 305.434 68.4268C300.595 68.4268 295.668 71.0948 295.668 76.0827C295.668 80.6327 299.636 83.5618 304.081 83.5618C307.483 83.5618 309.356 82.0306 310.532 80.2384H310.705V82.8629H315.587V69.8274C315.587 63.7897 311.098 60.4227 305.301 60.4227ZM304.688 79.0553C303.032 79.0553 300.72 78.2231 300.72 76.1697C300.72 73.5452 303.599 72.5389 306.081 72.5389C308.304 72.5389 309.35 73.0203 310.703 73.6758C310.312 76.8252 307.61 79.0553 304.688 79.0553ZM333.373 61.1652L327.575 75.9059H327.402L321.387 61.1652H315.939L324.962 81.7668L319.818 93.2276H325.093L339 61.1652H333.373ZM287.818 82.9173H292.876V48.9185H287.818V82.9173Z" fill="white"/>
<path d="M126.38 27.9551H118.498V29.916H124.404C124.244 31.5097 123.608 32.7635 122.542 33.6746C121.474 34.5857 120.111 35.0426 118.498 35.0426C116.726 35.0426 115.227 34.4279 114.002 33.1959C112.798 31.9422 112.183 30.3946 112.183 28.5235C112.183 26.6551 112.798 25.1049 114.002 23.8511C115.227 22.6218 116.726 22.0071 118.498 22.0071C119.406 22.0071 120.271 22.1649 121.065 22.5076C121.859 22.8502 122.496 23.3289 122.995 23.9435L124.494 22.4396C123.814 21.6644 122.949 21.0716 121.884 20.6391C120.816 20.2067 119.702 20 118.498 20C116.135 20 114.137 20.8213 112.503 22.4613C110.866 24.104 110.05 26.1302 110.05 28.5235C110.05 30.9168 110.866 32.9457 112.503 34.5857C114.137 36.2284 116.135 37.047 118.498 37.047C120.973 37.047 122.949 36.2501 124.472 34.6319C125.811 33.2884 126.494 31.4635 126.494 29.1844C126.494 28.7982 126.448 28.3875 126.38 27.9551Z" fill="white"/>
<path d="M129.492 20.3644V36.6826H138.987V34.6782H131.582V29.5053H138.258V27.5444H131.582V22.3716H138.987V20.3644H129.492Z" fill="white"/>
<path d="M152.338 22.3716V20.3644H141.163V22.3716H145.706V36.6826H147.796V22.3716H152.338Z" fill="white"/>
<path d="M162.516 20.3644H160.426V36.6826H162.516V20.3644Z" fill="white"/>
<path d="M176.326 22.3716V20.3644H165.151V22.3716H169.693V36.6826H171.783V22.3716H176.326Z" fill="white"/>
<path d="M197.473 22.4858C195.86 20.8213 193.884 20 191.521 20C189.16 20 187.181 20.8213 185.569 22.4613C183.956 24.0795 183.162 26.1084 183.162 28.5235C183.162 30.9413 183.956 32.9675 185.569 34.5857C187.181 36.2284 189.16 37.047 191.521 37.047C193.86 37.047 195.86 36.2284 197.473 34.5857C199.086 32.9675 199.88 30.9413 199.88 28.5235C199.88 26.1302 199.086 24.104 197.473 22.4858ZM187.07 23.8511C188.274 22.6218 189.748 22.0071 191.521 22.0071C193.294 22.0071 194.768 22.6218 195.95 23.8511C197.153 25.0613 197.744 26.6333 197.744 28.5235C197.744 30.4164 197.153 31.9884 195.95 33.1959C194.768 34.4279 193.294 35.0426 191.521 35.0426C189.748 35.0426 188.274 34.4279 187.07 33.1959C185.889 31.9666 185.298 30.4164 185.298 28.5235C185.298 26.6333 185.889 25.0831 187.07 23.8511Z" fill="white"/>
<path d="M204.9 26.5191L204.81 23.3724H204.9L213.169 36.6826H215.349V20.3644H213.259V29.916L213.351 33.06H213.259L205.355 20.3644H202.813V36.6826H204.9V26.5191Z" fill="white"/>
<path d="M54.123 54.1548L25.2647 84.8873C25.2674 84.8927 25.2674 84.8982 25.2701 84.9036C26.1537 88.2434 29.1922 90.6992 32.7971 90.6992C34.239 90.6992 35.5916 90.3076 36.7516 89.6222L36.8438 89.5679L69.326 70.7612L54.123 54.1548Z" fill="#EB4335"/>
<path d="M83.3208 48.9224L83.2937 48.9033L69.2698 40.7443L53.4705 54.8513L69.324 70.756L83.2747 62.6813C85.7196 61.3568 87.3784 58.7704 87.3784 55.7869C87.3784 52.8251 85.7413 50.2496 83.3208 48.9224Z" fill="#FABC13"/>
<path d="M25.2656 26.5582C25.0922 27.2 25 27.8718 25 28.5708V82.8748C25 83.5737 25.0885 84.2481 25.2647 84.8873L55.116 54.9409L25.2656 26.5582Z" fill="#547DBF"/>
<path d="M54.3344 55.7215L69.2718 40.7387L36.8248 21.8641C35.6458 21.1543 34.2716 20.7463 32.7971 20.7463C29.1922 20.7463 26.151 23.2076 25.2647 26.5501L25.2656 26.5582L54.3344 55.7215Z" fill="#30A851"/>
<rect x="2" y="2" width="360" height="110" rx="18" stroke="white" stroke-width="4"/>
</svg>
