<svg width="167" height="70" viewBox="0 0 167 70" fill="none" xmlns="http://www.w3.org/2000/svg">
<path fill-rule="evenodd" clip-rule="evenodd" d="M39.2261 4.96798e-05H39.2271C39.2271 3.31199e-05 39.2271 1.65599e-05 39.2271 0C39.2267 1.65353e-05 39.2264 3.30952e-05 39.2261 4.96798e-05ZM64.072 3.96278V55.88H71.5689V38.1303H81.9468C91.4263 38.1303 98.0868 31.1369 98.0868 21.0132C98.0868 10.8895 91.5503 3.96278 82.1947 3.96278H64.072ZM80.2113 10.7567H71.5682V31.3704H80.1803C86.7169 31.3704 90.4343 27.6073 90.4343 21.0469C90.4343 14.4865 86.7169 10.7567 80.2113 10.7567ZM111.78 56.2795C116.489 56.2795 120.857 53.7153 122.839 49.6525H122.994V55.8799H129.933V30.0378C129.933 22.545 124.357 17.7162 115.776 17.7162C107.814 17.7162 101.929 22.6116 101.712 29.3385H108.465C109.023 26.1416 111.78 24.0435 115.559 24.0435C120.144 24.0435 122.715 26.3414 122.715 30.5707V33.4346L113.36 34.034C104.655 34.6002 99.9459 38.4299 99.9459 45.0902C99.9459 51.8171 104.81 56.2795 111.78 56.2795ZM107.256 44.8908C107.256 48.0544 109.797 50.1191 113.793 50.1191C118.874 50.1191 122.715 46.6557 122.715 41.7937V38.8632L114.382 39.4293C109.704 39.729 107.256 41.6272 107.256 44.8908ZM139.196 70C146.507 70 149.945 67.0028 152.95 57.9115L166.116 18.2159H158.496L149.667 48.8868H149.512L140.683 18.2159H132.845L145.546 56.0133L144.865 58.3111C143.719 62.2074 141.86 63.706 138.545 63.706C137.957 63.706 136.81 63.6394 136.346 63.5728V69.8002C136.779 69.9334 138.638 70 139.196 70Z" fill="black"/>
<path d="M48.2341 34.7608C48.2341 33.0544 48.0999 31.348 47.8315 29.6765H25.0495V39.3228H38.1013C37.5645 42.4221 35.8198 45.2081 33.2698 46.9493V53.2176H41.0539C45.617 48.8646 48.2341 42.4221 48.2341 34.7608Z" fill="#4285F4"/>
<path d="M25.0504 59.2773C31.5596 59.2773 37.0612 57.0483 41.0539 53.2176L33.2698 46.9493C31.0889 48.4815 28.305 49.3524 25.0504 49.3524C18.7426 49.3524 13.4078 44.9297 11.4953 39.0096H3.47631V45.4869C7.56969 53.9492 15.9242 59.2773 25.0504 59.2773Z" fill="#34A853"/>
<path d="M11.4953 39.0096C10.4886 35.9102 10.4895 32.5321 11.4963 29.398V22.9555H3.47599C0.0195583 30.0248 0.0195583 38.3826 3.47599 45.4519L11.4953 39.0096Z" fill="#FBBC04"/>
<path d="M25.0504 19.0552C28.5063 18.9855 31.828 20.3437 34.3109 22.8162L41.2226 15.6424C36.8273 11.3939 31.0563 9.06065 25.0504 9.1303C15.9242 9.1303 7.56937 14.4932 3.47599 22.9555L11.4953 29.4328C13.4078 23.4779 18.7426 19.0552 25.0504 19.0552Z" fill="#EA4335"/>
</svg>
