<svg width="225" height="95" viewBox="0 0 225 95" fill="none" xmlns="http://www.w3.org/2000/svg">
<path fill-rule="evenodd" clip-rule="evenodd" d="M52.1221 6.51499e-05H52.1234C52.1234 4.34333e-05 52.1234 2.17166e-05 52.1234 0C52.1229 2.16854e-05 52.1225 4.3402e-05 52.1221 6.51499e-05ZM85.8416 5.37805V75.8372H96.0159V51.7482H110.1C122.965 51.7482 132.004 42.2573 132.004 28.5179C132.004 14.7786 123.133 5.37805 110.437 5.37805H85.8416ZM107.745 14.5983H96.0149V42.5741H107.703C116.574 42.5741 121.619 37.4671 121.619 28.5636C121.619 19.6602 116.574 14.5983 107.745 14.5983ZM150.588 76.3794C156.978 76.3794 162.906 72.8994 165.597 67.3855H165.807V75.837H175.225V40.7656C175.225 30.5968 167.657 24.0435 156.011 24.0435C145.206 24.0435 137.218 30.6871 136.924 39.8165H146.089C146.846 35.4778 150.588 32.6305 155.717 32.6305C161.939 32.6305 165.429 35.749 165.429 41.4888V45.3755L152.732 46.1891C140.918 46.9574 134.527 52.1548 134.527 61.1938C134.527 70.3232 141.128 76.3794 150.588 76.3794ZM144.449 60.9232C144.449 65.2167 147.896 68.0188 153.32 68.0188C160.215 68.0188 165.428 63.3185 165.428 56.72V52.7429L154.119 53.5112C147.77 53.9179 144.449 56.494 144.449 60.9232ZM187.795 95C197.717 95 202.384 90.9324 206.462 78.5942L224.33 24.7216H213.988L202.006 66.3463H201.795L189.813 24.7216H179.176L196.414 76.0181L195.489 79.1365C193.933 84.4243 191.411 86.4581 186.912 86.4581C186.113 86.4581 184.558 86.3677 183.927 86.2774V94.7288C184.516 94.9096 187.038 95 187.795 95Z" fill="black"/>
<path d="M64.3473 47.1754C64.3473 44.8596 64.1651 42.5438 63.8008 40.2753H32.8824V53.3667H50.5956C49.8671 57.5729 47.4992 61.3538 44.0386 63.7169V72.224H54.6027C60.7955 66.3163 64.3473 57.5729 64.3473 47.1754Z" fill="#4285F4"/>
<path d="M32.8837 80.4478C41.7175 80.4478 49.184 77.4227 54.6027 72.224L44.0386 63.7169C41.0788 65.7964 37.3006 66.9783 32.8837 66.9783C24.3231 66.9783 17.083 60.9761 14.4874 52.9416H3.60453V61.7322C9.15983 73.2168 20.4981 80.4478 32.8837 80.4478Z" fill="#34A853"/>
<path d="M14.4874 52.9416C13.1212 48.7354 13.1225 44.1508 14.4887 39.8973V31.1539H3.60409C-1.08678 40.748 -1.08678 52.0907 3.60409 61.6848L14.4874 52.9416Z" fill="#FBBC04"/>
<path d="M32.8837 25.8607C37.5738 25.7661 42.0818 27.6093 45.4514 30.9649L54.8317 21.229C48.8665 15.4631 41.0345 12.2966 32.8837 12.3912C20.4981 12.3912 9.15939 19.6694 3.60409 31.1539L14.4874 39.9446C17.083 31.8629 24.3231 25.8607 32.8837 25.8607Z" fill="#EA4335"/>
</svg>
