<svg width="226" height="95" viewBox="0 0 226 95" fill="none" xmlns="http://www.w3.org/2000/svg">
<path fill-rule="evenodd" clip-rule="evenodd" d="M52.9175 6.51499e-05H52.9188C52.9188 4.34333e-05 52.9188 2.17166e-05 52.9188 0C52.9183 2.16854e-05 52.9179 4.3402e-05 52.9175 6.51499e-05ZM86.637 5.37805V75.8372H96.8113V51.7482H110.896C123.761 51.7482 132.8 42.2573 132.8 28.5179C132.8 14.7786 123.929 5.37805 111.232 5.37805H86.637ZM108.54 14.5983H96.8103V42.5741H108.498C117.369 42.5741 122.414 37.4671 122.414 28.5636C122.414 19.6602 117.369 14.5983 108.54 14.5983ZM151.383 76.3794C157.774 76.3794 163.702 72.8994 166.392 67.3855H166.603V75.837H176.02V40.7656C176.02 30.5968 168.453 24.0435 156.807 24.0435C146.002 24.0435 138.014 30.6871 137.719 39.8165H146.885C147.641 35.4778 151.383 32.6305 156.512 32.6305C162.735 32.6305 166.224 35.749 166.224 41.4888V45.3755L153.527 46.1891C141.713 46.9574 135.323 52.1548 135.323 61.1938C135.323 70.3232 141.924 76.3794 151.383 76.3794ZM145.244 60.9232C145.244 65.2167 148.692 68.0188 154.115 68.0188C161.01 68.0188 166.224 63.3185 166.224 56.72V52.7429L154.914 53.5112C148.566 53.9179 145.244 56.494 145.244 60.9232ZM188.591 95C198.513 95 203.179 90.9324 207.258 78.5942L225.126 24.7216H214.783L202.801 66.3463H202.591L190.609 24.7216H179.972L197.209 76.0181L196.284 79.1365C194.729 84.4243 192.206 86.4581 187.708 86.4581C186.909 86.4581 185.353 86.3677 184.723 86.2774V94.7288C185.311 94.9096 187.834 95 188.591 95Z" fill="white"/>
<path d="M65.1427 47.1754C65.1427 44.8596 64.9605 42.5438 64.5963 40.2753H33.6778V53.3667H51.391C50.6625 57.5729 48.2946 61.3538 44.834 63.7169V72.224H55.3981C61.5909 66.3163 65.1427 57.5729 65.1427 47.1754Z" fill="#4285F4"/>
<path d="M33.6791 80.4478C42.5129 80.4478 49.9794 77.4227 55.3981 72.224L44.834 63.7169C41.8742 65.7964 38.096 66.9783 33.6791 66.9783C25.1185 66.9783 17.8784 60.9761 15.2829 52.9416H4.39994V61.7322C9.95524 73.2168 21.2935 80.4478 33.6791 80.4478Z" fill="#34A853"/>
<path d="M15.2829 52.9416C13.9166 48.7354 13.9179 44.1508 15.2842 39.8973V31.1539H4.3995C-0.291371 40.748 -0.291371 52.0907 4.3995 61.6848L15.2829 52.9416Z" fill="#FBBC04"/>
<path d="M33.6791 25.8607C38.3692 25.7661 42.8772 27.6093 46.2468 30.9649L55.6271 21.229C49.662 15.4631 41.8299 12.2966 33.6791 12.3912C21.2935 12.3912 9.9548 19.6694 4.3995 31.1539L15.2829 39.9446C17.8784 31.8629 25.1185 25.8607 33.6791 25.8607Z" fill="#EA4335"/>
</svg>
