<svg width="71" height="72" viewBox="0 0 71 72" fill="none" xmlns="http://www.w3.org/2000/svg">
<path d="M16.1507 71.4575H1.71806V24.1671H16.1507V71.4575ZM8.92659 17.7162C4.31152 17.7162 0.568176 13.8267 0.568176 9.13091C0.568176 6.87533 1.44879 4.71212 3.0163 3.11719C4.58381 1.52225 6.7098 0.626221 8.92659 0.626221C11.1434 0.626221 13.2694 1.52225 14.8369 3.11719C16.4044 4.71212 17.285 6.87533 17.285 9.13091C17.285 13.8267 13.5401 17.7162 8.92659 17.7162ZM70.1673 71.4575H55.7657V48.4368C55.7657 42.9504 55.657 35.9146 48.262 35.9146C40.7582 35.9146 39.6083 41.8753 39.6083 48.0416V71.4575H25.1912V24.1671H39.0334V30.6179H39.2354C41.1622 26.9024 45.869 22.9813 52.891 22.9813C67.4977 22.9813 70.1828 32.7682 70.1828 45.4802V71.4575H70.1673Z" fill="black"/>
</svg>
