<svg width="70" height="71" viewBox="0 0 70 71" fill="none" xmlns="http://www.w3.org/2000/svg">
<path d="M15.5825 70.8313H1.14988V23.5409H15.5825V70.8313ZM8.35842 17.09C3.74334 17.09 0 13.2005 0 8.50469C3.30327e-08 6.2491 0.880616 4.0859 2.44812 2.49097C4.01563 0.896027 6.14163 0 8.35842 0C10.5752 0 12.7012 0.896027 14.2687 2.49097C15.8362 4.0859 16.7168 6.2491 16.7168 8.50469C16.7168 13.2005 12.9719 17.09 8.35842 17.09ZM69.5991 70.8313H55.1976V47.8106C55.1976 42.3242 55.0888 35.2884 47.6938 35.2884C40.19 35.2884 39.0401 41.2491 39.0401 47.4153V70.8313H24.6231V23.5409H38.4652V29.9917H38.6672C40.594 26.2762 45.3008 22.355 52.3228 22.355C66.9295 22.355 69.6146 32.142 69.6146 44.854V70.8313H69.5991Z" fill="white"/>
</svg>
