<svg width="70" height="70" viewBox="0 0 70 70" fill="none" xmlns="http://www.w3.org/2000/svg">
<path d="M15.5825 69.8313H1.14988V23.2085H15.5825V69.8313ZM8.35842 16.8487C3.74334 16.8487 0 13.0142 0 8.38462C3.30327e-08 6.16088 0.880616 4.02822 2.44812 2.4558C4.01563 0.883377 6.14163 0 8.35842 0C10.5752 0 12.7012 0.883377 14.2687 2.4558C15.8362 4.02822 16.7168 6.16088 16.7168 8.38462C16.7168 13.0142 12.9719 16.8487 8.35842 16.8487ZM69.5991 69.8313H55.1976V47.1356C55.1976 41.7267 55.0888 34.7902 47.6938 34.7902C40.19 34.7902 39.0401 40.6667 39.0401 46.7459V69.8313H24.6231V23.2085H38.4652V29.5683H38.6672C40.594 25.9052 45.3008 22.0394 52.3228 22.0394C66.9295 22.0394 69.6146 31.6882 69.6146 44.2207V69.8313H69.5991Z" fill="#144F8A"/>
</svg>
