<svg width="115" height="71" viewBox="0 0 115 71" fill="none" xmlns="http://www.w3.org/2000/svg">
<path d="M35 70.5213C28.0777 70.5213 21.3108 68.468 15.5551 64.621C9.79933 60.774 5.3133 55.306 2.66423 48.9087C0.015165 42.5113 -0.677952 35.4718 0.672531 28.6804C2.02301 21.889 5.35644 15.6507 10.2513 10.7544C15.1461 5.85807 21.3825 2.52363 28.1718 1.17274C34.9612 -0.178159 41.9985 0.515171 48.3939 3.16504C54.7893 5.81492 60.2556 10.3023 64.1014 16.0598C67.9473 21.8173 70 28.5862 70 35.5107C69.9904 44.7931 66.2998 53.6926 59.7381 60.2563C53.1764 66.82 44.2796 70.5117 35 70.5213Z" fill="#FF0000"/>
<path d="M79.8405 70.6599C72.9182 70.6609 66.151 68.6086 60.3947 64.7624C54.6384 60.9163 50.1516 55.449 47.5016 49.052C44.8515 42.6551 44.1574 35.6157 45.5068 28.8241C46.8563 22.0325 50.1888 15.7937 55.0829 10.8966C59.977 5.99957 66.2129 2.66421 73.0021 1.3123C79.7912 -0.0396019 86.8286 0.652678 93.2244 3.3016C99.6202 5.95052 105.087 10.4371 108.934 16.194C112.781 21.9509 114.834 28.7196 114.835 35.644V35.6492C114.826 44.9308 111.136 53.8295 104.575 60.393C98.0147 66.9566 89.1192 70.6489 79.8405 70.6599Z" fill="#FBA400"/>
<path fill-rule="evenodd" clip-rule="evenodd" d="M57.5007 8.69357C60.0248 10.8127 62.2508 13.2892 64.1014 16.0598C67.9473 21.8173 70 28.5862 70 35.5107C69.9904 44.7931 66.2998 53.6926 59.7381 60.2563C58.9645 61.0301 58.1585 61.764 57.3231 62.4567C53.0355 58.8539 49.6595 54.2612 47.5016 49.052C44.8515 42.6551 44.1574 35.6157 45.5068 28.8241C46.8563 22.0325 50.1888 15.7937 55.0829 10.8966C55.8564 10.1227 56.6633 9.38781 57.5007 8.69357Z" fill="#FA502B"/>
</svg>
