<svg width="80" height="66" viewBox="0 0 80 66" fill="none" xmlns="http://www.w3.org/2000/svg">
<path d="M71.3814 16.3855C71.4319 17.1046 71.4319 17.8238 71.4319 18.5429C71.4319 40.4758 55.0254 65.7476 25.039 65.7476C15.8008 65.7476 7.21894 63.0251 0 58.2997C1.31258 58.4537 2.5745 58.5051 3.93758 58.5051C11.5602 58.5051 18.5773 55.8856 24.1808 51.4168C17.0124 51.2626 11.005 46.4857 8.93522 39.9108C9.94495 40.0648 10.9545 40.1676 12.0147 40.1676C13.4787 40.1676 14.9427 39.9621 16.3057 39.6027C8.83437 38.0616 3.23071 31.3842 3.23071 23.3198V23.1144C5.40135 24.3472 7.92566 25.1177 10.601 25.2203C6.20906 22.241 3.33171 17.1559 3.33171 11.403C3.33171 8.32112 4.13927 5.49603 5.55285 3.03048C13.5795 13.0981 25.6448 19.6727 39.1738 20.392C38.9214 19.1592 38.7699 17.8752 38.7699 16.591C38.7699 7.44789 46.0393 0 55.0756 0C59.7704 0 64.0108 2.00324 66.9893 5.23926C70.6744 4.52018 74.2081 3.13325 77.3381 1.23278C76.1264 5.08526 73.5519 8.32128 70.1697 10.3758C73.451 10.0164 76.6314 9.09159 79.5592 7.80758C77.3384 11.0948 74.5618 14.0225 71.3814 16.3855Z" fill="#1C93E4"/>
</svg>
