<svg width="81" height="67" viewBox="0 0 81 67" fill="none" xmlns="http://www.w3.org/2000/svg">
<path d="M71.9496 17.0117C72.0001 17.7308 72.0001 18.45 72.0001 19.1691C72.0001 41.102 55.5936 66.3738 25.6072 66.3738C16.369 66.3738 7.78712 63.6514 0.568176 58.9259C1.88075 59.0799 3.14267 59.1313 4.50575 59.1313C12.1284 59.1313 19.1455 56.5118 24.749 52.043C17.5806 51.8888 11.5732 47.1119 9.5034 40.5371C10.5131 40.6911 11.5227 40.7938 12.5829 40.7938C14.0468 40.7938 15.5109 40.5883 16.8738 40.2289C9.40255 38.6878 3.79889 32.0104 3.79889 23.946V23.7407C5.96952 24.9734 8.49383 25.7439 11.1692 25.8465C6.77724 22.8673 3.89989 17.7822 3.89989 12.0292C3.89989 8.94734 4.70745 6.12225 6.12103 3.6567C14.1477 13.7243 26.2129 20.2989 39.7419 21.0182C39.4896 19.7854 39.3381 18.5014 39.3381 17.2172C39.3381 8.07411 46.6075 0.626221 55.6437 0.626221C60.3385 0.626221 64.579 2.62946 67.5575 5.86548C71.2426 5.1464 74.7763 3.75947 77.9063 1.859C76.6946 5.71148 74.1201 8.9475 70.7378 11.002C74.0192 10.6426 77.1996 9.71781 80.1274 8.43381C77.9066 11.7211 75.1299 14.6488 71.9496 17.0117Z" fill="black"/>
</svg>
