<svg width="85" height="61" viewBox="0 0 85 61" fill="none" xmlns="http://www.w3.org/2000/svg">
<path d="M83.0903 9.49967C82.1143 5.76039 79.2387 2.81545 75.5875 1.81604C68.9694 0 42.4318 0 42.4318 0C42.4318 0 15.8944 0 9.27615 1.81604C5.62495 2.81561 2.74931 5.76039 1.77331 9.49967C0 16.2773 0 30.4183 0 30.4183C0 30.4183 0 44.5593 1.77331 51.3369C2.74931 55.0762 5.62495 57.8985 9.27615 58.8979C15.8944 60.7139 42.4318 60.7139 42.4318 60.7139C42.4318 60.7139 68.9693 60.7139 75.5875 58.8979C79.2387 57.8985 82.1143 55.0762 83.0903 51.3369C84.8637 44.5593 84.8637 30.4183 84.8637 30.4183C84.8637 30.4183 84.8637 16.2773 83.0903 9.49967ZM33.7525 43.2572V17.5794L55.9327 30.4186L33.7525 43.2572Z" fill="white"/>
</svg>
