<svg width="86" height="62" viewBox="0 0 86 62" fill="none" xmlns="http://www.w3.org/2000/svg">
<path d="M83.6585 10.1259C82.6825 6.38661 79.8069 3.44167 76.1557 2.44226C69.5376 0.626221 43 0.626221 43 0.626221C43 0.626221 16.4625 0.626221 9.84433 2.44226C6.19313 3.44183 3.31749 6.38661 2.34148 10.1259C0.568176 16.9036 0.568176 31.0445 0.568176 31.0445C0.568176 31.0445 0.568176 45.1855 2.34148 51.9631C3.31749 55.7024 6.19313 58.5247 9.84433 59.5241C16.4625 61.3401 43 61.3401 43 61.3401C43 61.3401 69.5375 61.3401 76.1557 59.5241C79.8069 58.5247 82.6825 55.7024 83.6585 51.9631C85.4318 45.1855 85.4318 31.0445 85.4318 31.0445C85.4318 31.0445 85.4318 16.9036 83.6585 10.1259ZM34.3207 43.8835V18.2056L56.5009 31.0448L34.3207 43.8835Z" fill="black"/>
</svg>
